SplineFontDB: 3.2
FontName: SeriousShanns
FullName: Serious Shanns
FamilyName: Serious Shanns
Weight: Book
Copyright: https://github.com/kaBeech/serious-shanns/blob/main/LICENSE
Version: 6.0.0
ItalicAngle: 0
UnderlinePosition: 0
UnderlineWidth: 0
Ascent: 800
Descent: 200
InvalidEm: 0
sfntRevision: 0x00003333
LayerCount: 2
Layer: 0 0 "Back" 1
Layer: 1 0 "Fore" 0
XUID: [1021 45 630387186 12505762]
StyleMap: 0x0040
FSType: 4
OS2Version: 3
OS2_WeightWidthSlopeOnly: 0
OS2_UseTypoMetrics: 0
CreationTime: 1532631502
ModificationTime: 315532800
PfmFamily: 81
TTFWeight: 400
TTFWidth: 5
LineGap: 0
VLineGap: 0
Panose: 0 0 0 0 0 0 0 0 0 0
OS2TypoAscent: 613
OS2TypoAOffset: 0
OS2TypoDescent: -188
OS2TypoDOffset: 0
OS2TypoLinegap: 98
OS2WinAscent: 778
OS2WinAOffset: 0
OS2WinDescent: 308
OS2WinDOffset: 0
HheadAscent: 796
HheadAOffset: 0
HheadDescent: -317
HheadDOffset: 0
OS2SubXSize: 317
OS2SubYSize: 293
OS2SubXOff: 0
OS2SubYOff: 37
OS2SupXSize: 317
OS2SupYSize: 293
OS2SupXOff: 0
OS2SupYOff: 171
OS2StrikeYSize: 0
OS2StrikeYPos: 132
OS2CapHeight: 576
OS2XHeight: 485
OS2Vendor: 'NONE'
OS2CodePages: 00000001.00000000
OS2UnicodeRanges: 00000001.00000000.00000000.00000000
MarkAttachClasses: 1
DEI: 91125
LangName: 1033 "" "" "Normal" "FontForge 2.0 : Serious Shanns : 11-6-2024" "" "Version 0.2.0"
Encoding: UnicodeBmp
Compacted: 1
UnicodeInterp: none
NameList: AGL For New Fonts
DisplaySize: -48
AntiAlias: 1
FitToEm: 0
WinInfo: 0 16 11
BeginPrivate: 8
BlueValues 32 [-40 -6 502 523 708 718 765 769]
OtherBlues 11 [-297 -287]
BlueScale 9 0.0291667
BlueShift 1 2
StdHW 4 [85]
StdVW 4 [96]
StemSnapH 7 [65 85]
StemSnapV 4 [96]
EndPrivate
BeginChars: 65537 97

StartChar: .notdef
Encoding: 65536 -1 0
Width: 550
GlyphClass: 1
Flags: W
HStem: -268 54<114 435> 695 54<114 435>
VStem: 61 53<-214 695> 435 54<-214 695>
LayerCount: 2
Fore
SplineSet
61 -268 m 1
 61 749 l 1
 489 749 l 1
 489 -268 l 1
 61 -268 l 1
114 -214 m 1
 435 -214 l 1
 435 695 l 1
 114 695 l 1
 114 -214 l 1
EndSplineSet
Validated: 1
EndChar

StartChar: exclam
Encoding: 33 33 1
Width: 550
GlyphClass: 2
Flags: HMW
HStem: -24.5727 153.613
VStem: 192.997 164.001 233.997 92.3857
LayerCount: 2
Fore
SplineSet
334 738 m 0xa0
 334 732 332.498046875 688.16796875 329.498046875 606.500976562 c 0
 327.420898438 549.961914062 326.3828125 500.692382812 326.3828125 458.692382812 c 0
 326.3828125 440.026367188 326.587890625 422.795898438 326.998046875 407.000976562 c 0
 327.6640625 382.000976562 327.997070312 362.04296875 327.997070312 347.125976562 c 0
 327.997070312 332.208984375 327.6640625 322.333984375 326.997070312 317.5 c 0
 326.108398438 311.056640625 325.6640625 302.022460938 325.6640625 290.397460938 c 0
 325.6640625 284.580078125 325.775390625 278.114257812 325.998046875 271 c 0
 324.665039062 256.333007812 318.998046875 244.833007812 308.998046875 236.5 c 0
 299.739257812 228.784179688 288.765625 224.926757812 276.078125 224.926757812 c 0
 275.0625 224.926757812 274.036132812 224.951171875 272.999023438 225.000976562 c 0
 259.666015625 225.000976562 248.666015625 229.333984375 239.999023438 238.000976562 c 0
 232.487304688 245.512695312 228.731445312 256.029296875 228.731445312 269.55078125 c 0
 228.731445312 271.629882812 228.8203125 273.780273438 228.998046875 276.001953125 c 0
 229.665039062 286.001953125 230.665039062 295.668945312 231.998046875 305.001953125 c 0
 233.331054688 314.334960938 234.1640625 322.16796875 234.497070312 328.500976562 c 0
 234.830078125 334.833984375 235.330078125 349.833984375 235.997070312 373.500976562 c 0
 236.1640625 379.41796875 236.247070312 385.762695312 236.247070312 392.534179688 c 0
 236.247070312 412.846679688 235.497070312 437.001953125 233.997070312 465.000976562 c 0
 233.330078125 491.000976562 232.830078125 518.500976562 232.497070312 547.500976562 c 0
 232.385742188 557.158203125 232.330078125 566.279296875 232.330078125 574.864257812 c 0
 232.330078125 592.059570312 232.552734375 607.10546875 232.998046875 620 c 0
 233.665039062 639.333007812 234.33203125 661.333007812 234.999023438 686 c 0
 235.666015625 710.666992188 235.999023438 727 235.999023438 735 c 0
 236.666015625 753 241.833007812 766.666992188 251.5 776 c 0
 261.166992188 785.333007812 273 790 287 790 c 0
 288 790.047851562 288.986328125 790.071289062 289.959960938 790.071289062 c 0
 302.60546875 790.071289062 312.952148438 786.047851562 321 778 c 0
 329.666992188 769.333007812 334 756 334 738 c 0xa0
276.998046875 -23.9990234375 m 0
 273.47265625 -24.3798828125 270.0390625 -24.5703125 266.697265625 -24.5703125 c 0
 246.658203125 -24.5703125 229.924804688 -17.7158203125 216.497070312 -4.0029296875 c 0
 200.830078125 11.9970703125 192.997070312 31.330078125 192.997070312 53.9970703125 c 0
 192.997070312 73.9970703125 201.830078125 91.330078125 219.497070312 105.997070312 c 0
 237.1640625 120.6640625 256.331054688 128.331054688 276.998046875 128.998046875 c 0
 278.03515625 129.02734375 279.064453125 129.041992188 280.0859375 129.041992188 c 0
 302.02734375 129.041992188 320.165039062 122.194335938 334.498046875 108.499023438 c 0
 349.498046875 94.166015625 356.998046875 76.3330078125 356.998046875 55 c 0xc0
 356.998046875 33.6669921875 349.665039062 15.833984375 334.998046875 1.5009765625 c 0
 320.331054688 -12.83203125 300.998046875 -21.33203125 276.998046875 -23.9990234375 c 0
EndSplineSet
Validated: 524289
EndChar

StartChar: quotedbl
Encoding: 34 34 2
Width: 550
GlyphClass: 2
Flags: HMW
VStem: 145.571 101.426 303.523 103.475
LayerCount: 2
Fore
SplineSet
248 738 m 0
 248.221679688 728.908203125 248.33203125 717.880859375 248.33203125 704.916015625 c 0
 248.33203125 678.904296875 247.885742188 645.09765625 246.99609375 603.498046875 c 0
 245.663085938 541.165039062 243.330078125 498.33203125 239.997070312 474.999023438 c 0
 237.997070312 461.666015625 232.330078125 451.666015625 222.997070312 444.999023438 c 0
 214.512695312 438.938476562 205.202148438 435.908203125 195.065429688 435.908203125 c 0
 194.051757812 435.908203125 193.029296875 435.938476562 191.999023438 435.999023438 c 0
 178.666015625 436.666015625 166.833007812 440.833007812 156.5 448.5 c 0
 147.34765625 455.291015625 142.771484375 464.565429688 142.771484375 476.32421875 c 0
 142.771484375 480.546875 145.571289062 511.731445312 145.571289062 589.744140625 c 0
 145.571289062 596.965820312 145.547851562 604.383789062 145.5 611.999023438 c 0
 145.166992188 665.33203125 144 709.33203125 142 743.999023438 c 0
 141.333007812 751.999023438 142.833007812 758.83203125 146.5 764.499023438 c 0
 150.166992188 770.166015625 155 774.333007812 161 777 c 0
 167 779.666992188 173.166992188 781.5 179.5 782.5 c 0
 185.833007812 783.5 192 783.666992188 198 783 c 0
 204 783 209.666992188 782.333007812 215 781 c 0
 220.333007812 779.666992188 225.5 777.5 230.5 774.5 c 0
 235.5 771.5 239.666992188 766.833007812 243 760.5 c 0
 246.333007812 754.166992188 248 746.666992188 248 738 c 0
407.99609375 737.997070312 m 0
 408.21875 728.875976562 408.329101562 717.805664062 408.329101562 704.786132812 c 0
 408.329101562 678.791015625 407.885742188 645.026367188 406.998046875 603.495117188 c 0
 405.665039062 541.162109375 403.665039062 498.329101562 400.998046875 474.99609375 c 0
 398.998046875 461.663085938 393.165039062 451.663085938 383.498046875 444.99609375 c 0
 374.709960938 438.935546875 365.508789062 435.905273438 355.89453125 435.905273438 c 0
 354.932617188 435.905273438 353.966796875 435.935546875 352.997070312 435.99609375 c 0
 339.6640625 436.663085938 327.6640625 440.830078125 316.997070312 448.497070312 c 0
 308.014648438 454.953125 303.5234375 463.654296875 303.5234375 474.6015625 c 0
 303.5234375 476.654296875 303.681640625 478.786132812 303.997070312 480.997070312 c 0
 305.497070312 506.49609375 306.247070312 537.432617188 306.247070312 573.805664062 c 0
 306.247070312 585.931640625 306.1640625 598.662109375 305.997070312 611.99609375 c 0
 305.330078125 665.329101562 303.997070312 709.329101562 301.997070312 743.99609375 c 0
 301.997070312 751.99609375 303.830078125 758.829101562 307.497070312 764.49609375 c 0
 311.1640625 770.163085938 315.997070312 774.330078125 321.997070312 776.997070312 c 0
 327.997070312 779.6640625 333.997070312 781.497070312 339.997070312 782.497070312 c 0
 345.997070312 783.497070312 351.997070312 783.6640625 357.997070312 782.997070312 c 0
 363.997070312 782.997070312 369.6640625 782.330078125 374.997070312 780.997070312 c 0
 380.330078125 779.6640625 385.663085938 777.497070312 390.99609375 774.497070312 c 0
 396.329101562 771.497070312 400.49609375 766.830078125 403.49609375 760.497070312 c 0
 406.49609375 754.1640625 407.99609375 746.6640625 407.99609375 737.997070312 c 0
EndSplineSet
Validated: 524289
EndChar

StartChar: numbersign
Encoding: 35 35 3
Width: 550
GlyphClass: 2
Flags: HMW
HStem: 192 82 445 84 697.667 20G
LayerCount: 2
Fore
SplineSet
161 42 m 0
 156.333007812 28 146.665039062 16.4990234375 131.998046875 7.4990234375 c 0
 121.84375 1.2685546875 112.168945312 -1.8466796875 102.973632812 -1.8466796875 c 0
 98.88671875 -1.8466796875 94.89453125 -1.2314453125 90.9970703125 -0.0009765625 c 0
 78.330078125 2.666015625 68.9970703125 11.166015625 62.9970703125 25.4990234375 c 0
 59.8203125 33.0869140625 58.232421875 41.095703125 58.232421875 49.5244140625 c 0
 58.232421875 57.0166015625 59.4873046875 64.8408203125 61.9970703125 72.998046875 c 0
 67.330078125 90.998046875 76.6630859375 129.665039062 89.99609375 188.998046875 c 1
 59.99609375 188.998046875 l 2
 43.3291015625 188.998046875 30.662109375 192.331054688 21.9951171875 198.998046875 c 0
 9.25 208.801757812 8.91796875 221.170898438 8.91796875 228.732421875 c 0
 8.91796875 239.524414062 12.6103515625 248.61328125 19.9951171875 255.998046875 c 0
 27.9951171875 263.998046875 40.662109375 268.665039062 57.9951171875 269.998046875 c 0
 63.328125 269.998046875 71.4951171875 270.165039062 82.4951171875 270.498046875 c 0
 93.4951171875 270.831054688 101.662109375 270.998046875 106.995117188 270.998046875 c 1
 140.995117188 443.998046875 l 1
 135.662109375 443.998046875 128.329101562 443.831054688 118.99609375 443.498046875 c 0
 109.663085938 443.165039062 103.330078125 442.998046875 99.9970703125 442.998046875 c 0
 98.6630859375 442.944335938 97.353515625 442.91796875 96.068359375 442.91796875 c 0
 81.2998046875 442.91796875 69.7763671875 446.444335938 61.4970703125 453.498046875 c 0
 48.240234375 464.791015625 47.9248046875 477.244140625 47.9248046875 484.541992188 c 0
 47.9248046875 495.44140625 51.9482421875 504.759765625 59.99609375 512.497070312 c 0
 68.6630859375 520.830078125 81.6630859375 525.330078125 98.99609375 525.997070312 c 0
 111.663085938 526.6640625 130.99609375 526.997070312 156.99609375 526.997070312 c 1
 175.663085938 627.6640625 185.330078125 679.6640625 185.997070312 682.997070312 c 0
 191.330078125 699.6640625 199.663085938 711.331054688 210.99609375 717.998046875 c 0
 218.551757812 722.443359375 226.255859375 724.666015625 234.108398438 724.666015625 c 0
 238.034179688 724.666015625 241.997070312 724.110351562 245.997070312 722.999023438 c 0
 259.997070312 720.33203125 270.830078125 713.665039062 278.497070312 702.998046875 c 0
 283.840820312 695.563476562 286.512695312 686.509765625 286.512695312 675.836914062 c 0
 286.512695312 671.197265625 286.0078125 666.250976562 284.998046875 660.999023438 c 2
 257.998046875 528.999023438 l 1
 370.998046875 528.999023438 l 1
 397.998046875 674.999023438 l 2
 403.331054688 692.33203125 411.498046875 704.33203125 422.498046875 710.999023438 c 0
 429.83203125 715.444335938 437.684570312 717.666992188 446.055664062 717.666992188 c 0
 450.240234375 717.666992188 454.5546875 717.111328125 458.999023438 716 c 0
 473.666015625 713.333007812 484.666015625 706.666015625 491.999023438 695.999023438 c 0
 496.744140625 689.096679688 499.1171875 680.798828125 499.1171875 671.10546875 c 0
 499.1171875 665.818359375 498.411132812 660.116210938 496.999023438 653.999023438 c 0
 489.666015625 625.999023438 481.333007812 584.999023438 472 530.999023438 c 1
 483 530.999023438 l 2
 499 530.999023438 512.5 526.499023438 523.5 517.499023438 c 0
 534.5 508.499023438 540.333007812 498.999023438 541 488.999023438 c 0
 541 476.999023438 537 466.83203125 529 458.499023438 c 0
 521 450.166015625 508.666992188 445.666015625 492 444.999023438 c 2
 456 444.999023438 l 1
 427 273.999023438 l 1
 468 273.999023438 l 2
 483.333007812 273.999023438 494 270.499023438 500 263.499023438 c 0
 506 256.499023438 509.333007812 247.33203125 510 235.999023438 c 0
 510 206.666015625 496 191.999023438 468 191.999023438 c 2
 412 191.999023438 l 1
 398.666992188 115.999023438 389 64.666015625 383 37.9990234375 c 0
 377.666992188 23.9990234375 368.166992188 13.166015625 354.5 5.4990234375 c 0
 345.518554688 0.4609375 336.609375 -2.0576171875 327.772460938 -2.0576171875 c 0
 323.162109375 -2.0576171875 318.571289062 -1.3720703125 314 -0.0009765625 c 0
 301.333007812 2.666015625 292 10.4990234375 286 23.4990234375 c 0
 282.823242188 30.380859375 281.235351562 37.77734375 281.235351562 45.6875 c 0
 281.235351562 52.71875 282.490234375 60.15625 285 68 c 0
 291.666992188 94.6669921875 300.333984375 135.666992188 311.000976562 191 c 1
 297.000976562 191 276.66796875 190.833007812 250.000976562 190.5 c 0
 223.333984375 190.166992188 203.666992188 190 191 190 c 1
 177 118 167 68.6669921875 161 42 c 0
241.999023438 444.999023438 m 1
 207 273.998046875 l 1
 234.333007812 274.665039062 273.666015625 274.998046875 324.999023438 274.998046875 c 1
 335.666015625 329.665039062 345.999023438 386.33203125 355.999023438 444.999023438 c 1
 241.999023438 444.999023438 l 1
EndSplineSet
Validated: 524289
EndChar

StartChar: dollar
Encoding: 36 36 4
Width: 550
GlyphClass: 2
Flags: HMW
HStem: -28.9932 84.9932 642.998 79.002
VStem: 48.999 92.001 236.999 87.001 427.001 92.999
LayerCount: 2
Fore
SplineSet
317 -99 m 0
 315.666992188 -113.666992188 310 -124.993164062 300 -132.993164062 c 0
 290 -140.993164062 278.333007812 -144.993164062 265 -144.993164062 c 0
 252.333007812 -144.993164062 242.833007812 -140.493164062 236.5 -131.493164062 c 0
 231.268554688 -124.05859375 228.65234375 -114.0078125 228.65234375 -101.340820312 c 0
 228.65234375 -98.6748046875 228.768554688 -95.892578125 229 -92.994140625 c 0
 229.888671875 -82.330078125 230.333007812 -69.296875 230.333007812 -53.89453125 c 0
 230.333007812 -46.1875 230.221679688 -37.8876953125 229.999023438 -28.994140625 c 1
 226.999023438 -28.994140625 l 2
 202.999023438 -28.994140625 180.499023438 -25.994140625 159.499023438 -19.994140625 c 0
 138.499023438 -13.994140625 120.499023438 -5.994140625 105.499023438 4.005859375 c 0
 90.4990234375 14.005859375 77.4990234375 24.6728515625 66.4990234375 36.005859375 c 0
 55.4990234375 47.3388671875 46.666015625 59.671875 39.9990234375 73.0048828125 c 0
 33.9990234375 86.5048828125 30.9990234375 98.1298828125 30.9990234375 107.879882812 c 0
 30.9990234375 111.129882812 31.33203125 114.171875 31.9990234375 117.004882812 c 0
 34.666015625 128.337890625 41.666015625 136.670898438 52.9990234375 142.00390625 c 0
 60.9990234375 145.336914062 67.33203125 147.669921875 71.9990234375 149.002929688 c 0
 76.666015625 150.3359375 81.8330078125 150.668945312 87.5 150.001953125 c 0
 93.1669921875 149.334960938 98.6669921875 146.66796875 104 142.000976562 c 0
 109.333007812 137.333984375 115 130.666992188 121 122 c 0
 134.333007812 101.333007812 149.666015625 85.166015625 166.999023438 73.4990234375 c 0
 184.33203125 61.83203125 205.33203125 55.9990234375 229.999023438 55.9990234375 c 2
 233.999023438 55.9990234375 l 1
 235.33203125 167.33203125 235.999023438 266.665039062 235.999023438 353.998046875 c 1
 232.666015625 353.998046875 226.833007812 354.665039062 218.5 355.998046875 c 0
 210.166992188 357.331054688 204 357.998046875 200 357.998046875 c 0
 176 360.665039062 154 366.998046875 134 376.998046875 c 0
 114 386.998046875 98.1669921875 399.165039062 86.5 413.498046875 c 0
 74.8330078125 427.831054688 65.666015625 442.831054688 58.9990234375 458.498046875 c 0
 52.33203125 474.165039062 48.9990234375 489.998046875 48.9990234375 505.998046875 c 0
 48.9990234375 529.998046875 52.666015625 552.998046875 59.9990234375 574.998046875 c 0
 67.33203125 596.998046875 78.4990234375 617.498046875 93.4990234375 636.498046875 c 0
 108.499023438 655.498046875 127.999023438 671.831054688 151.999023438 685.498046875 c 0
 175.999023438 699.165039062 204.33203125 708.665039062 236.999023438 713.998046875 c 1
 237.666015625 729.998046875 237.999023438 749.331054688 237.999023438 771.998046875 c 0
 238.666015625 808.665039062 252.333007812 826.998046875 279 826.998046875 c 0
 279.555664062 827.010742188 280.106445312 827.016601562 280.65234375 827.016601562 c 0
 309.55078125 827.016601562 324 809.677734375 324 774.999023438 c 2
 324 721.999023438 l 1
 338.666992188 721.33203125 359.166992188 717.999023438 385.5 711.999023438 c 0
 411.833007812 705.999023438 431.333007812 700.33203125 444 694.999023438 c 0
 456.666992188 690.33203125 465.666992188 682.999023438 471 672.999023438 c 0
 475.266601562 664.999023438 477.399414062 656.572265625 477.399414062 647.71875 c 0
 477.399414062 645.505859375 477.266601562 643.266601562 477 641 c 0
 476.333007812 633 473.833007812 626.833007812 469.5 622.5 c 0
 465.166992188 618.166992188 459.833984375 615.5 453.500976562 614.5 c 0
 447.16796875 613.5 441.16796875 613.333007812 435.500976562 614 c 0
 429.833984375 614.666992188 423.666992188 615.666992188 417 617 c 0
 411 618.333007812 403.5 621.166015625 394.5 625.499023438 c 0
 385.5 629.83203125 375.333007812 633.665039062 364 636.998046875 c 0
 352.666992188 640.331054688 339 642.331054688 323 642.998046875 c 1
 322.333007812 589.665039062 321 518.998046875 319 430.998046875 c 1
 349.666992188 426.998046875 377 419.831054688 401 409.498046875 c 0
 425 399.165039062 444.166992188 387.33203125 458.5 373.999023438 c 0
 472.833007812 360.666015625 485 345.333007812 495 328 c 0
 505 310.666992188 511.666992188 293.666992188 515 277 c 0
 518.333007812 260.333007812 520 243 520 225 c 0
 520 194.333007812 514.833007812 165.333007812 504.5 138 c 0
 494.166992188 110.666992188 479.666992188 87 461 67 c 0
 442.333007812 47 420.666015625 29.6669921875 395.999023438 15 c 0
 371.33203125 0.3330078125 344.33203125 -10.6669921875 314.999023438 -18 c 1
 315.666015625 -58 316.333007812 -85 317 -99 c 0
141 531.006835938 m 0
 141 509.673828125 149.500976562 491.006835938 166.500976562 475.006835938 c 0
 183.500976562 459.006835938 206.66796875 447.673828125 236.000976562 441.006835938 c 1
 236.66796875 487.006835938 237.000976562 551.006835938 237.000976562 633.006835938 c 1
 208.333984375 624.33984375 185.166992188 611.33984375 167.5 594.006835938 c 0
 149.833007812 576.673828125 141 555.673828125 141 531.006835938 c 0
427.000976562 208.006835938 m 0
 427.000976562 220.673828125 425.33203125 232.340820312 421.999023438 243.0078125 c 0
 418.666015625 253.674804688 413.333007812 264.841796875 406 276.508789062 c 0
 398.666992188 288.17578125 387.666992188 299.008789062 373 309.008789062 c 0
 358.333007812 319.008789062 340 327.67578125 318 335.008789062 c 1
 318 305.67578125 317.833007812 261.508789062 317.5 202.508789062 c 0
 317.166992188 143.508789062 316.333984375 100.67578125 315.000976562 74.0087890625 c 1
 347.000976562 87.341796875 373.66796875 105.674804688 395.000976562 129.0078125 c 0
 416.333984375 152.340820312 427.000976562 178.673828125 427.000976562 208.006835938 c 0
EndSplineSet
Validated: 524289
EndChar

StartChar: percent
Encoding: 37 37 5
Width: 550
GlyphClass: 2
Flags: HMW
HStem: -28.0313 75.9731 170.999 74 432 75<143.001 151.334 143.001 154> 632 73
VStem: 16.001 71.919 196.063 70.301 283.931 71.992 402.999 88.8789 462.018 71.7321
LayerCount: 2
Fore
SplineSet
132 432 m 0xfe
 108.666992188 432 87.833984375 438.5 69.5009765625 451.5 c 0
 51.16796875 464.5 37.66796875 480.833007812 29.0009765625 500.5 c 0
 20.333984375 520.166992188 16.0009765625 541.333984375 16.0009765625 564.000976562 c 0
 16.0009765625 605.333984375 27.5009765625 639.166992188 50.5009765625 665.5 c 0
 73.5009765625 691.833007812 106.000976562 705 148.000976562 705 c 0
 164.66796875 705 180.16796875 702.166992188 194.500976562 696.5 c 0
 208.833984375 690.833007812 221.666992188 682.333007812 233 671 c 0
 244.333007812 659.666992188 253 644.166992188 259 624.5 c 0
 263.909179688 608.408203125 266.36328125 590.197265625 266.36328125 569.866210938 c 0
 266.36328125 565.348632812 266.2421875 560.7265625 266 556 c 0
 264 515.333007812 252.166992188 484.5 230.5 463.5 c 0
 208.833007812 442.5 176 432 132 432 c 0xfe
41 19 m 0
 55 47.6669921875 88.16796875 107.833984375 140.500976562 199.500976562 c 0
 192.833984375 291.16796875 245.166992188 383.66796875 297.5 477.000976562 c 0
 349.833007812 570.333984375 385 637.000976562 403 677.000976562 c 0
 411 689.000976562 421.5 696.500976562 434.5 699.500976562 c 0
 438.534179688 700.431640625 442.48828125 700.897460938 446.362304688 700.897460938 c 0
 454.970703125 700.897460938 463.18359375 698.598632812 470.999023438 694.000976562 c 0
 477.669921875 691.036132812 491.877929688 683.4609375 491.877929688 665.655273438 c 0xff
 491.877929688 656.331054688 487.918945312 645.446289062 480 633.001953125 c 0
 455.333007812 592.334960938 396.5 488.66796875 303.5 322.000976562 c 0
 210.5 155.333984375 149 42.6669921875 119 -16 c 0
 106.200195312 -39.630859375 91.7646484375 -51.4462890625 75.693359375 -51.4462890625 c 0
 70.0009765625 -51.4462890625 64.103515625 -49.9638671875 58.0009765625 -47 c 0
 41.0693359375 -38.95703125 32.603515625 -27.15234375 32.603515625 -11.5849609375 c 0
 32.603515625 -2.6337890625 35.40234375 7.5615234375 41 19 c 0
143.000976562 507 m 0
 159.66796875 507 172.166992188 512.333007812 180.5 523 c 0
 192.970703125 538.962890625 196.063476562 561.026367188 196.063476562 570.180664062 c 0
 196.063476562 590.727539062 191.375976562 606.000976562 182.000976562 616.000976562 c 0
 172.000976562 626.66796875 158.000976562 632.000976562 140.000976562 632.000976562 c 0
 124.000976562 632.000976562 111.66796875 626.16796875 103.000976562 614.500976562 c 0
 100.083007812 610.572265625 87.9208984375 592.4140625 87.9208984375 562.6015625 c 0
 87.9208984375 546.06640625 91.447265625 533.19921875 98.5009765625 524 c 0
 106.16796875 514 121.000976562 508.333007812 143.000976562 507 c 0
399 -28 m 0
 375.666992188 -28 355 -21.5 337 -8.5 c 0
 319 4.5 305.5 20.8330078125 296.5 40.5 c 0
 288.12109375 58.810546875 283.930664062 78.4208984375 283.930664062 99.3310546875 c 0
 283.930664062 122.313476562 285.106445312 167.287109375 318 205.5 c 0
 340.666992188 231.833007812 373 245 415 245 c 0
 431.666992188 245 447.166992188 242.333007812 461.5 237 c 0
 475.833007812 231.666992188 488.833007812 223.166992188 500.5 211.5 c 0
 512.166992188 199.833007812 521 184.166015625 527 164.499023438 c 0
 531.5 149.749023438 533.75 133.217773438 533.75 114.905273438 c 0xfe80
 533.75 108.80078125 533.5 102.499023438 533 95.9990234375 c 0
 531 55.33203125 519.166992188 24.33203125 497.5 2.9990234375 c 0
 476.490234375 -17.6875 444.98046875 -28.0302734375 402.970703125 -28.0302734375 c 0
 401.657226562 -28.0302734375 400.333984375 -28.0205078125 399 -28 c 0
410 48 m 0
 410.915039062 47.9619140625 411.81640625 47.9443359375 412.70703125 47.9443359375 c 0
 427.397460938 47.9443359375 438.828125 53.1298828125 447 63.5009765625 c 0
 448.374023438 65.2451171875 462.017578125 83.193359375 462.017578125 108.302734375 c 0
 462.017578125 150.1015625 444.01171875 171.000976562 408 171.000976562 c 0
 392.666992188 171.000976562 380.5 165.16796875 371.5 153.500976562 c 0
 368.3515625 149.418945312 355.922851562 131.494140625 355.922851562 102.913085938 c 0
 355.922851562 86.8427734375 359.615234375 74.0380859375 367 64.5 c 0
 375 54.1669921875 389.333007812 48.6669921875 410 48 c 0
EndSplineSet
Validated: 524289
EndChar

StartChar: ampersand
Encoding: 38 38 6
Width: 550
GlyphClass: 2
Flags: HMW
HStem: -41.998 93.998 -40.3768 21G 645.001 79
VStem: 16.0029 100.997 103.002 95.998 337 83.002
LayerCount: 2
Fore
SplineSet
500 -35 m 0xac
 494.133789062 -38.5849609375 487.91015625 -40.3779296875 481.327148438 -40.3779296875 c 0x6c
 474.443359375 -40.3779296875 467.16796875 -38.41796875 459.5 -34.4990234375 c 0
 444.5 -26.83203125 431.333007812 -13.6650390625 420 5.001953125 c 0
 418.666992188 8.3349609375 414.833984375 18.3349609375 408.500976562 35.001953125 c 0
 402.16796875 51.6689453125 397.334960938 63.6689453125 394.001953125 71.001953125 c 1
 392.001953125 68.3349609375 387.668945312 62.66796875 381.001953125 54.0009765625 c 0
 374.334960938 45.333984375 369.334960938 39.0009765625 366.001953125 35.0009765625 c 0
 362.668945312 31.0009765625 357.3359375 25.0009765625 350.002929688 17.0009765625 c 0
 342.669921875 9.0009765625 336.169921875 2.833984375 330.502929688 -1.4990234375 c 0
 324.8359375 -5.83203125 317.502929688 -10.9990234375 308.502929688 -16.9990234375 c 0
 299.502929688 -22.9990234375 290.8359375 -27.4990234375 282.502929688 -30.4990234375 c 0
 274.169921875 -33.4990234375 264.169921875 -36.166015625 252.502929688 -38.4990234375 c 0
 240.8359375 -40.83203125 229.002929688 -41.9990234375 217.002929688 -41.9990234375 c 0
 179.669921875 -41.9990234375 145.502929688 -32.33203125 114.502929688 -12.9990234375 c 0
 83.5029296875 6.333984375 59.3359375 31.6669921875 42.0029296875 63 c 0
 24.669921875 94.3330078125 16.0029296875 128.333007812 16.0029296875 165 c 0xb4
 16.0029296875 291 68.0029296875 376.666992188 172.002929688 422 c 1
 166.002929688 432 158.8359375 444 150.502929688 458 c 0
 142.169921875 472 136.002929688 481.833007812 132.002929688 487.5 c 0
 128.002929688 493.166992188 123.669921875 500.5 119.002929688 509.5 c 0
 114.3359375 518.5 111.168945312 526.333007812 109.501953125 533 c 0
 107.834960938 539.666992188 106.334960938 547.833984375 105.001953125 557.500976562 c 0
 103.668945312 567.16796875 103.001953125 577.66796875 103.001953125 589.000976562 c 0
 103.001953125 601.000976562 104.501953125 612.833984375 107.501953125 624.500976562 c 0
 110.501953125 636.16796875 116.168945312 648.16796875 124.501953125 660.500976562 c 0
 132.834960938 672.833984375 142.501953125 683.666992188 153.501953125 693 c 0
 164.501953125 702.333007812 179.501953125 709.833007812 198.501953125 715.5 c 0
 217.501953125 721.166992188 239.001953125 724 263.001953125 724 c 0
 282.334960938 724 301.334960938 721 320.001953125 715 c 0
 338.668945312 709 355.501953125 700.166992188 370.501953125 688.5 c 0
 385.501953125 676.833007812 397.501953125 661.5 406.501953125 642.5 c 0
 415.501953125 623.5 420.001953125 602.333007812 420.001953125 579 c 0
 420.001953125 557.666992188 417.334960938 537.833984375 412.001953125 519.500976562 c 0
 406.668945312 501.16796875 399.8359375 485.834960938 391.502929688 473.501953125 c 0
 383.169921875 461.168945312 372.669921875 449.3359375 360.002929688 438.002929688 c 0
 347.3359375 426.669921875 335.668945312 417.669921875 325.001953125 411.002929688 c 0
 314.334960938 404.3359375 302.001953125 397.668945312 288.001953125 391.001953125 c 1
 300.001953125 370.334960938 320.334960938 339.66796875 349.001953125 299.000976562 c 0
 377.668945312 258.333984375 396.001953125 231.333984375 404.001953125 218.000976562 c 1
 408.668945312 227.333984375 414.001953125 238.166992188 420.001953125 250.5 c 0
 426.001953125 262.833007812 430.501953125 272.833007812 433.501953125 280.5 c 0
 436.501953125 288.166992188 439.334960938 293.666992188 442.001953125 297 c 0
 454.001953125 314.333007812 465.501953125 325.166015625 476.501953125 329.499023438 c 0
 480.834960938 331.206054688 485.296875 332.059570312 489.888671875 332.059570312 c 0
 496.953125 332.059570312 504.32421875 330.0390625 512.001953125 325.998046875 c 0
 523.334960938 320.665039062 530.16796875 310.83203125 532.500976562 296.499023438 c 0
 532.99609375 293.458984375 533.243164062 290.336914062 533.243164062 287.131835938 c 0
 533.243164062 275.225585938 529.829101562 262.181640625 523 247.999023438 c 0
 519.666992188 241.999023438 509.666992188 228.666015625 493 207.999023438 c 0
 476.333007812 187.33203125 463 168.33203125 453 150.999023438 c 1
 460.333007812 138.33203125 470.5 120.165039062 483.5 96.498046875 c 0
 496.5 72.8310546875 504.333007812 58.998046875 507 54.998046875 c 0
 515.108398438 42.025390625 519.162109375 27.9560546875 519.162109375 12.7919921875 c 0
 519.162109375 9.25390625 518.94140625 5.65625 518.5 1.9990234375 c 0
 516.166992188 -17.333984375 510 -29.6669921875 500 -35 c 0xac
199.000976562 572 m 0
 199.000976562 555.333007812 203.333984375 537 212.000976562 517 c 0
 220.66796875 497 231.334960938 479.333007812 244.001953125 464 c 1
 258.668945312 468.666992188 271.168945312 473.5 281.501953125 478.5 c 0
 291.834960938 483.5 301.66796875 490 311.000976562 498 c 0
 320.333984375 506 327.000976562 515.833007812 331.000976562 527.5 c 0
 335.000976562 539.166992188 337.000976562 553 337.000976562 569 c 0
 337.000976562 593.666992188 329.500976562 612.5 314.500976562 625.5 c 0
 299.500976562 638.5 281.333984375 645 260.000976562 645 c 0
 219.333984375 645 199.000976562 620.666992188 199.000976562 572 c 0
117.000976562 174 m 0xb4
 117.000976562 139.333007812 126.33203125 110.33203125 144.999023438 86.9990234375 c 0
 163.666015625 63.666015625 187.999023438 51.9990234375 217.999023438 51.9990234375 c 0
 227.33203125 51.9990234375 236.499023438 52.9990234375 245.499023438 54.9990234375 c 0
 254.499023438 56.9990234375 262.166015625 58.9990234375 268.499023438 60.9990234375 c 0
 274.83203125 62.9990234375 281.499023438 66.33203125 288.499023438 70.9990234375 c 0
 295.499023438 75.666015625 300.999023438 79.4990234375 304.999023438 82.4990234375 c 0
 308.999023438 85.4990234375 313.83203125 90.166015625 319.499023438 96.4990234375 c 0
 325.166015625 102.83203125 328.833007812 107.33203125 330.5 109.999023438 c 0
 332.166992188 112.666015625 335.666992188 117.499023438 341 124.499023438 c 0
 346.333007812 131.499023438 349.333007812 135.666015625 350 136.999023438 c 0
 338 162.999023438 328 183.33203125 320 197.999023438 c 0
 312 213.33203125 295.833007812 238.33203125 271.5 272.999023438 c 0
 247.166992188 307.666015625 230 333.333007812 220 350 c 1
 200 341.333007812 182.833007812 330.5 168.5 317.5 c 0
 154.166992188 304.5 143.333984375 290.166992188 136.000976562 274.5 c 0
 128.66796875 258.833007812 123.66796875 243 121.000976562 227 c 0
 118.333984375 211 117.000976562 193.333007812 117.000976562 174 c 0xb4
EndSplineSet
Validated: 524289
EndChar

StartChar: quotesingle
Encoding: 39 39 7
Width: 550
GlyphClass: 2
Flags: HMW
HStem: 445.91 325.59
VStem: 222.002 106.332
LayerCount: 2
Fore
SplineSet
328 728 m 0
 328.22265625 719.106445312 328.333984375 708.600585938 328.333984375 696.482421875 c 0
 328.333984375 672.263671875 327.889648438 641.603515625 327.000976562 604.500976562 c 0
 325.66796875 548.833984375 323.334960938 509.333984375 320.001953125 486.000976562 c 0
 318.001953125 472.000976562 312.168945312 461.66796875 302.501953125 455.000976562 c 0
 293.713867188 448.940429688 284.512695312 445.91015625 274.8984375 445.91015625 c 0
 273.936523438 445.91015625 272.970703125 445.940429688 272.000976562 446.000976562 c 0
 258.66796875 446.66796875 246.834960938 451.000976562 236.501953125 459.000976562 c 0
 227.349609375 466.086914062 222.7734375 475.526367188 222.7734375 487.319335938 c 0
 222.7734375 490.916015625 225.251953125 520.942382812 225.251953125 578.998046875 c 0
 225.251953125 589.666015625 225.168945312 600.666992188 225.001953125 612.000976562 c 0
 224.334960938 657.333984375 223.334960938 697.666992188 222.001953125 733 c 0
 222.001953125 741 223.501953125 748 226.501953125 754 c 0
 229.501953125 760 234.168945312 764.166992188 240.501953125 766.5 c 0
 246.834960938 768.833007812 253.001953125 770.5 259.001953125 771.5 c 0
 265.001953125 772.5 271.001953125 772.666992188 277.001953125 772 c 0
 283.001953125 772 288.668945312 771.333007812 294.001953125 770 c 0
 299.334960938 768.666992188 304.66796875 766.5 310.000976562 763.5 c 0
 315.333984375 760.5 319.666992188 756 323 750 c 0
 326.333007812 744 328 736.666992188 328 728 c 0
EndSplineSet
Validated: 524289
EndChar

StartChar: parenleft
Encoding: 40 40 8
Width: 550
GlyphClass: 2
Flags: HMW
HStem: -130.998 83.998 733.002 81
VStem: 125.118 97.3819
LayerCount: 2
Fore
SplineSet
423 -93 m 0
 423 -103.666992188 418.66796875 -112.6640625 410.000976562 -119.997070312 c 0
 401.333984375 -127.330078125 392.333984375 -130.997070312 383.000976562 -130.997070312 c 0
 338.333984375 -130.997070312 297.833984375 -114.997070312 261.500976562 -82.9970703125 c 0
 225.16796875 -50.9970703125 195.500976562 -6.6640625 172.500976562 50.0029296875 c 0
 149.500976562 106.669921875 134.66796875 172.002929688 128.000976562 246.002929688 c 0
 126.079101562 266.04296875 125.118164062 288.569335938 125.118164062 313.58203125 c 0
 125.118164062 349.314453125 127.079101562 390.12109375 131.000976562 436.002929688 c 0
 137.66796875 514.002929688 150.66796875 578.3359375 170.000976562 629.002929688 c 0
 178.66796875 651.002929688 190.16796875 672.8359375 204.500976562 694.502929688 c 0
 218.833984375 716.169921875 235.166992188 736.002929688 253.5 754.002929688 c 0
 271.833007812 772.002929688 292.5 786.502929688 315.5 797.502929688 c 0
 338.5 808.502929688 361.333007812 814.002929688 384 814.002929688 c 0
 410.681640625 814.002929688 424.022460938 800.979492188 424.022460938 774.93359375 c 0
 424.022460938 767.493164062 423.876953125 751.90625 411.999023438 742.502929688 c 0
 403.999023438 736.169921875 393.999023438 733.002929688 381.999023438 733.002929688 c 0
 364.666015625 733.002929688 348.499023438 728.002929688 333.499023438 718.002929688 c 0
 318.499023438 708.002929688 305.33203125 694.3359375 293.999023438 677.002929688 c 0
 282.666015625 659.669921875 272.833007812 640.669921875 264.5 620.002929688 c 0
 256.166992188 599.3359375 249 577.002929688 243 553.002929688 c 0
 234.333007812 518.3359375 228.333007812 470.668945312 225 410.001953125 c 0
 223.333984375 379.66796875 222.500976562 352.16796875 222.500976562 327.500976562 c 0
 222.500976562 302.833984375 223.333984375 281.000976562 225 262.000976562 c 0
 228.333007812 221.333984375 235.5 181.833984375 246.5 143.500976562 c 0
 257.5 105.16796875 270.333007812 72.16796875 285 44.5009765625 c 0
 299.666992188 16.833984375 315.666992188 -5.3330078125 333 -22 c 0
 350.333007812 -38.6669921875 367 -47 383 -47 c 0
 396.333007812 -47 406.333007812 -50.3330078125 413 -57 c 0
 419.666992188 -63.6669921875 423 -75.6669921875 423 -93 c 0
EndSplineSet
Validated: 524289
EndChar

StartChar: parenright
Encoding: 41 41 9
Width: 550
GlyphClass: 2
Flags: HMW
HStem: -131.005 84 732.998 81.002
VStem: 325.634 99.2482
LayerCount: 2
Fore
SplineSet
422 246 m 0
 414.666992188 172 399.50390625 106.662109375 376.50390625 49.9951171875 c 0
 353.50390625 -6.671875 324.00390625 -51.0048828125 288.00390625 -83.0048828125 c 0
 252.00390625 -115.004882812 211.670898438 -131.004882812 167.00390625 -131.004882812 c 0
 157.670898438 -131.004882812 148.670898438 -127.337890625 140.00390625 -120.004882812 c 0
 131.336914062 -112.671875 127.00390625 -103.671875 127.00390625 -93.0048828125 c 0
 127.00390625 -75.671875 130.50390625 -63.671875 137.50390625 -57.0048828125 c 0
 144.50390625 -50.337890625 154.336914062 -47.0048828125 167.00390625 -47.0048828125 c 0
 182.336914062 -47.0048828125 198.50390625 -38.671875 215.50390625 -22.0048828125 c 0
 232.50390625 -5.337890625 248.336914062 16.8291015625 263.00390625 44.49609375 c 0
 277.670898438 72.1630859375 290.670898438 105.330078125 302.00390625 143.997070312 c 0
 313.336914062 182.6640625 320.336914062 221.997070312 323.00390625 261.997070312 c 0
 324.7578125 281.998046875 325.634765625 305.137695312 325.634765625 331.416992188 c 0
 325.634765625 355.067382812 324.923828125 381.260742188 323.502929688 409.997070312 c 0
 320.502929688 470.6640625 314.3359375 518.331054688 305.002929688 552.998046875 c 0
 299.669921875 576.998046875 293.002929688 599.331054688 285.002929688 619.998046875 c 0
 277.002929688 640.665039062 267.169921875 659.665039062 255.502929688 676.998046875 c 0
 243.8359375 694.331054688 230.668945312 707.998046875 216.001953125 717.998046875 c 0
 201.334960938 727.998046875 185.66796875 732.998046875 169.000976562 732.998046875 c 0
 156.333984375 732.998046875 146.000976562 736.165039062 138.000976562 742.498046875 c 0
 130.000976562 748.831054688 126.000976562 758.998046875 126.000976562 772.998046875 c 0
 126.000976562 781.665039062 127.000976562 788.83203125 129.000976562 794.499023438 c 0
 131.000976562 800.166015625 134.500976562 804.333007812 139.500976562 807 c 0
 144.500976562 809.666992188 148.833984375 811.5 152.500976562 812.5 c 0
 156.16796875 813.5 160.66796875 814 166.000976562 814 c 0
 188.66796875 814 211.500976562 808.5 234.500976562 797.5 c 0
 257.500976562 786.5 278.000976562 772 296.000976562 754 c 0
 314.000976562 736 330.16796875 716.166992188 344.500976562 694.5 c 0
 358.833984375 672.833007812 370.666992188 651 380 629 c 0
 399.333007812 578.333007812 412.333007812 514 419 436 c 0
 422.921875 390.118164062 424.8828125 349.311523438 424.8828125 313.579101562 c 0
 424.8828125 288.56640625 423.921875 266.040039062 422 246 c 0
EndSplineSet
Validated: 524289
EndChar

StartChar: asterisk
Encoding: 42 42 10
Width: 550
GlyphClass: 2
Flags: HMW
HStem: 292.998 103.999 306.499 76.5001
LayerCount: 2
Fore
SplineSet
222 139 m 0x40
 219.333007812 131 214.830078125 124.999023438 208.497070312 120.999023438 c 0
 202.1640625 116.999023438 195.1640625 114.666015625 187.497070312 113.999023438 c 0
 179.830078125 113.33203125 172.497070312 113.83203125 165.497070312 115.499023438 c 0
 158.497070312 117.166015625 152.330078125 119.333007812 146.997070312 122 c 0
 140.997070312 125.333007812 135.997070312 130.166015625 131.997070312 136.499023438 c 0
 127.997070312 142.83203125 125.330078125 150.665039062 123.997070312 159.998046875 c 0
 122.6640625 169.331054688 124.6640625 178.998046875 129.997070312 188.998046875 c 2
 196.997070312 297.998046875 l 1
 142.330078125 294.665039062 101.997070312 292.998046875 75.9970703125 292.998046875 c 0
 59.9970703125 292.998046875 47.330078125 298.331054688 37.9970703125 308.998046875 c 0
 28.6640625 319.665039062 23.9970703125 330.998046875 23.9970703125 342.998046875 c 0
 23.9970703125 348.998046875 24.830078125 355.165039062 26.4970703125 361.498046875 c 0
 28.1640625 367.831054688 30.6640625 373.831054688 33.9970703125 379.498046875 c 0
 37.330078125 385.165039062 42.4970703125 389.665039062 49.4970703125 392.998046875 c 0
 56.4970703125 396.331054688 64.330078125 397.6640625 72.9970703125 396.997070312 c 0x80
 103.6640625 394.330078125 148.997070312 390.997070312 208.997070312 386.997070312 c 1
 180.330078125 435.6640625 156.663085938 472.997070312 137.99609375 498.997070312 c 0
 130.077148438 512.006835938 126.118164062 524.776367188 126.118164062 537.306640625 c 0
 126.118164062 539.544921875 126.244140625 541.775390625 126.497070312 543.998046875 c 0
 128.1640625 558.665039062 134.331054688 568.33203125 144.998046875 572.999023438 c 0
 150.998046875 576.999023438 158.498046875 579.166015625 167.498046875 579.499023438 c 0
 176.498046875 579.83203125 185.665039062 577.33203125 194.998046875 571.999023438 c 0
 204.331054688 566.666015625 211.6640625 558.666015625 216.997070312 547.999023438 c 0
 224.330078125 531.999023438 243.997070312 493.666015625 275.997070312 432.999023438 c 1
 302.6640625 478.33203125 322.6640625 516.33203125 335.997070312 546.999023438 c 0
 340.6640625 557.666015625 347.497070312 565.666015625 356.497070312 570.999023438 c 0
 365.497070312 576.33203125 374.1640625 578.83203125 382.497070312 578.499023438 c 0
 390.830078125 578.166015625 397.997070312 575.666015625 403.997070312 570.999023438 c 0
 410.6640625 567.666015625 416.1640625 562.333007812 420.497070312 555 c 0
 424.830078125 547.666992188 426.997070312 539 426.997070312 529 c 0
 426.997070312 519 423.6640625 509.333007812 416.997070312 500 c 0
 395.6640625 468.666992188 372.331054688 429.666992188 346.998046875 383 c 1
 404.998046875 383 446.331054688 386.666992188 470.998046875 394 c 0
 475.665039062 395.485351562 480.12890625 396.227539062 484.390625 396.227539062 c 0
 493.5234375 396.227539062 501.7265625 392.818359375 508.999023438 386 c 0
 519.666015625 376 525.333007812 365.333007812 526 354 c 0
 526 348 525.333007812 342 524 336 c 0
 522.666992188 330 520.333984375 324 517.000976562 318 c 0
 513.66796875 312 509.000976562 307.333007812 503.000976562 304 c 0
 497.000976562 300.666992188 489.66796875 300 481.000976562 302 c 0
 464 305 434.811523438 306.5 393.435546875 306.5 c 0
 379.64453125 306.5 364.499023438 306.333007812 348 306 c 1
 415 190 l 2
 420.974609375 177.506835938 423.961914062 166.23046875 423.961914062 156.170898438 c 0
 423.961914062 153.883789062 423.807617188 151.66015625 423.499023438 149.499023438 c 0
 421.83203125 137.83203125 416.999023438 129.33203125 408.999023438 123.999023438 c 0
 402.33203125 119.999023438 393.83203125 117.666015625 383.499023438 116.999023438 c 0
 382.20703125 116.916015625 380.915039062 116.874023438 379.623046875 116.874023438 c 2
 352.5 122.999023438 l 2
 342.166992188 127.666015625 335.666992188 135.333007812 333 146 c 0
 324.333007812 172.666992188 306.666015625 211 279.999023438 261 c 1
 248.666015625 199.666992188 229.333007812 159 222 139 c 0x40
EndSplineSet
Validated: 524289
EndChar

StartChar: plus
Encoding: 43 43 11
Width: 550
GlyphClass: 2
Flags: HMW
HStem: 359.8 79.1992
VStem: 233.003 80.9971
LayerCount: 2
Fore
SplineSet
314 250 m 0
 314 234.666992188 310.670898438 223.833007812 304.00390625 217.5 c 0
 297.336914062 211.166992188 288.00390625 208 276.00390625 208 c 0
 247.336914062 208 233.00390625 222 233.00390625 250 c 2
 233.00390625 357 l 1
 219.670898438 357 201.670898438 356.833007812 179.00390625 356.5 c 0
 156.336914062 356.166992188 140.669921875 356 132.002929688 356 c 0
 115.3359375 356 103.002929688 360.166992188 95.0029296875 368.5 c 0
 83.3623046875 380.625 82.92578125 393.616210938 82.92578125 401.888671875 c 0
 82.92578125 413.296875 86.6181640625 423.000976562 94.0029296875 431.000976562 c 0
 101.431640625 439.048828125 112.595703125 443.072265625 127.49609375 443.072265625 c 0
 128.642578125 443.072265625 129.811523438 443.048828125 131.002929688 443.000976562 c 0
 177.669921875 441.66796875 211.669921875 441.000976562 233.002929688 441.000976562 c 1
 233.002929688 499.8203125 230.91796875 548.575195312 230.91796875 552.581054688 c 0
 230.91796875 578.860351562 245.279296875 592 274.002929688 592 c 0
 275.336914062 592.06640625 276.645507812 592.099609375 277.928710938 592.099609375 c 0
 289.477539062 592.099609375 299.001953125 589.399414062 306.500976562 584 c 0
 313.684570312 578.827148438 317.276367188 569.69140625 317.276367188 556.590820312 c 0
 317.276367188 554.495117188 317.184570312 552.297851562 317.000976562 549.999023438 c 0
 315.000976562 511.33203125 314.000976562 474.33203125 314.000976562 438.999023438 c 1
 424.000976562 438.999023438 l 2
 439.333984375 438.999023438 450.166992188 435.666015625 456.5 428.999023438 c 0
 462.833007812 422.33203125 466.333007812 413.33203125 467 401.999023438 c 0
 467 395.999023438 466.333007812 390.499023438 465 385.499023438 c 0
 463.666992188 380.499023438 461.666992188 375.666015625 459 370.999023438 c 0
 456.333007812 366.33203125 452 362.83203125 446 360.499023438 c 0
 440 358.166015625 432.666992188 357.333007812 424 358 c 0
 413.600585938 359.200195312 396.12109375 359.799804688 371.561523438 359.799804688 c 0
 355.1875 359.799804688 335.666992188 359.533203125 313 359 c 1
 313 341 313.166992188 319.666992188 313.5 295 c 0
 313.833007812 270.333007812 314 255.333007812 314 250 c 0
EndSplineSet
Validated: 524289
EndChar

StartChar: comma
Encoding: 44 44 12
Width: 550
GlyphClass: 2
Flags: HMW
VStem: 172.499 204.501
LayerCount: 2
Fore
SplineSet
377 96 m 0
 370.333007812 63.3330078125 356 12.9990234375 334 -55.0009765625 c 0
 312 -123.000976562 295 -165.000976562 283 -181.000976562 c 0
 272.333007812 -195.000976562 258.833007812 -205.000976562 242.5 -211.000976562 c 0
 232.700195312 -214.600585938 223.80078125 -216.400390625 215.80078125 -216.400390625 c 0
 210.467773438 -216.400390625 205.534179688 -215.600585938 201.000976562 -214.000976562 c 0
 194.333984375 -212.000976562 188.166992188 -208.000976562 182.5 -202.000976562 c 0
 176.833007812 -196.000976562 173.5 -188.66796875 172.5 -180.000976562 c 0
 171.5 -171.333984375 174 -162.333984375 180 -153.000976562 c 0
 194 -133.000976562 213.333007812 -89.0009765625 238 -21.0009765625 c 0
 262.666992188 46.9990234375 277.666992188 94.33203125 283 120.999023438 c 0
 285 130.33203125 289.666992188 137.665039062 297 142.998046875 c 0
 304.333007812 148.331054688 312 150.998046875 320 150.998046875 c 0
 328 150.998046875 336 150.331054688 344 148.998046875 c 0
 354.666992188 145.665039062 363.333984375 139.33203125 370.000976562 129.999023438 c 0
 375.12890625 122.8203125 377.692382812 114.458007812 377.692382812 104.912109375 c 0
 377.692382812 102.047851562 377.461914062 99.0771484375 377 96 c 0
EndSplineSet
Validated: 524289
EndChar

StartChar: hyphen
Encoding: 45 45 13
Width: 550
GlyphClass: 2
Flags: HMW
HStem: 243 87<149.667 175.333> 251 82<383.001 393.667 383.001 400.333>
VStem: 120.809 308.191
LayerCount: 2
Fore
SplineSet
162 330 m 0xa0
 200 330 245.333984375 330.5 298.000976562 331.5 c 0
 350.66796875 332.5 380.000976562 333 386.000976562 333 c 0
 401.333984375 333 412.166992188 329.5 418.5 322.5 c 0
 424.833007812 315.5 428.333007812 306.333007812 429 295 c 0
 429 265.666992188 414.666992188 251 386 251 c 0x60
 377.333007812 251 343.833007812 249.666992188 285.5 247 c 0
 227.166992188 244.333007812 186.666992188 243 164 243 c 0
 135.333007812 243 121 257.333007812 121 286 c 0
 120.872070312 287.872070312 120.80859375 289.684570312 120.80859375 291.4375 c 0
 120.80859375 317.145507812 134.5390625 330 162 330 c 0xa0
EndSplineSet
Validated: 524289
EndChar

StartChar: period
Encoding: 46 46 14
Width: 550
GlyphClass: 2
Flags: HMW
HStem: -14.5617 154.604
VStem: 192.999 164.001
LayerCount: 2
Fore
SplineSet
277 -14 m 0
 273.536132812 -14.3740234375 270.161132812 -14.5615234375 266.875 -14.5615234375 c 0
 246.7578125 -14.5615234375 229.965820312 -7.5439453125 216.499023438 6.49609375 c 0
 200.83203125 22.8291015625 192.999023438 41.99609375 192.999023438 63.99609375 c 0
 192.999023438 84.6630859375 201.83203125 102.330078125 219.499023438 116.997070312 c 0
 237.166015625 131.6640625 256.333007812 139.331054688 277 139.998046875 c 0
 278.037109375 140.02734375 279.06640625 140.041992188 280.087890625 140.041992188 c 0
 302.029296875 140.041992188 320.166992188 133.194335938 334.5 119.499023438 c 0
 349.5 105.166015625 357 86.9990234375 357 64.9990234375 c 0
 357 43.666015625 349.666992188 25.8330078125 335 11.5 c 0
 320.333007812 -2.8330078125 301 -11.3330078125 277 -14 c 0
EndSplineSet
Validated: 524289
EndChar

StartChar: slash
Encoding: 47 47 15
Width: 550
GlyphClass: 2
Flags: W
LayerCount: 2
Fore
SplineSet
516 676 m 0
 498.666992188 642 450 558.49609375 370 425.49609375 c 0
 290 292.49609375 241.333007812 209.99609375 224 177.99609375 c 0
 213.333007812 157.329101562 196 122.329101562 172 72.99609375 c 0
 148 23.6630859375 133 -6.3369140625 127 -17.00390625 c 0
 116.333007812 -35.6708984375 102.833007812 -48.6708984375 86.5 -56.00390625 c 0
 78.3330078125 -59.669921875 70.7080078125 -61.5029296875 63.625 -61.5029296875 c 0
 56.5419921875 -61.5029296875 50 -59.669921875 44 -56.0029296875 c 0
 34 -50.669921875 28 -38.3369140625 26 -19.00390625 c 0
 25.6474609375 -15.5927734375 25.470703125 -12.2333984375 25.470703125 -8.92578125 c 0
 25.470703125 6.51171875 29.314453125 20.8193359375 37.0009765625 33.99609375 c 0
 134.333984375 193.99609375 217.666992188 336.329101562 287 460.99609375 c 0
 330.333007812 537.663085938 376.333007812 624.330078125 425 720.997070312 c 0
 430.333007812 731.6640625 437.666015625 739.831054688 446.999023438 745.498046875 c 0
 456.33203125 751.165039062 465.33203125 753.83203125 473.999023438 753.499023438 c 0
 482.666015625 753.166015625 491.333007812 751.333007812 500 748 c 0
 512 742 519.666992188 732.666992188 523 720 c 0
 523.98046875 716.274414062 524.470703125 712.375976562 524.470703125 708.3046875 c 0
 524.470703125 698.533203125 521.647460938 687.764648438 516 676 c 0
EndSplineSet
Validated: 524289
EndChar

StartChar: zero
Encoding: 48 48 16
Width: 550
GlyphClass: 2
Flags: HMW
HStem: -24 83.999 636.999 81.001
VStem: 39.002 95.502 414.006 96.8403
LayerCount: 2
Fore
SplineSet
253 -24 m 0
 221.666992188 -24 192.8359375 -18.33203125 166.502929688 -6.9990234375 c 0
 140.169921875 4.333984375 117.669921875 20.0009765625 99.0029296875 40.0009765625 c 0
 80.3359375 60.0009765625 65.6689453125 85.0009765625 55.001953125 115.000976562 c 0
 44.962890625 143.235351562 39.943359375 174.126953125 39.943359375 207.67578125 c 0
 39.943359375 209.7734375 39.962890625 211.881835938 40.001953125 214 c 0
 40.001953125 220.666992188 39.8349609375 237.166992188 39.501953125 263.5 c 0
 39.1689453125 289.833007812 39.001953125 310.833007812 39.001953125 326.5 c 0
 39.001953125 342.166992188 39.501953125 363.833984375 40.501953125 391.500976562 c 0
 41.501953125 419.16796875 43.3349609375 443.000976562 46.001953125 463.000976562 c 0
 48.6689453125 483.000976562 52.1689453125 504.500976562 56.501953125 527.500976562 c 0
 60.8349609375 550.500976562 66.66796875 570.66796875 74.0009765625 588.000976562 c 0
 90.0009765625 630.000976562 117.000976562 662.16796875 155.000976562 684.500976562 c 0
 193.000976562 706.833984375 239.333984375 718.000976562 294.000976562 718.000976562 c 0
 321.333984375 718.000976562 347.000976562 713.333984375 371.000976562 704.000976562 c 0
 395.000976562 694.66796875 416.333984375 681.000976562 435.000976562 663.000976562 c 0
 453.66796875 645.000976562 469.16796875 621.66796875 481.500976562 593.000976562 c 0
 493.833984375 564.333984375 501.666992188 531.333984375 505 494.000976562 c 0
 507.666992188 460.66796875 509.5 422.834960938 510.5 380.501953125 c 0
 510.73046875 370.733398438 510.845703125 360.947265625 510.845703125 351.143554688 c 0
 510.845703125 318.459960938 509.563476562 285.579101562 507 252.500976562 c 0
 503.666992188 209.500976562 499 176.66796875 493 154.000976562 c 0
 487 131.333984375 480.333007812 111.333984375 473 94.0009765625 c 0
 465.666992188 76.66796875 457.833984375 61.66796875 449.500976562 49.0009765625 c 0
 441.16796875 36.333984375 431.834960938 25.6669921875 421.501953125 17 c 0
 411.168945312 8.3330078125 400.168945312 1.3330078125 388.501953125 -4 c 0
 376.834960938 -9.3330078125 363.66796875 -13.5 349.000976562 -16.5 c 0
 334.333984375 -19.5 319.666992188 -21.5 305 -22.5 c 0
 290.333007812 -23.5 273 -24 253 -24 c 0
138.001953125 230.000976562 m 0
 138.001953125 227.333984375 138.172851562 223.333984375 138.505859375 218.000976562 c 0
 138.838867188 212.66796875 139.005859375 209.000976562 139.005859375 207.000976562 c 1
 228.338867188 329.000976562 308.671875 454.333984375 380.004882812 583.000976562 c 1
 368.004882812 600.333984375 353.337890625 613.666992188 336.004882812 623 c 0
 318.671875 632.333007812 300.004882812 637 280.004882812 637 c 0
 242.671875 637 213.504882812 626.666992188 192.504882812 606 c 0
 171.504882812 585.333007812 155.671875 552 145.004882812 506 c 0
 141.004882812 489.333007812 138.171875 469.833007812 136.504882812 447.5 c 0
 135.115234375 428.885742188 134.420898438 407.029296875 134.420898438 381.930664062 c 0
 134.420898438 376.916992188 134.448242188 371.7734375 134.50390625 366.500976562 c 0
 134.836914062 334.833984375 135.169921875 312.500976562 135.502929688 299.500976562 c 0
 135.8359375 286.500976562 136.668945312 263.333984375 138.001953125 230.000976562 c 0
399.005859375 168.000976562 m 0
 401.672851562 176.000976562 404.505859375 198 407.505859375 234 c 0
 410.505859375 270 412.672851562 311.166992188 414.005859375 357.5 c 0
 414.38671875 370.736328125 414.577148438 383.823242188 414.577148438 396.760742188 c 0
 414.577148438 429.109375 413.38671875 460.522460938 411.005859375 491 c 1
 339.672851562 344.333007812 255.672851562 221.333007812 159.005859375 122 c 1
 177.005859375 80.6669921875 208.338867188 60 253.005859375 60 c 0
 271.005859375 60 287.172851562 61.5 301.505859375 64.5 c 0
 315.838867188 67.5 329.505859375 72.8330078125 342.505859375 80.5 c 0
 355.505859375 88.1669921875 366.505859375 99.333984375 375.505859375 114.000976562 c 0
 384.505859375 128.66796875 392.338867188 146.66796875 399.005859375 168.000976562 c 0
EndSplineSet
Validated: 524289
EndChar

StartChar: one
Encoding: 49 49 17
Width: 550
GlyphClass: 2
Flags: HMW
HStem: -9 85.5 -5 89<68.002 91.002 68.002 91.002> 511.539 21G
VStem: 227.335 96.6644 237.001 91.498
LayerCount: 2
Fore
SplineSet
518.080078125 34.8388671875 m 0xb0
 518.080078125 22.892578125 514.5546875 12.779296875 507.501953125 4.5 c 0
 499.834960938 -4.5 486.334960938 -9 467.001953125 -9 c 0xb0
 458.334960938 -9 398.834960938 -8.3330078125 288.501953125 -7 c 0
 178.168945312 -5.6669921875 107.001953125 -5 75.001953125 -5 c 0
 60.3349609375 -5 49.501953125 -1 42.501953125 7 c 0
 35.501953125 15 32.001953125 25.3330078125 32.001953125 38 c 0
 31.9443359375 39.16015625 31.9150390625 40.302734375 31.9150390625 41.4267578125 c 0
 31.9150390625 53.2294921875 35.111328125 63.0869140625 41.501953125 71 c 0
 48.501953125 79.6669921875 60.001953125 84 76.001953125 84 c 0
 106.001953125 84 157.001953125 83.6669921875 229.001953125 83 c 1
 229.001953125 109.666992188 228.668945312 131 228.001953125 147 c 0
 227.556640625 150.556640625 227.333984375 159.600585938 227.333984375 174.131835938 c 0x70
 227.333984375 181.38671875 227.389648438 190.009765625 227.500976562 200 c 0
 227.833984375 230 228.000976562 251.666992188 228.000976562 265 c 0
 228.000976562 278.333007812 228.66796875 303 230.000976562 339 c 0
 231.333984375 375 232.333984375 401.833007812 233.000976562 419.5 c 0
 233.66796875 437.166992188 235.000976562 465.166992188 237.000976562 503.5 c 0
 239.000976562 541.833007812 240.333984375 570 241.000976562 588 c 1
 191.66796875 546.666992188 155.66796875 522 133.000976562 514 c 0
 128.8984375 512.359375 124.780273438 511.5390625 120.646484375 511.5390625 c 0
 111.344726562 511.5390625 101.962890625 515.692382812 92.5009765625 524 c 0
 79.4697265625 535.44140625 72.9541015625 546.8828125 72.9541015625 558.32421875 c 0
 72.9541015625 558.8828125 72.9697265625 559.44140625 73.0009765625 560 c 0
 73.0009765625 570.666992188 75.333984375 580.166992188 80.0009765625 588.5 c 0
 84.66796875 596.833007812 93.0009765625 605.333007812 105.000976562 614 c 0
 124.333984375 628.666992188 144.666992188 644.833984375 166 662.500976562 c 0
 187.333007812 680.16796875 202.666015625 693.000976562 211.999023438 701.000976562 c 0
 221.33203125 709.000976562 230.999023438 715.833984375 240.999023438 721.500976562 c 0
 250.999023438 727.16796875 259.666015625 730.000976562 266.999023438 730.000976562 c 0
 280.999023438 730.000976562 295.666015625 724.000976562 310.999023438 712.000976562 c 0
 326.33203125 700.000976562 333.999023438 690.000976562 333.999023438 682.000976562 c 0
 333.999023438 666.66796875 332.166015625 612.16796875 328.499023438 518.500976562 c 0x68
 324.83203125 424.833984375 322.999023438 370.000976562 322.999023438 354.000976562 c 0
 322.999023438 287.333984375 323.33203125 231.666992188 323.999023438 187 c 0
 323.999023438 162.333007812 324.666015625 126.333007812 325.999023438 79 c 1
 345.33203125 79 365.665039062 78.6669921875 386.998046875 78 c 0
 408.331054688 77.3330078125 425.831054688 76.8330078125 439.498046875 76.5 c 0
 453.165039062 76.1669921875 462.998046875 76 468.998046875 76 c 0
 487.665039062 76 500.33203125 72.5 506.999023438 65.5 c 0
 512.423828125 59.8046875 518.080078125 50.1865234375 518.080078125 34.8388671875 c 0xb0
EndSplineSet
Validated: 524289
EndChar

StartChar: two
Encoding: 50 50 18
Width: 550
GlyphClass: 2
Flags: HMW
HStem: -18.0049 84.0049 -14.0059 91.0059 637.997 83.999
VStem: 42.002 99.9971 395.001 98.9971
LayerCount: 2
Fore
SplineSet
475 -12 m 0x78
 447 -12 412.169921875 -12.6728515625 370.502929688 -14.005859375 c 0x78
 328.8359375 -15.3388671875 292.002929688 -16.671875 260.002929688 -18.0048828125 c 0
 228.002929688 -19.337890625 195.169921875 -20.0048828125 161.502929688 -20.0048828125 c 0
 127.8359375 -20.0048828125 101.668945312 -18.671875 83.001953125 -16.0048828125 c 0
 68.3349609375 -14.671875 57.8349609375 -5.671875 51.501953125 10.9951171875 c 0
 45.1689453125 27.662109375 42.001953125 51.662109375 42.001953125 82.9951171875 c 0
 42.001953125 111.662109375 48.1689453125 141.829101562 60.501953125 173.49609375 c 0
 72.8349609375 205.163085938 91.001953125 235.49609375 115.001953125 264.49609375 c 0
 139.001953125 293.49609375 167.001953125 316.99609375 199.001953125 334.99609375 c 0
 270.334960938 374.99609375 316.334960938 402.99609375 337.001953125 418.99609375 c 0
 364.334960938 440.329101562 381.66796875 462.99609375 389.000976562 486.99609375 c 0
 393.000976562 500.99609375 395.000976562 518.329101562 395.000976562 538.99609375 c 0
 395.000976562 573.663085938 384.833984375 598.830078125 364.500976562 614.497070312 c 0
 344.16796875 630.1640625 315.334960938 637.997070312 278.001953125 637.997070312 c 0
 252.001953125 637.997070312 227.168945312 629.997070312 203.501953125 613.997070312 c 0
 179.834960938 597.997070312 161.66796875 580.330078125 149.000976562 560.997070312 c 0
 143.000976562 552.330078125 137.333984375 545.497070312 132.000976562 540.497070312 c 0
 126.66796875 535.497070312 121.000976562 532.6640625 115.000976562 531.997070312 c 0
 109.000976562 531.330078125 103.66796875 531.663085938 99.0009765625 532.99609375 c 0
 94.333984375 534.329101562 88.0009765625 536.662109375 80.0009765625 539.995117188 c 0
 68.66796875 545.995117188 61.66796875 554.662109375 59.0009765625 565.995117188 c 0
 58.333984375 568.828125 58.0009765625 571.870117188 58.0009765625 575.120117188 c 0
 58.0009765625 584.870117188 61.0009765625 596.495117188 67.0009765625 609.995117188 c 0
 73.66796875 622.662109375 83.66796875 635.329101562 97.0009765625 647.99609375 c 0
 110.333984375 660.663085938 125.666992188 672.663085938 143 683.99609375 c 0
 160.333007812 695.329101562 180.666015625 704.49609375 203.999023438 711.49609375 c 0
 227.33203125 718.49609375 250.665039062 721.99609375 273.998046875 721.99609375 c 0
 345.998046875 721.99609375 400.665039062 705.329101562 437.998046875 671.99609375 c 0
 475.331054688 638.663085938 493.998046875 588.663085938 493.998046875 521.99609375 c 0
 493.998046875 466.663085938 479.998046875 422.330078125 451.998046875 388.997070312 c 0
 431.331054688 364.330078125 393.998046875 336.997070312 339.998046875 306.997070312 c 0
 326.665039062 298.997070312 303.665039062 286.6640625 270.998046875 269.997070312 c 0
 242.331054688 254.6640625 218.331054688 235.831054688 198.998046875 213.498046875 c 0
 179.665039062 191.165039062 165.83203125 168.33203125 157.499023438 144.999023438 c 0
 149.166015625 121.666015625 143.999023438 96.3330078125 141.999023438 69 c 1
 179.33203125 67 215.33203125 66 249.999023438 66 c 0xb8
 284.666015625 66 311.666015625 66.5 330.999023438 67.5 c 0
 350.33203125 68.5 372.665039062 70 397.998046875 72 c 0
 423.331054688 74 439.998046875 75.3330078125 447.998046875 76 c 0
 448.665039062 76 451.83203125 76.1669921875 457.499023438 76.5 c 0
 463.166015625 76.8330078125 466.999023438 77 468.999023438 77 c 2
 478.999023438 77 l 2
 483.666015625 77 487.166015625 76.3330078125 489.499023438 75 c 0
 491.83203125 73.6669921875 494.499023438 72 497.499023438 70 c 0
 500.499023438 68 502.83203125 65.3330078125 504.499023438 62 c 0
 506.166015625 58.6669921875 507.333007812 54.6669921875 508 50 c 0
 508.666992188 42 508.333984375 33.5 507.000976562 24.5 c 0
 505.66796875 15.5 502.16796875 7.1669921875 496.500976562 -0.5 c 0
 490.833984375 -8.1669921875 483.666992188 -12 475 -12 c 0x78
EndSplineSet
Validated: 524289
EndChar

StartChar: three
Encoding: 51 51 19
Width: 550
GlyphClass: 2
Flags: HMW
HStem: -23.9941 84 318.006 100 638.006 83.998
VStem: 382.02 99.0491 404.002 99.998
LayerCount: 2
Fore
SplineSet
504 199 m 0xe8
 504 130.333007812 482.830078125 76.0078125 440.497070312 36.0078125 c 0
 398.1640625 -3.9921875 338.6640625 -23.9921875 261.997070312 -23.9921875 c 0
 238.6640625 -23.9921875 215.331054688 -20.4921875 191.998046875 -13.4921875 c 0
 168.665039062 -6.4921875 148.498046875 2.5078125 131.498046875 13.5078125 c 0
 114.498046875 24.5078125 99.3310546875 36.5078125 85.998046875 49.5078125 c 0
 72.6650390625 62.5078125 62.33203125 75.3408203125 54.9990234375 88.0078125 c 0
 48.9990234375 99.5078125 45.9990234375 110.2578125 45.9990234375 120.2578125 c 0
 45.9990234375 123.590820312 46.33203125 126.840820312 46.9990234375 130.0078125 c 0
 49.666015625 142.674804688 56.9990234375 151.674804688 68.9990234375 157.0078125 c 0
 78.1943359375 161.60546875 86.755859375 163.904296875 94.6826171875 163.904296875 c 0
 98.25 163.904296875 101.689453125 163.438476562 105 162.5078125 c 0
 115.666992188 159.5078125 126.333984375 151.0078125 137.000976562 137.0078125 c 0
 151.66796875 117.0078125 170.334960938 99.1748046875 193.001953125 83.5078125 c 0
 215.668945312 67.8408203125 240.001953125 60.0078125 266.001953125 60.0078125 c 0
 306.001953125 60.0078125 339.001953125 71.3408203125 365.001953125 94.0078125 c 0
 391.001953125 116.674804688 404.001953125 146.0078125 404.001953125 182.0078125 c 0xe8
 404.001953125 204.0078125 400.668945312 223.0078125 394.001953125 239.0078125 c 0
 387.334960938 255.0078125 376.66796875 269.0078125 362.000976562 281.0078125 c 0
 347.333984375 293.0078125 327.166992188 302.174804688 301.5 308.5078125 c 0
 275.833007812 314.840820312 246 318.0078125 212 318.0078125 c 0
 198 318.0078125 185.833007812 323.5078125 175.5 334.5078125 c 0
 165.166992188 345.5078125 160 357.674804688 160 371.0078125 c 0
 160 385.0078125 163.666992188 396.340820312 171 405.0078125 c 0
 178.333007812 413.674804688 189 418.0078125 203 418.0078125 c 0
 259 418.0078125 303 429.174804688 335 451.5078125 c 0
 366.346679688 473.384765625 382.020507812 505.017578125 382.020507812 546.407226562 c 0
 382.020507812 547.26953125 382.013671875 548.13671875 382 549.0078125 c 0
 382.01953125 549.903320312 382.029296875 550.791992188 382.029296875 551.673828125 c 0
 382.029296875 580.333984375 371.51953125 601.778320312 350.5 616.006835938 c 0
 328.833007812 630.673828125 297.666015625 638.006835938 256.999023438 638.006835938 c 0
 248.999023438 638.006835938 241.166015625 637.173828125 233.499023438 635.506835938 c 0
 225.83203125 633.83984375 219.665039062 632.172851562 214.998046875 630.505859375 c 0
 210.331054688 628.838867188 205.331054688 626.005859375 199.998046875 622.005859375 c 0
 194.665039062 618.005859375 190.165039062 614.672851562 186.498046875 612.005859375 c 0
 182.831054688 609.338867188 178.831054688 605.005859375 174.498046875 599.005859375 c 0
 170.165039062 593.005859375 166.83203125 588.838867188 164.499023438 586.505859375 c 0
 162.166015625 584.172851562 158.999023438 579.33984375 154.999023438 572.006835938 c 0
 144.33203125 557.33984375 133.499023438 548.672851562 122.499023438 546.005859375 c 0
 119.356445312 545.244140625 116.118164062 544.86328125 112.784179688 544.86328125 c 0
 104.451171875 544.86328125 95.5224609375 547.244140625 85.9990234375 552.005859375 c 0
 74.666015625 557.338867188 67.8330078125 566.171875 65.5 578.504882812 c 0
 64.8955078125 581.702148438 64.5927734375 585.044921875 64.5927734375 588.533203125 c 0
 64.5927734375 598.500976562 67.0625 609.658203125 72.0009765625 622.004882812 c 0
 78.66796875 635.337890625 87.3349609375 647.504882812 98.001953125 658.504882812 c 0
 108.668945312 669.504882812 121.001953125 680.004882812 135.001953125 690.004882812 c 0
 149.001953125 700.004882812 166.168945312 707.837890625 186.501953125 713.504882812 c 0
 206.834960938 719.171875 228.66796875 722.004882812 252.000976562 722.004882812 c 0
 328.66796875 722.004882812 386.334960938 706.004882812 425.001953125 674.004882812 c 0
 462.379882812 643.071289062 481.069335938 597.809570312 481.069335938 538.21875 c 0xf0
 481.069335938 536.1640625 481.046875 534.092773438 481.002929688 532.00390625 c 0
 481.002929688 512.670898438 478.502929688 495.170898438 473.502929688 479.50390625 c 0
 468.502929688 463.836914062 461.669921875 450.50390625 453.002929688 439.50390625 c 0
 444.3359375 428.50390625 433.668945312 418.836914062 421.001953125 410.50390625 c 0
 408.334960938 402.170898438 395.501953125 395.670898438 382.501953125 391.00390625 c 0
 369.501953125 386.336914062 355.668945312 382.669921875 341.001953125 380.002929688 c 1
 368.334960938 374.002929688 391.66796875 366.669921875 411.000976562 358.002929688 c 0
 430.333984375 349.3359375 447.166992188 338.168945312 461.5 324.501953125 c 0
 475.833007812 310.834960938 486.5 293.66796875 493.5 273.000976562 c 0
 500.5 252.333984375 504 227.666992188 504 199 c 0xe8
EndSplineSet
Validated: 524289
EndChar

StartChar: four
Encoding: 52 52 20
Width: 550
GlyphClass: 2
Flags: HMW
HStem: -23.001 21G 224.234 80.335
VStem: 342.003 87.4971 349.002 88.998 349.002 97.0561
LayerCount: 2
Fore
SplineSet
444 55 m 0xd0
 445.372070312 47.68359375 446.057617188 40.71875 446.057617188 34.107421875 c 0
 446.057617188 21.4423828125 443.540039062 10.072265625 438.502929688 -0.001953125 c 0
 430.8359375 -15.3349609375 419.668945312 -23.001953125 405.001953125 -23.001953125 c 0
 392.334960938 -23.001953125 380.001953125 -18.1689453125 368.001953125 -8.501953125 c 0
 356.001953125 1.1650390625 349.668945312 10.998046875 349.001953125 20.998046875 c 2
 349.001953125 59.998046875 l 1
 349.001953125 137.498046875 l 1xc8
 349.001953125 223.998046875 l 1xd0
 334.729492188 224.155273438 320.973632812 224.233398438 307.734375 224.233398438 c 0
 208.423828125 224.233398438 138.1796875 219.822265625 97.001953125 210.999023438 c 0
 86.3349609375 208.999023438 76.66796875 209.33203125 68.0009765625 211.999023438 c 0
 59.333984375 214.666015625 52.5009765625 219.333007812 47.5009765625 226 c 0
 42.5009765625 232.666992188 38.66796875 240.333984375 36.0009765625 249.000976562 c 0
 33.333984375 257.66796875 32.0009765625 266.66796875 32.0009765625 276.000976562 c 0
 32.0009765625 285.333984375 33.66796875 294.333984375 37.0009765625 303.000976562 c 0
 43.66796875 321.66796875 61.5009765625 352.16796875 90.5009765625 394.500976562 c 0
 119.500976562 436.833984375 157.16796875 489.166992188 203.500976562 551.5 c 0
 249.833984375 613.833007812 282.666992188 659 302 687 c 0
 310.666992188 699.666992188 320.5 709.166992188 331.5 715.5 c 0
 342.5 721.833007812 353 725 363 725 c 0
 365.423828125 725.2421875 367.809570312 725.36328125 370.15625 725.36328125 c 0
 380.71875 725.36328125 390.5 722.909179688 399.5 718 c 0
 410.5 712 417.333007812 701.666992188 420 687 c 0
 424 663.666992188 427.166992188 627.666992188 429.5 579 c 0xe0
 431.833007812 530.333007812 433.333007812 489.166015625 434 455.499023438 c 0
 434.666992188 421.83203125 435.666992188 370.999023438 437 302.999023438 c 1
 448.333007812 302.33203125 461 301.999023438 475 301.999023438 c 0
 490.333007812 301.999023438 501.166015625 298.499023438 507.499023438 291.499023438 c 0
 513.83203125 284.499023438 517.33203125 275.33203125 517.999023438 263.999023438 c 0
 517.999023438 234.666015625 503.666015625 219.999023438 474.999023438 219.999023438 c 0
 461.666015625 219.999023438 449.333007812 220.33203125 438 220.999023438 c 1
 439.333007812 123.666015625 441.333007812 68.3330078125 444 55 c 0xd0
342.001953125 601.997070312 m 1xe0
 243.334960938 472.6640625 176.334960938 372.330078125 141.001953125 300.997070312 c 1
 178.146484375 303.377929688 224.134765625 304.568359375 278.967773438 304.568359375 c 0
 300.897460938 304.568359375 324.2421875 304.377929688 349.001953125 303.997070312 c 1
 349.001953125 428.6640625 346.668945312 527.997070312 342.001953125 601.997070312 c 1xe0
EndSplineSet
Validated: 524289
EndChar

StartChar: five
Encoding: 53 53 21
Width: 550
GlyphClass: 2
Flags: HMW
HStem: -18.001 83.998 419.997 89.0029 619 88.998 630 79.998
VStem: 47.596 93.405 54.996 88.0029 412.994 100.006
LayerCount: 2
Fore
SplineSet
513 296 m 0xda
 513 246.666992188 506.825195312 202.166015625 494.4921875 162.499023438 c 0
 482.159179688 122.83203125 464.826171875 89.83203125 442.493164062 63.4990234375 c 0
 420.16015625 37.166015625 393.327148438 16.9990234375 361.994140625 2.9990234375 c 0
 330.661132812 -11.0009765625 296.328125 -18.0009765625 258.995117188 -18.0009765625 c 0
 229.662109375 -18.0009765625 202.662109375 -15.0009765625 177.995117188 -9.0009765625 c 0
 153.328125 -3.0009765625 132.661132812 5.33203125 115.994140625 15.9990234375 c 0
 99.3271484375 26.666015625 85.3271484375 37.8330078125 73.994140625 49.5 c 0
 62.6611328125 61.1669921875 53.328125 73.333984375 45.9951171875 86.0009765625 c 0
 39.9951171875 99.5009765625 36.9951171875 111.125976562 36.9951171875 120.875976562 c 0
 36.9951171875 124.125976562 37.328125 127.16796875 37.9951171875 130.000976562 c 0
 40.662109375 141.333984375 47.662109375 150.000976562 58.9951171875 156.000976562 c 0
 66.328125 159.333984375 72.4951171875 161.666992188 77.4951171875 163 c 0
 82.4951171875 164.333007812 87.9951171875 164.666015625 93.9951171875 163.999023438 c 0
 99.9951171875 163.33203125 105.662109375 160.665039062 110.995117188 155.998046875 c 0
 116.328125 151.331054688 121.995117188 144.6640625 127.995117188 135.997070312 c 0
 157.995117188 89.9970703125 198.662109375 66.6640625 249.995117188 65.9970703125 c 0
 299.995117188 65.9970703125 339.662109375 85.830078125 368.995117188 125.497070312 c 0
 398.328125 165.1640625 412.995117188 218.331054688 412.995117188 284.998046875 c 0
 412.995117188 326.331054688 403.828125 359.1640625 385.495117188 383.497070312 c 0
 367.162109375 407.830078125 338.995117188 419.997070312 300.995117188 419.997070312 c 0
 290.995117188 419.997070312 281.328125 419.497070312 271.995117188 418.497070312 c 0
 262.662109375 417.497070312 254.662109375 416.1640625 247.995117188 414.497070312 c 0
 241.328125 412.830078125 234.328125 410.330078125 226.995117188 406.997070312 c 0
 219.662109375 403.6640625 213.829101562 400.997070312 209.49609375 398.997070312 c 0
 205.163085938 396.997070312 199.830078125 393.330078125 193.497070312 387.997070312 c 0
 187.1640625 382.6640625 182.997070312 378.997070312 180.997070312 376.997070312 c 0
 178.997070312 374.997070312 174.6640625 370.830078125 167.997070312 364.497070312 c 0
 161.330078125 358.1640625 157.330078125 354.331054688 155.997070312 352.998046875 c 0
 150.6640625 348.331054688 144.1640625 344.331054688 136.497070312 340.998046875 c 0
 128.830078125 337.665039062 120.330078125 335.498046875 110.997070312 334.498046875 c 0
 101.6640625 333.498046875 92.3310546875 334.998046875 82.998046875 338.998046875 c 0
 71.6650390625 343.665039062 63.1650390625 353.998046875 57.498046875 369.998046875 c 0
 51.8310546875 385.998046875 48.6640625 405.665039062 47.9970703125 428.998046875 c 0
 47.73046875 438.331054688 47.5966796875 447.530273438 47.5966796875 456.596679688 c 0xda
 47.5966796875 470.197265625 47.896484375 483.498046875 48.49609375 496.499023438 c 0
 49.49609375 518.166015625 50.8291015625 541.499023438 52.49609375 566.499023438 c 0
 54.1630859375 591.499023438 54.99609375 608.666015625 54.99609375 617.999023438 c 1
 49.6630859375 626.666015625 46.330078125 636.499023438 44.9970703125 647.499023438 c 0
 43.6640625 658.499023438 44.1640625 668.666015625 46.4970703125 677.999023438 c 0
 48.830078125 687.33203125 53.4970703125 695.33203125 60.4970703125 701.999023438 c 0
 67.4970703125 708.666015625 75.6640625 711.999023438 84.9970703125 711.999023438 c 0
 109.6640625 711.999023438 167.831054688 711.33203125 259.498046875 709.999023438 c 0xd6
 351.165039062 708.666015625 420.998046875 707.999023438 468.998046875 707.999023438 c 0
 477.665039062 707.999023438 484.83203125 704.33203125 490.499023438 696.999023438 c 0
 496.166015625 689.666015625 499.833007812 681.333007812 501.5 672 c 0
 503.166992188 662.666992188 503.333984375 654 502.000976562 646 c 0
 501.333984375 641.333007812 500.166992188 637.333007812 498.5 634 c 0
 496.833007812 630.666992188 494.5 628.166992188 491.5 626.5 c 0
 488.5 624.833007812 485.833007812 623.333007812 483.5 622 c 0
 481.166992188 620.666992188 477.666992188 619.833984375 473 619.500976562 c 0
 468.333007812 619.16796875 465 619.000976562 463 619.000976562 c 0xe6
 461 619.000976562 457.166992188 619.333984375 451.5 620.000976562 c 0
 445.833007812 620.66796875 442.666015625 621.000976562 441.999023438 621.000976562 c 0
 432.666015625 621.000976562 415.999023438 622.000976562 391.999023438 624.000976562 c 0
 367.999023438 626.000976562 346.666015625 627.500976562 327.999023438 628.500976562 c 0
 309.33203125 629.500976562 283.33203125 630.000976562 249.999023438 630.000976562 c 0
 216.666015625 630.000976562 181.666015625 629.000976562 144.999023438 627.000976562 c 1
 144.999023438 620.333984375 144.33203125 601.000976562 142.999023438 569.000976562 c 0xd6
 141.666015625 537.000976562 140.833007812 513.833984375 140.5 499.500976562 c 0
 140.388671875 494.727539062 140.333007812 489.270507812 140.333007812 483.129882812 c 0
 140.333007812 470.830078125 140.555664062 455.787109375 141.000976562 438 c 1
 159.66796875 458.666992188 185.000976562 475.666992188 217.000976562 489 c 0
 249.000976562 502.333007812 285.66796875 509 327.000976562 509 c 0
 356.333984375 509 382.833984375 503.5 406.500976562 492.5 c 0
 430.16796875 481.5 449.66796875 466.333007812 465.000976562 447 c 0
 480.333984375 427.666992188 492.166992188 405.166992188 500.5 379.5 c 0
 508.833007812 353.833007812 513 326 513 296 c 0xda
EndSplineSet
Validated: 524289
EndChar

StartChar: six
Encoding: 54 54 22
Width: 550
GlyphClass: 2
Flags: HMW
HStem: -21.9971 84.0049 393.004 87.9961
VStem: 34.934 91.0658 417 98<227.333 249.672>
LayerCount: 2
Fore
SplineSet
515 246 m 0
 515 208.666992188 508.833007812 173.502929688 496.5 140.502929688 c 0
 484.166992188 107.502929688 467.333984375 79.169921875 446.000976562 55.5029296875 c 0
 424.66796875 31.8359375 399.16796875 13.0029296875 369.500976562 -0.9970703125 c 0
 339.833984375 -14.9970703125 308.333984375 -21.9970703125 275.000976562 -21.9970703125 c 0
 233.66796875 -21.9970703125 197.66796875 -14.1640625 167.000976562 1.5029296875 c 0
 136.333984375 17.169921875 111.166992188 39.8369140625 91.5 69.50390625 c 0
 71.8330078125 99.1708984375 57.3330078125 134.670898438 48 176.00390625 c 0
 39.2890625 214.580078125 34.93359375 257.51171875 34.93359375 304.798828125 c 0
 34.93359375 308.177734375 34.9560546875 311.579101562 35.0009765625 315.002929688 c 0
 35.66796875 372.3359375 41.3349609375 424.002929688 52.001953125 470.002929688 c 0
 62.6689453125 516.002929688 77.501953125 554.669921875 96.501953125 586.002929688 c 0
 115.501953125 617.3359375 139.001953125 643.8359375 167.001953125 665.502929688 c 0
 195.001953125 687.169921875 225.168945312 703.669921875 257.501953125 715.002929688 c 0
 289.834960938 726.3359375 325.66796875 733.668945312 365.000976562 737.001953125 c 0
 367.920898438 737.255859375 370.774414062 737.3828125 373.561523438 737.3828125 c 0
 385.409179688 737.3828125 396.055664062 735.088867188 405.500976562 730.500976562 c 0
 417.16796875 724.833984375 423.66796875 715.666992188 425.000976562 703 c 0
 425.66796875 695 421.66796875 686.166992188 413.000976562 676.5 c 0
 404.333984375 666.833007812 394.666992188 660.333007812 384 657 c 0
 376.666992188 655 365.5 652.333007812 350.5 649 c 0
 335.5 645.666992188 322.666992188 642.5 312 639.5 c 0
 301.333007812 636.5 288.666015625 632 273.999023438 626 c 0
 259.33203125 620 244.83203125 611.333007812 230.499023438 600 c 0
 216.166015625 588.666992188 201.999023438 575 187.999023438 559 c 0
 173.33203125 541.666992188 159.83203125 518 147.499023438 488 c 0
 135.166015625 458 127.333007812 431.333007812 124 408 c 1
 144.666992188 432.666992188 171.666992188 451 205 463 c 0
 238.333007812 475 275.333007812 481 316 481 c 0
 346.666992188 481 374 476.666992188 398 468 c 0
 422 459.333007812 442.833007812 445.666015625 460.5 426.999023438 c 0
 478.166992188 408.33203125 491.666992188 383.83203125 501 353.499023438 c 0
 510.333007812 323.166015625 515 287.333007812 515 246 c 0
126 230.002929688 m 0
 127.333007812 215.3359375 130.333984375 200.506835938 135.000976562 185.506835938 c 0
 139.66796875 170.506835938 146.16796875 155.33984375 154.500976562 140.006835938 c 0
 162.833984375 124.673828125 172.666992188 111.340820312 184 100.0078125 c 0
 195.333007812 88.6748046875 209 79.5078125 225 72.5078125 c 0
 241 65.5078125 258 62.0078125 276 62.0078125 c 0
 300.666992188 62.0078125 324 70.6748046875 346 88.0078125 c 0
 368 105.340820312 385.333007812 127.173828125 398 153.506835938 c 0
 410.666992188 179.83984375 417 206.672851562 417 234.005859375 c 0
 417 265.338867188 414.333007812 291.671875 409 313.004882812 c 0
 403.666992188 334.337890625 395.166992188 350.670898438 383.5 362.00390625 c 0
 371.833007812 373.336914062 358.666015625 381.336914062 343.999023438 386.00390625 c 0
 329.33203125 390.670898438 311.33203125 393.00390625 289.999023438 393.00390625 c 0
 256.666015625 393.00390625 225.333007812 384.336914062 196 367.00390625 c 0
 166.666992188 349.670898438 142.666992188 327.670898438 124 301.00390625 c 1
 124 272.336914062 124.666992188 248.669921875 126 230.002929688 c 0
EndSplineSet
Validated: 524289
EndChar

StartChar: seven
Encoding: 55 55 23
Width: 550
GlyphClass: 2
Flags: HMW
HStem: -22.9443 21G 622.497 90.5
LayerCount: 2
Fore
SplineSet
175 26 m 0
 167 8.6669921875 156.495117188 -4.3349609375 143.495117188 -13.001953125 c 0
 133.553710938 -19.6298828125 123.709960938 -22.943359375 113.963867188 -22.943359375 c 0
 110.96484375 -22.943359375 107.974609375 -22.6298828125 104.994140625 -22.001953125 c 0
 90.994140625 -18.6689453125 81.1611328125 -10.6689453125 75.494140625 1.998046875 c 0
 72.890625 7.818359375 71.5888671875 13.919921875 71.5888671875 20.302734375 c 0
 71.5888671875 27.8115234375 73.390625 35.7099609375 76.994140625 43.998046875 c 0
 110.994140625 112.665039062 147.494140625 180.998046875 186.494140625 248.998046875 c 0
 225.494140625 316.998046875 257.827148438 371.165039062 283.494140625 411.498046875 c 0
 309.161132812 451.831054688 332.828125 490.998046875 354.495117188 528.998046875 c 0
 376.162109375 566.998046875 390.662109375 597.998046875 397.995117188 621.998046875 c 1
 366.357421875 623.088867188 333.62890625 623.634765625 299.809570312 623.634765625 c 0
 271.62890625 623.634765625 242.690429688 623.255859375 212.995117188 622.498046875 c 0
 147.662109375 620.831054688 104.995117188 617.331054688 84.9951171875 611.998046875 c 0
 76.9951171875 609.998046875 69.828125 610.331054688 63.4951171875 612.998046875 c 0
 57.162109375 615.665039062 51.9951171875 619.665039062 47.9951171875 624.998046875 c 0
 43.9951171875 630.331054688 40.9951171875 635.998046875 38.9951171875 641.998046875 c 0
 36.9951171875 647.998046875 35.9951171875 653.998046875 35.9951171875 659.998046875 c 0
 35.9951171875 671.998046875 38.9951171875 681.498046875 44.9951171875 688.498046875 c 0
 50.9951171875 695.498046875 61.9951171875 700.665039062 77.9951171875 703.998046875 c 0
 102.662109375 708.665039062 136.829101562 711.665039062 180.49609375 712.998046875 c 0
 202.330078125 713.6640625 223.2890625 713.997070312 243.373046875 713.997070312 c 0
 263.45703125 713.997070312 282.666015625 713.6640625 300.999023438 712.998046875 c 0
 337.666015625 711.665039062 373.666015625 710.33203125 408.999023438 708.999023438 c 0
 444.33203125 707.666015625 463.33203125 706.999023438 465.999023438 706.999023438 c 0
 472.666015625 706.999023438 479.499023438 705.499023438 486.499023438 702.499023438 c 0
 493.499023438 699.499023438 499.83203125 694.666015625 505.499023438 687.999023438 c 0
 509.833984375 682.8984375 514.522460938 674.20703125 514.522460938 660.463867188 c 0
 514.522460938 650.153320312 511.34765625 638.331054688 504.998046875 624.997070312 c 0
 495.665039062 604.997070312 478.83203125 574.830078125 454.499023438 534.497070312 c 0
 430.166015625 494.1640625 404.833007812 452.831054688 378.5 410.498046875 c 0
 352.166992188 368.165039062 320.166992188 311.83203125 282.5 241.499023438 c 0
 244.833007812 171.166015625 209 99.3330078125 175 26 c 0
EndSplineSet
Validated: 524289
EndChar

StartChar: eight
Encoding: 56 56 24
Width: 550
GlyphClass: 2
Flags: W
HStem: -27.9922 85.9971<181.677 356.525> 646.004 72.001<197.913 331.63>
VStem: 28.9961 85.998<120.066 256.492> 55.9971 93.998<487.944 598.703> 386.995 90.002<483.938 592.01> 427.994 93.0059<121.363 264.134>
LayerCount: 2
Fore
SplineSet
521 204 m 0xc4
 521 182.666992188 518.162109375 161.338867188 512.495117188 140.005859375 c 0
 506.828125 118.672851562 497.328125 97.83984375 483.995117188 77.5068359375 c 0
 470.662109375 57.173828125 454.329101562 39.3408203125 434.99609375 24.0078125 c 0
 415.663085938 8.6748046875 390.99609375 -3.8251953125 360.99609375 -13.4921875 c 0
 330.99609375 -23.1591796875 297.663085938 -27.9921875 260.99609375 -27.9921875 c 0
 227.663085938 -27.9921875 197.330078125 -23.3251953125 169.997070312 -13.9921875 c 0
 142.6640625 -4.6591796875 120.497070312 7.173828125 103.497070312 21.5068359375 c 0
 86.4970703125 35.83984375 72.1640625 53.0068359375 60.4970703125 73.0068359375 c 0
 48.830078125 93.0068359375 40.6630859375 113.173828125 35.99609375 133.506835938 c 0
 31.3291015625 153.83984375 28.99609375 174.672851562 28.99609375 196.005859375 c 0xe4
 28.99609375 218.672851562 34.6630859375 243.005859375 45.99609375 269.005859375 c 0
 57.3291015625 295.005859375 73.8291015625 319.005859375 95.49609375 341.005859375 c 0
 117.163085938 363.005859375 141.330078125 378.338867188 167.997070312 387.005859375 c 1
 132.6640625 403.672851562 105.1640625 425.505859375 85.4970703125 452.505859375 c 0
 65.830078125 479.505859375 55.9970703125 507.005859375 55.9970703125 535.005859375 c 0
 55.9970703125 543.005859375 56.6640625 551.505859375 57.9970703125 560.505859375 c 0
 59.330078125 569.505859375 61.830078125 580.172851562 65.4970703125 592.505859375 c 0
 69.1640625 604.838867188 74.1640625 616.671875 80.4970703125 628.004882812 c 0
 86.830078125 639.337890625 95.4970703125 650.504882812 106.497070312 661.504882812 c 0
 117.497070312 672.504882812 129.997070312 682.171875 143.997070312 690.504882812 c 0
 157.997070312 698.837890625 175.497070312 705.504882812 196.497070312 710.504882812 c 0
 217.497070312 715.504882812 240.330078125 718.004882812 264.997070312 718.004882812 c 0
 290.997070312 718.004882812 314.497070312 715.504882812 335.497070312 710.504882812 c 0
 356.497070312 705.504882812 374.1640625 698.837890625 388.497070312 690.504882812 c 0
 402.830078125 682.171875 415.497070312 672.504882812 426.497070312 661.504882812 c 0
 437.497070312 650.504882812 445.997070312 639.337890625 451.997070312 628.004882812 c 0
 457.997070312 616.671875 462.997070312 604.671875 466.997070312 592.004882812 c 0
 470.997070312 579.337890625 473.6640625 568.170898438 474.997070312 558.50390625 c 0
 476.330078125 548.836914062 476.997070312 539.669921875 476.997070312 531.002929688 c 0xd8
 476.997070312 523.002929688 475.997070312 515.002929688 473.997070312 507.002929688 c 0
 471.997070312 499.002929688 469.330078125 492.002929688 465.997070312 486.002929688 c 0
 462.6640625 480.002929688 458.331054688 473.669921875 452.998046875 467.002929688 c 0
 447.665039062 460.3359375 442.665039062 454.668945312 437.998046875 450.001953125 c 0
 433.331054688 445.334960938 427.331054688 440.001953125 419.998046875 434.001953125 c 0
 412.665039062 428.001953125 406.83203125 423.501953125 402.499023438 420.501953125 c 0
 398.166015625 417.501953125 391.999023438 413.334960938 383.999023438 408.001953125 c 0
 375.999023438 402.668945312 370.666015625 399.001953125 367.999023438 397.001953125 c 1
 392.666015625 386.334960938 414.333007812 374.334960938 433 361.001953125 c 0
 451.666992188 347.668945312 466.5 334.501953125 477.5 321.501953125 c 0
 488.5 308.501953125 497.333007812 294.668945312 504 280.001953125 c 0
 510.666992188 265.334960938 515.166992188 252.16796875 517.5 240.500976562 c 0
 519.833007812 228.833984375 521 216.666992188 521 204 c 0xc4
149.995117188 538.004882812 m 0xd8
 149.995117188 516.004882812 160.162109375 496.504882812 180.495117188 479.504882812 c 0
 200.828125 462.504882812 234.328125 445.337890625 280.995117188 428.004882812 c 1
 308.995117188 439.337890625 333.662109375 454.670898438 354.995117188 474.00390625 c 0
 376.328125 493.336914062 386.995117188 511.336914062 386.995117188 528.00390625 c 0
 386.995117188 546.670898438 381.662109375 565.00390625 370.995117188 583.00390625 c 0
 360.328125 601.00390625 345.495117188 616.00390625 326.495117188 628.00390625 c 0
 307.495117188 640.00390625 286.995117188 646.00390625 264.995117188 646.00390625 c 0
 233.662109375 646.00390625 206.662109375 634.836914062 183.995117188 612.50390625 c 0
 161.328125 590.170898438 149.995117188 565.337890625 149.995117188 538.004882812 c 0xd8
264.995117188 58.0048828125 m 0
 284.328125 58.0048828125 303.66015625 60.8330078125 322.993164062 66.5 c 0
 342.326171875 72.1669921875 359.826171875 80.333984375 375.493164062 91.0009765625 c 0
 391.16015625 101.66796875 403.827148438 115.66796875 413.494140625 133.000976562 c 0
 423.161132812 150.333984375 427.994140625 168.666992188 427.994140625 188 c 0
 427.994140625 198.666992188 426.994140625 208.833984375 424.994140625 218.500976562 c 0
 422.994140625 228.16796875 418.994140625 239.334960938 412.994140625 252.001953125 c 0
 406.994140625 264.668945312 398.661132812 276.3359375 387.994140625 287.002929688 c 0
 377.327148438 297.669921875 362.494140625 308.836914062 343.494140625 320.50390625 c 0
 324.494140625 332.170898438 302.327148438 342.670898438 276.994140625 352.00390625 c 1
 228.994140625 339.336914062 189.994140625 317.336914062 159.994140625 286.00390625 c 0
 129.994140625 254.670898438 114.994140625 221.337890625 114.994140625 186.004882812 c 0xe4
 114.994140625 161.337890625 122.494140625 139.004882812 137.494140625 119.004882812 c 0
 152.494140625 99.0048828125 171.327148438 83.837890625 193.994140625 73.5048828125 c 0
 216.661132812 63.171875 240.328125 58.0048828125 264.995117188 58.0048828125 c 0
EndSplineSet
Validated: 524289
EndChar

StartChar: nine
Encoding: 57 57 25
Width: 550
GlyphClass: 2
Flags: HMW
HStem: -22.3812 21G 234.998 89 654.995 84.0049
VStem: 34.002 98.0049 427.172 87.8928
LayerCount: 2
Fore
SplineSet
161 -22 m 0
 158.077148438 -22.25390625 155.219726562 -22.3828125 152.430664062 -22.3828125 c 0
 140.587890625 -22.3828125 129.94921875 -20.091796875 120.506835938 -15.5048828125 c 0
 108.83984375 -9.837890625 102.33984375 -0.6708984375 101.006835938 11.99609375 c 0
 100.33984375 20.6630859375 104.172851562 29.6630859375 112.505859375 38.99609375 c 0
 120.838867188 48.3291015625 130.671875 54.662109375 142.004882812 57.9951171875 c 0
 149.337890625 59.9951171875 161.170898438 62.662109375 177.50390625 65.9951171875 c 0
 193.836914062 69.328125 208.50390625 72.828125 221.50390625 76.4951171875 c 0
 234.50390625 80.162109375 249.170898438 84.9951171875 265.50390625 90.9951171875 c 0
 281.836914062 96.9951171875 297.669921875 105.328125 313.002929688 115.995117188 c 0
 328.3359375 126.662109375 342.3359375 139.329101562 355.002929688 153.99609375 c 0
 371.669921875 173.329101562 386.502929688 195.829101562 399.502929688 221.49609375 c 0
 412.502929688 247.163085938 421.669921875 270.330078125 427.002929688 290.997070312 c 1
 408.3359375 269.6640625 384.3359375 254.997070312 355.002929688 246.997070312 c 0
 325.669921875 238.997070312 289.669921875 234.997070312 247.002929688 234.997070312 c 0
 217.669921875 234.997070312 189.669921875 241.830078125 163.002929688 255.497070312 c 0
 136.3359375 269.1640625 113.668945312 287.331054688 95.001953125 309.998046875 c 0
 76.3349609375 332.665039062 61.501953125 358.83203125 50.501953125 388.499023438 c 0
 39.501953125 418.166015625 34.001953125 448.333007812 34.001953125 479 c 0
 34.001953125 516.333007812 40.3349609375 551.166015625 53.001953125 583.499023438 c 0
 65.6689453125 615.83203125 82.6689453125 643.33203125 104.001953125 665.999023438 c 0
 125.334960938 688.666015625 150.66796875 706.499023438 180.000976562 719.499023438 c 0
 209.333984375 732.499023438 240.666992188 738.999023438 274 738.999023438 c 0
 356 738.999023438 417 707.999023438 457 645.999023438 c 0
 495.709960938 585.999023438 515.064453125 500.711914062 515.064453125 390.138671875 c 0
 515.064453125 386.454101562 515.04296875 382.741210938 515 379 c 0
 514.333007812 325.666992188 507.666015625 277.5 494.999023438 234.5 c 0
 482.33203125 191.5 465.33203125 155 443.999023438 125 c 0
 422.666015625 95 397.166015625 69.3330078125 367.499023438 48 c 0
 337.83203125 26.6669921875 305.83203125 10.5 271.499023438 -0.5 c 0
 237.166015625 -11.5 200.333007812 -18.6669921875 161 -22 c 0
132.005859375 490.993164062 m 0
 132.005859375 436.326171875 143.8359375 394.829101562 167.502929688 366.49609375 c 0
 191.169921875 338.163085938 226.336914062 323.99609375 273.00390625 323.99609375 c 0
 302.336914062 323.99609375 331.00390625 330.663085938 359.00390625 343.99609375 c 0
 387.00390625 357.329101562 409.670898438 375.662109375 427.00390625 398.995117188 c 0
 427.115234375 402.21875 427.170898438 405.720703125 427.170898438 409.500976562 c 0
 427.170898438 428.388671875 425.782226562 454.219726562 423.004882812 486.994140625 c 0
 421.671875 501.661132812 418.838867188 516.494140625 414.505859375 531.494140625 c 0
 410.172851562 546.494140625 403.672851562 561.661132812 395.005859375 576.994140625 c 0
 386.338867188 592.327148438 376.338867188 605.66015625 365.005859375 616.993164062 c 0
 353.672851562 628.326171875 340.005859375 637.493164062 324.005859375 644.493164062 c 0
 308.005859375 651.493164062 291.005859375 654.993164062 273.005859375 654.993164062 c 0
 248.338867188 654.993164062 225.005859375 646.993164062 203.005859375 630.993164062 c 0
 181.005859375 614.993164062 163.672851562 594.493164062 151.005859375 569.493164062 c 0
 138.338867188 544.493164062 132.005859375 518.326171875 132.005859375 490.993164062 c 0
EndSplineSet
Validated: 524289
EndChar

StartChar: colon
Encoding: 58 58 26
Width: 550
GlyphClass: 2
Flags: HMW
HStem: 39.8998 155.096 306.91 155.09
VStem: 209.668 127.695
LayerCount: 2
Fore
SplineSet
337 417 m 0
 337.2421875 413 337.36328125 408.956054688 337.36328125 404.868164062 c 0
 337.36328125 386.470703125 334.909179688 367.1796875 330 346.997070312 c 0
 326.666992188 333.6640625 319.333984375 323.497070312 308.000976562 316.497070312 c 0
 297.653320312 310.106445312 287.583984375 306.91015625 277.791992188 306.91015625 c 0
 276.859375 306.91015625 275.928710938 306.939453125 275.000976562 306.997070312 c 0
 235.000976562 308.997070312 213.66796875 324.330078125 211.000976562 352.997070312 c 0
 210.112304688 364.994140625 209.66796875 379.211914062 209.66796875 395.651367188 c 0
 209.66796875 403.876953125 209.779296875 412.659179688 210.001953125 421.997070312 c 0
 210.001953125 430.6640625 212.501953125 437.831054688 217.501953125 443.498046875 c 0
 222.501953125 449.165039062 228.668945312 453.33203125 236.001953125 455.999023438 c 0
 243.334960938 458.666015625 250.334960938 460.333007812 257.001953125 461 c 0
 263.668945312 461.666992188 270.001953125 462 276.001953125 462 c 0
 282.001953125 462 288.168945312 461.333007812 294.501953125 460 c 0
 300.834960938 458.666992188 307.16796875 456.5 313.500976562 453.5 c 0
 319.833984375 450.5 325.166992188 445.833007812 329.5 439.5 c 0
 333.833007812 433.166992188 336.333007812 425.666992188 337 417 c 0
338 149.997070312 m 0
 339.5 141.249023438 340.249023438 132.40625 340.249023438 123.469726562 c 0
 340.249023438 108.571289062 338.165039062 93.412109375 333.998046875 77.9931640625 c 0
 330.665039062 64.66015625 322.33203125 54.8271484375 308.999023438 48.494140625 c 0
 296.936523438 42.7646484375 285.692382812 39.8994140625 275.266601562 39.8994140625 c 0
 274.168945312 39.8994140625 273.080078125 39.931640625 272 39.9951171875 c 0
 258.666992188 40.662109375 245.666992188 44.8291015625 233 52.49609375 c 0
 220.333007812 60.1630859375 213.333007812 70.99609375 212 84.99609375 c 0
 211.333007812 98.99609375 210.833007812 107.829101562 210.5 111.49609375 c 0
 210.166992188 115.163085938 210.5 121.99609375 211.5 131.99609375 c 0
 212.5 141.99609375 213 149.663085938 213 154.99609375 c 0
 213 162.99609375 215.333007812 169.99609375 220 175.99609375 c 0
 224.666992188 181.99609375 230.5 186.163085938 237.5 188.49609375 c 0
 244.5 190.829101562 251.333007812 192.49609375 258 193.49609375 c 0
 264.666992188 194.49609375 271 194.99609375 277 194.99609375 c 0
 285 194.99609375 293 193.829101562 301 191.49609375 c 0
 309 189.163085938 316.666992188 184.330078125 324 176.997070312 c 0
 331.333007812 169.6640625 336 160.6640625 338 149.997070312 c 0
EndSplineSet
Validated: 524289
EndChar

StartChar: semicolon
Encoding: 59 59 27
Width: 550
GlyphClass: 2
Flags: HMW
HStem: 264.912 155.087
VStem: 239.665 127.698
LayerCount: 2
Fore
SplineSet
367 375 m 0
 367.2421875 371.000976562 367.36328125 366.958984375 367.36328125 362.872070312 c 0
 367.36328125 344.473632812 364.908203125 325.182617188 359.999023438 304.999023438 c 0
 356.666015625 291.666015625 349.499023438 281.499023438 338.499023438 274.499023438 c 0
 328.456054688 268.108398438 318.2734375 264.912109375 307.952148438 264.912109375 c 0
 306.96875 264.912109375 305.984375 264.94140625 304.999023438 264.999023438 c 0
 296.33203125 265.666015625 287.499023438 267.499023438 278.499023438 270.499023438 c 0
 269.499023438 273.499023438 261.166015625 278.666015625 253.499023438 285.999023438 c 0
 245.83203125 293.33203125 241.665039062 301.999023438 240.998046875 311.999023438 c 0
 240.109375 323.99609375 239.665039062 338.213867188 239.665039062 354.653320312 c 0
 239.665039062 362.87890625 239.776367188 371.661132812 239.999023438 380.999023438 c 0
 239.999023438 388.999023438 242.33203125 395.999023438 246.999023438 401.999023438 c 0
 251.666015625 407.999023438 257.833007812 412.166015625 265.5 414.499023438 c 0
 273.166992188 416.83203125 280.5 418.499023438 287.5 419.499023438 c 0
 294.5 420.499023438 300.666992188 420.666015625 306 419.999023438 c 0
 312 419.999023438 318 419.499023438 324 418.499023438 c 0
 330 417.499023438 336.333007812 415.33203125 343 411.999023438 c 0
 349.666992188 408.666015625 355.166992188 403.833007812 359.5 397.5 c 0
 363.833007812 391.166992188 366.333007812 383.666992188 367 375 c 0
347.999023438 74 m 0
 346.666015625 52.6669921875 324.999023438 -34.333984375 282.999023438 -187.000976562 c 0
 279.666015625 -201.000976562 272.833007812 -211.16796875 262.5 -217.500976562 c 0
 253.151367188 -223.23046875 243.666015625 -226.095703125 234.043945312 -226.095703125 c 0
 233.030273438 -226.095703125 232.015625 -226.063476562 230.999023438 -226 c 0
 217.666015625 -225.333007812 205.833007812 -221 195.5 -213 c 0
 186.34765625 -205.9140625 181.771484375 -196.474609375 181.771484375 -184.681640625 c 0
 181.771484375 -172.114257812 189.672851562 -128.228515625 202.999023438 -63 c 0
 215.666015625 -1 225.666015625 46.3330078125 232.999023438 79 c 0
 234.999023438 89 237.999023438 97 241.999023438 103 c 0
 245.999023438 109 250.499023438 113 255.499023438 115 c 0
 260.499023438 117 265.83203125 118.333007812 271.499023438 119 c 0
 277.166015625 119.666992188 281.999023438 119.666992188 285.999023438 119 c 0
 291.999023438 119 298.499023438 118.166992188 305.499023438 116.5 c 0
 312.499023438 114.833007812 319.499023438 112.5 326.499023438 109.5 c 0
 333.499023438 106.5 338.999023438 102 342.999023438 96 c 0
 346.999023438 90 348.666015625 82.6669921875 347.999023438 74 c 0
EndSplineSet
Validated: 524289
EndChar

StartChar: less
Encoding: 60 60 28
Width: 550
GlyphClass: 2
Flags: HMW
HStem: -12.3989 21G
LayerCount: 2
Fore
SplineSet
520 14 m 0
 516.666992188 7.3330078125 511.666992188 1.6689453125 505 -2.998046875 c 0
 498.333007812 -7.6650390625 489.5 -10.6650390625 478.5 -11.998046875 c 0
 476.30078125 -12.2646484375 474.000976562 -12.3974609375 471.6015625 -12.3974609375 c 0
 462.000976562 -12.3974609375 450.80078125 -10.2646484375 438 -5.998046875 c 0
 421.333007812 -0.6650390625 400.833007812 11.001953125 376.5 29.001953125 c 0
 352.166992188 47.001953125 325.833984375 68.501953125 297.500976562 93.501953125 c 0
 269.16796875 118.501953125 241.000976562 144.001953125 213.000976562 170.001953125 c 0
 185.000976562 196.001953125 155.500976562 222.834960938 124.500976562 250.501953125 c 0
 93.5009765625 278.168945312 67.333984375 299.668945312 46.0009765625 315.001953125 c 0
 37.333984375 321.001953125 31.6669921875 330.001953125 29 342.001953125 c 0
 27.7451171875 347.6484375 27.1171875 353.184570312 27.1171875 358.610351562 c 0
 27.1171875 364.713867188 27.9111328125 370.677734375 29.4990234375 376.500976562 c 0
 32.4990234375 387.500976562 38.33203125 395.333984375 46.9990234375 400.000976562 c 0
 84.9990234375 428.000976562 129.499023438 463.16796875 180.499023438 505.500976562 c 0
 231.499023438 547.833984375 278.166015625 586.166992188 320.499023438 620.5 c 0
 362.83203125 654.833007812 400.33203125 682 432.999023438 702 c 0
 443.666015625 708.666992188 453.499023438 712.166992188 462.499023438 712.5 c 0
 471.499023438 712.833007812 479.33203125 711.166015625 485.999023438 707.499023438 c 0
 492.666015625 703.83203125 498.499023438 699.33203125 503.499023438 693.999023438 c 0
 508.499023438 688.666015625 512.33203125 682.999023438 514.999023438 676.999023438 c 0
 517.6328125 672.0234375 518.950195312 667.015625 518.950195312 661.975585938 c 0
 518.950195312 655.536132812 516.799804688 649.043945312 512.499023438 642.499023438 c 0
 504.83203125 630.83203125 489.999023438 616.999023438 467.999023438 600.999023438 c 0
 430.666015625 574.999023438 373.833007812 532.33203125 297.5 472.999023438 c 0
 221.166992188 413.666015625 173 375.999023438 153 359.999023438 c 1
 179 339.999023438 207.666992188 315.83203125 239 287.499023438 c 0
 270.333007812 259.166015625 298.333007812 233.499023438 323 210.499023438 c 0
 347.666992188 187.499023438 374 163.999023438 402 139.999023438 c 0
 430 115.999023438 454 96.9990234375 474 82.9990234375 c 0
 495.333007812 68.9990234375 509.5 56.83203125 516.5 46.4990234375 c 0
 520.700195312 40.298828125 522.80078125 33.9189453125 522.80078125 27.359375 c 0
 522.80078125 22.986328125 521.8671875 18.533203125 520 14 c 0
EndSplineSet
Validated: 524289
EndChar

StartChar: equal
Encoding: 61 61 29
Width: 550
GlyphClass: 2
Flags: HMW
HStem: 246.996 83 442.999 85.0725
LayerCount: 2
Fore
SplineSet
131 528 m 0
 169 526.666992188 208.168945312 525.99609375 248.501953125 525.99609375 c 0
 288.834960938 525.99609375 326.501953125 526.329101562 361.501953125 526.99609375 c 0
 396.501953125 527.663085938 417.334960938 527.99609375 424.001953125 527.99609375 c 0
 439.334960938 527.99609375 450.16796875 524.663085938 456.500976562 517.99609375 c 0
 462.833984375 511.329101562 466.333984375 502.329101562 467.000976562 490.99609375 c 0
 467.000976562 484.99609375 466.333984375 479.49609375 465.000976562 474.49609375 c 0
 463.66796875 469.49609375 461.66796875 464.663085938 459.000976562 459.99609375 c 0
 456.333984375 455.329101562 452.000976562 451.829101562 446.000976562 449.49609375 c 0
 440.000976562 447.163085938 432.66796875 446.330078125 424.000976562 446.997070312 c 0
 407.993164062 447.442382812 391.465820312 447.665039062 374.419921875 447.665039062 c 0
 365.909179688 447.665039062 357.26953125 447.609375 348.5 447.498046875 c 0
 322.166992188 447.165039062 285.666992188 446.33203125 239 444.999023438 c 0
 192.333007812 443.666015625 158 442.999023438 136 442.999023438 c 0
 119.333007812 442.999023438 106.333007812 446.999023438 97 454.999023438 c 0
 83.0576171875 466.950195312 82.9228515625 479.587890625 82.9228515625 486.887695312 c 0
 82.9228515625 498.295898438 86.615234375 508 94 516 c 0
 101.428710938 524.047851562 112.592773438 528.071289062 127.493164062 528.071289062 c 0
 128.639648438 528.071289062 129.80859375 528.047851562 131 528 c 0
134.001953125 329.99609375 m 0
 151.588867188 329.7734375 170.142578125 329.662109375 189.662109375 329.662109375 c 0
 228.59765625 329.662109375 271.377929688 330.10546875 318.002929688 330.993164062 c 0
 388.002929688 332.326171875 423.3359375 332.993164062 424.002929688 332.993164062 c 0
 439.3359375 332.993164062 450.168945312 329.493164062 456.501953125 322.493164062 c 0
 462.834960938 315.493164062 466.334960938 306.326171875 467.001953125 294.993164062 c 0
 467.001953125 288.993164062 466.334960938 283.493164062 465.001953125 278.493164062 c 0
 463.668945312 273.493164062 461.668945312 268.66015625 459.001953125 263.993164062 c 0
 456.334960938 259.326171875 452.001953125 255.826171875 446.001953125 253.493164062 c 0
 440.001953125 251.16015625 432.668945312 250.327148438 424.001953125 250.994140625 c 0
 407.994140625 251.439453125 391.319335938 251.662109375 373.9765625 251.662109375 c 0
 365.318359375 251.662109375 356.493164062 251.606445312 347.501953125 251.495117188 c 0
 320.501953125 251.162109375 283.334960938 250.329101562 236.001953125 248.99609375 c 0
 188.668945312 247.663085938 154.001953125 246.99609375 132.001953125 246.99609375 c 0
 115.334960938 246.99609375 103.001953125 251.163085938 95.001953125 259.49609375 c 0
 83.625 271.346679688 82.9306640625 284.059570312 82.9306640625 292.397460938 c 0
 82.9306640625 302.677734375 86.9541015625 311.376953125 95.001953125 318.49609375 c 0
 103.668945312 326.163085938 116.668945312 329.99609375 134.001953125 329.99609375 c 0
EndSplineSet
Validated: 524289
EndChar

StartChar: greater
Encoding: 62 62 30
Width: 550
GlyphClass: 2
Flags: W
LayerCount: 2
Fore
SplineSet
117 5 m 0
 107 -1 97.3310546875 -4.33203125 87.998046875 -4.9990234375 c 0
 78.6650390625 -5.666015625 70.6650390625 -4.166015625 63.998046875 -0.4990234375 c 0
 57.3310546875 3.16796875 51.6640625 7.66796875 46.9970703125 13.0009765625 c 0
 42.330078125 18.333984375 38.6630859375 24.0009765625 35.99609375 30.0009765625 c 0
 33.2958984375 35.1005859375 31.9462890625 40.234375 31.9462890625 45.4013671875 c 0
 31.9462890625 51.716796875 33.962890625 58.0830078125 37.99609375 64.5 c 0
 45.3291015625 76.1669921875 60.3291015625 90 82.99609375 106 c 0
 120.329101562 132 176.99609375 174.666992188 252.99609375 234 c 0
 328.99609375 293.333007812 377.663085938 331 398.99609375 347 c 1
 372.99609375 367 343.829101562 391.166992188 311.49609375 419.5 c 0
 279.163085938 447.833007812 250.99609375 473.5 226.99609375 496.5 c 0
 202.99609375 519.5 176.99609375 543 148.99609375 567 c 0
 120.99609375 591 96.3291015625 610 74.99609375 624 c 0
 53.6630859375 638 39.49609375 650.166992188 32.49609375 660.5 c 0
 28.5234375 666.364257812 26.537109375 672.389648438 26.537109375 678.576171875 c 0
 26.537109375 683.290039062 27.6904296875 688.09765625 29.9970703125 692.998046875 c 0
 33.330078125 699.665039062 38.1630859375 705.33203125 44.49609375 709.999023438 c 0
 50.8291015625 714.666015625 59.8291015625 717.666015625 71.49609375 718.999023438 c 0
 73.8291015625 719.265625 76.2353515625 719.3984375 78.71484375 719.3984375 c 0
 88.6357421875 719.3984375 99.7294921875 717.265625 111.99609375 712.999023438 c 0
 128.663085938 707.666015625 149.330078125 696.166015625 173.997070312 678.499023438 c 0
 198.6640625 660.83203125 225.1640625 639.33203125 253.497070312 613.999023438 c 0
 281.830078125 588.666015625 309.997070312 562.999023438 337.997070312 536.999023438 c 0
 365.997070312 510.999023438 395.330078125 484.33203125 425.997070312 456.999023438 c 0
 456.6640625 429.666015625 483.331054688 407.999023438 505.998046875 391.999023438 c 0
 513.998046875 385.999023438 519.331054688 376.999023438 521.998046875 364.999023438 c 0
 523.18359375 359.665039062 523.776367188 354.4296875 523.776367188 349.29296875 c 0
 523.776367188 342.874023438 522.850585938 336.609375 520.999023438 330.499023438 c 0
 517.666015625 319.499023438 511.999023438 311.666015625 503.999023438 306.999023438 c 0
 465.999023438 278.999023438 421.499023438 243.83203125 370.499023438 201.499023438 c 0
 319.499023438 159.166015625 272.83203125 120.833007812 230.499023438 86.5 c 0
 188.166015625 52.1669921875 150.333007812 25 117 5 c 0
EndSplineSet
Validated: 524289
EndChar

StartChar: question
Encoding: 63 63 31
Width: 550
GlyphClass: 2
Flags: HMW
HStem: -14.5656 154.604 637.999 84.001
VStem: 170.997 163 382.999 99
LayerCount: 2
Fore
SplineSet
306 262 m 0
 303.333007812 244.666992188 297.162109375 231.330078125 287.495117188 221.997070312 c 0
 281.05078125 215.775390625 272.754882812 212.6640625 262.607421875 212.6640625 c 0
 257.533203125 212.6640625 251.99609375 213.442382812 245.99609375 214.998046875 c 0
 227.329101562 219.665039062 214.99609375 228.33203125 208.99609375 240.999023438 c 0
 205.819335938 247.705078125 204.231445312 255.625 204.231445312 264.759765625 c 0
 204.231445312 272.879882812 205.486328125 281.959960938 207.99609375 291.999023438 c 0
 212.663085938 309.999023438 219.49609375 326.999023438 228.49609375 342.999023438 c 0
 237.49609375 358.999023438 247.329101562 372.666015625 257.99609375 383.999023438 c 0
 268.663085938 395.33203125 279.830078125 406.165039062 291.497070312 416.498046875 c 0
 303.1640625 426.831054688 314.331054688 436.498046875 324.998046875 445.498046875 c 0
 335.665039062 454.498046875 345.33203125 463.665039062 353.999023438 472.998046875 c 0
 362.666015625 482.331054688 369.666015625 492.498046875 374.999023438 503.498046875 c 0
 380.33203125 514.498046875 382.999023438 526.331054688 382.999023438 538.998046875 c 0
 382.999023438 573.665039062 372.83203125 598.83203125 352.499023438 614.499023438 c 0
 332.166015625 630.166015625 303.333007812 637.999023438 266 637.999023438 c 0
 256.666992188 637.999023438 247.333984375 635.83203125 238.000976562 631.499023438 c 0
 228.66796875 627.166015625 220.500976562 622.333007812 213.500976562 617 c 0
 206.500976562 611.666992188 199.16796875 604.5 191.500976562 595.5 c 0
 183.833984375 586.5 177.833984375 578.833007812 173.500976562 572.5 c 0
 169.16796875 566.166992188 164.000976562 558.666992188 158.000976562 550 c 0
 152.000976562 541.333007812 146.333984375 534.5 141.000976562 529.5 c 0
 135.66796875 524.5 130.000976562 521.833007812 124.000976562 521.5 c 0
 118.000976562 521.166992188 112.66796875 521.5 108.000976562 522.5 c 0
 103.333984375 523.5 97.333984375 525.666992188 90.0009765625 529 c 0
 78.66796875 535 71.5009765625 543.666992188 68.5009765625 555 c 0
 67.7294921875 557.9140625 67.34375 561.048828125 67.34375 564.404296875 c 0
 67.34375 574.096679688 70.5625 585.62890625 77.0009765625 599 c 0
 84.333984375 613 93.1669921875 626.5 103.5 639.5 c 0
 113.833007812 652.5 126.666015625 665.5 141.999023438 678.5 c 0
 157.33203125 691.5 175.499023438 702 196.499023438 710 c 0
 217.499023438 718 239.33203125 722 261.999023438 722 c 0
 333.999023438 722 388.666015625 705.333007812 425.999023438 672 c 0
 463.33203125 638.666992188 481.999023438 588.666992188 481.999023438 522 c 0
 481.999023438 504 479.166015625 487.666992188 473.499023438 473 c 0
 467.83203125 458.333007812 460.33203125 445.666015625 450.999023438 434.999023438 c 0
 441.666015625 424.33203125 431.166015625 414.33203125 419.499023438 404.999023438 c 0
 407.83203125 395.666015625 395.83203125 386.333007812 383.499023438 377 c 0
 371.166015625 367.666992188 359.833007812 358 349.5 348 c 0
 339.166992188 338 330 325.5 322 310.5 c 0
 314 295.5 308.666992188 279.333007812 306 262 c 0
254.99609375 -14.00390625 m 0
 251.533203125 -14.3779296875 248.158203125 -14.5654296875 244.872070312 -14.5654296875 c 0
 224.754882812 -14.5654296875 207.962890625 -7.5478515625 194.49609375 6.4921875 c 0
 178.829101562 22.8251953125 170.99609375 41.9921875 170.99609375 63.9921875 c 0
 170.99609375 84.6591796875 179.49609375 102.326171875 196.49609375 116.993164062 c 0
 213.49609375 131.66015625 232.99609375 139.327148438 254.99609375 139.994140625 c 0
 256.033203125 140.0234375 257.0625 140.038085938 258.083007812 140.038085938 c 0
 280.010742188 140.038085938 297.981445312 133.190429688 311.99609375 119.495117188 c 0
 326.663085938 105.162109375 333.99609375 86.9951171875 333.99609375 64.9951171875 c 0
 333.99609375 43.662109375 326.829101562 25.8291015625 312.49609375 11.49609375 c 0
 298.163085938 -2.8369140625 278.99609375 -11.3369140625 254.99609375 -14.00390625 c 0
EndSplineSet
Validated: 524289
EndChar

StartChar: at
Encoding: 64 64 32
Width: 550
GlyphClass: 2
Flags: HMW
HStem: -129.182 85.178 102.002 77.9951 118.002 79.9941 381 77.1335 612.994 90.0078
VStem: 16.9941 87.0029 139.995 76.999 321.993 80.002 459.997 72.998
LayerCount: 2
Fore
SplineSet
482 5 m 0xdf80
 478.666992188 -4.3330078125 475.16015625 -12.5009765625 471.493164062 -19.5009765625 c 0
 467.826171875 -26.5009765625 462.826171875 -35.16796875 456.493164062 -45.5009765625 c 0
 450.16015625 -55.833984375 443.493164062 -64.6669921875 436.493164062 -72 c 0
 429.493164062 -79.3330078125 420.326171875 -86.8330078125 408.993164062 -94.5 c 0
 397.66015625 -102.166992188 385.493164062 -108.5 372.493164062 -113.5 c 0
 359.493164062 -118.5 343.993164062 -122.5 325.993164062 -125.5 c 0
 311.266601562 -127.954101562 295.647460938 -129.181640625 279.135742188 -129.181640625 c 0
 275.465820312 -129.181640625 271.751953125 -129.12109375 267.993164062 -129 c 0
 232.66015625 -129 199.66015625 -120.333007812 168.993164062 -103 c 0
 138.326171875 -85.6669921875 111.826171875 -61.5 89.4931640625 -30.5 c 0
 67.16015625 0.5 49.4931640625 38.1669921875 36.4931640625 82.5 c 0
 23.4931640625 126.833007812 16.9931640625 175.333007812 16.9931640625 228 c 0
 16.9931640625 286.666992188 21.4931640625 341.333984375 30.4931640625 392.000976562 c 0
 39.4931640625 442.66796875 52.326171875 486.834960938 68.9931640625 524.501953125 c 0
 85.66015625 562.168945312 105.327148438 594.501953125 127.994140625 621.501953125 c 0
 150.661132812 648.501953125 175.661132812 668.834960938 202.994140625 682.501953125 c 0
 230.327148438 696.168945312 258.994140625 703.001953125 288.994140625 703.001953125 c 0
 311.661132812 703.001953125 331.994140625 701.168945312 349.994140625 697.501953125 c 0
 367.994140625 693.834960938 385.494140625 687.834960938 402.494140625 679.501953125 c 0
 419.494140625 671.168945312 434.494140625 660.001953125 447.494140625 646.001953125 c 0
 460.494140625 632.001953125 472.494140625 614.501953125 483.494140625 593.501953125 c 0
 494.494140625 572.501953125 503.494140625 548.001953125 510.494140625 520.001953125 c 0
 517.494140625 492.001953125 522.994140625 459.001953125 526.994140625 421.001953125 c 0
 530.994140625 383.001953125 532.994140625 340.334960938 532.994140625 293.001953125 c 0
 532.994140625 269.001953125 531.161132812 246.168945312 527.494140625 224.501953125 c 0
 523.827148438 202.834960938 518.494140625 182.501953125 511.494140625 163.501953125 c 0
 504.494140625 144.501953125 494.161132812 129.501953125 480.494140625 118.501953125 c 0
 466.827148438 107.501953125 450.994140625 102.001953125 432.994140625 102.001953125 c 0xdf80
 384.994140625 102.001953125 357.994140625 130.001953125 351.994140625 186.001953125 c 1
 336.661132812 140.668945312 307.661132812 118.001953125 264.994140625 118.001953125 c 0
 225.661132812 118.001953125 194.994140625 130.334960938 172.994140625 155.001953125 c 0
 150.994140625 179.668945312 139.994140625 217.3359375 139.994140625 268.002929688 c 0
 139.994140625 293.3359375 142.827148438 316.668945312 148.494140625 338.001953125 c 0
 154.161132812 359.334960938 161.828125 377.501953125 171.495117188 392.501953125 c 0
 181.162109375 407.501953125 192.495117188 420.168945312 205.495117188 430.501953125 c 0
 218.495117188 440.834960938 232.662109375 448.16796875 247.995117188 452.500976562 c 0
 261.283203125 456.255859375 274.821289062 458.133789062 288.610351562 458.133789062 c 0
 290.732421875 458.133789062 292.861328125 458.088867188 294.99609375 458 c 0
 310.99609375 457.333007812 326.99609375 453.666015625 342.99609375 446.999023438 c 0
 358.329101562 440.999023438 370.662109375 432.999023438 379.995117188 422.999023438 c 0
 389.328125 412.999023438 391.661132812 403.999023438 386.994140625 395.999023438 c 0
 384.327148438 390.666015625 381.327148438 386.333007812 377.994140625 383 c 0
 374.661132812 379.666992188 370.661132812 377.333984375 365.994140625 376.000976562 c 0
 361.327148438 374.66796875 356.994140625 373.66796875 352.994140625 373.000976562 c 0
 348.994140625 372.333984375 343.994140625 372.500976562 337.994140625 373.500976562 c 0
 331.994140625 374.500976562 327.327148438 375.333984375 323.994140625 376.000976562 c 0
 320.661132812 376.66796875 315.661132812 378.000976562 308.994140625 380.000976562 c 0
 300.327148438 381.333984375 291.827148438 381.666992188 283.494140625 381 c 0
 275.161132812 380.333007812 266.994140625 377.5 258.994140625 372.5 c 0
 250.994140625 367.5 243.994140625 361.166992188 237.994140625 353.5 c 0
 231.994140625 345.833007812 226.994140625 335.666015625 222.994140625 322.999023438 c 0
 218.994140625 310.33203125 216.994140625 295.999023438 216.994140625 279.999023438 c 0
 216.994140625 271.33203125 217.494140625 263.165039062 218.494140625 255.498046875 c 0
 219.494140625 247.831054688 221.494140625 239.1640625 224.494140625 229.497070312 c 0
 227.494140625 219.830078125 232.161132812 212.163085938 238.494140625 206.49609375 c 0
 244.827148438 200.829101562 252.66015625 197.99609375 261.993164062 197.99609375 c 0xbf80
 283.326171875 197.99609375 298.326171875 206.163085938 306.993164062 222.49609375 c 0
 315.66015625 238.829101562 320.66015625 265.99609375 321.993164062 303.99609375 c 0
 321.993164062 314.663085938 330.66015625 323.330078125 347.993164062 329.997070312 c 0
 358.80078125 334.2421875 368.602539062 336.365234375 377.3984375 336.365234375 c 0
 383.795898438 336.365234375 389.661132812 335.2421875 394.994140625 332.997070312 c 0
 403.661132812 329.6640625 407.328125 322.997070312 405.995117188 312.997070312 c 0
 403.328125 289.44140625 401.995117188 269.3671875 401.995117188 252.774414062 c 0
 401.995117188 244.478515625 402.328125 237.052734375 402.995117188 230.497070312 c 0
 404.995117188 210.830078125 408.328125 197.497070312 412.995117188 190.497070312 c 0
 417.662109375 183.497070312 424.329101562 179.997070312 432.99609375 179.997070312 c 0
 438.329101562 179.997070312 442.99609375 184.330078125 446.99609375 192.997070312 c 0
 450.99609375 201.6640625 453.829101562 212.997070312 455.49609375 226.997070312 c 0
 457.163085938 240.997070312 458.330078125 253.330078125 458.997070312 263.997070312 c 0
 459.6640625 274.6640625 459.997070312 284.997070312 459.997070312 294.997070312 c 0
 459.997070312 328.997070312 458.497070312 360.330078125 455.497070312 388.997070312 c 0
 452.497070312 417.6640625 448.830078125 442.1640625 444.497070312 462.497070312 c 0
 440.1640625 482.830078125 434.331054688 501.163085938 426.998046875 517.49609375 c 0
 419.665039062 533.829101562 412.665039062 547.162109375 405.998046875 557.495117188 c 0
 399.331054688 567.828125 391.331054688 576.661132812 381.998046875 583.994140625 c 0
 372.665039062 591.327148438 364.498046875 596.827148438 357.498046875 600.494140625 c 0
 350.498046875 604.161132812 342.498046875 606.994140625 333.498046875 608.994140625 c 0
 324.498046875 610.994140625 317.665039062 612.161132812 312.998046875 612.494140625 c 0
 308.331054688 612.827148438 302.6640625 612.994140625 295.997070312 612.994140625 c 0
 269.330078125 612.994140625 244.497070312 604.661132812 221.497070312 587.994140625 c 0
 198.497070312 571.327148438 178.1640625 548.16015625 160.497070312 518.493164062 c 0
 142.830078125 488.826171875 128.997070312 451.993164062 118.997070312 407.993164062 c 0
 108.997070312 363.993164062 103.997070312 315.993164062 103.997070312 263.993164062 c 0
 103.997070312 218.66015625 107.330078125 177.827148438 113.997070312 141.494140625 c 0
 120.6640625 105.161132812 129.6640625 75.828125 140.997070312 53.4951171875 c 0
 152.330078125 31.162109375 165.497070312 12.3291015625 180.497070312 -3.00390625 c 0
 195.497070312 -18.3369140625 210.497070312 -29.00390625 225.497070312 -35.00390625 c 0
 240.497070312 -41.00390625 255.997070312 -44.00390625 271.997070312 -44.00390625 c 0
 289.330078125 -44.00390625 305.330078125 -42.3369140625 319.997070312 -39.00390625 c 0
 334.6640625 -35.6708984375 346.831054688 -31.6708984375 356.498046875 -27.00390625 c 0
 366.165039062 -22.3369140625 375.33203125 -16.00390625 383.999023438 -8.00390625 c 0
 392.666015625 -0.00390625 399.333007812 7.3291015625 404 13.99609375 c 0
 408.666992188 20.6630859375 414 29.330078125 420 39.9970703125 c 0
 422.666992188 44.6640625 425 48.3310546875 427 50.998046875 c 0
 429 53.6650390625 431.333007812 56.83203125 434 60.4990234375 c 0
 436.666992188 64.166015625 439 66.8330078125 441 68.5 c 0
 443 70.1669921875 445.5 71.6669921875 448.5 73 c 0
 451.5 74.3330078125 454.5 75 457.5 75 c 0
 460.5 75 463.666992188 74.3330078125 467 73 c 0
 472.333007812 71 476.833007812 68.5 480.5 65.5 c 0
 484.166992188 62.5 487 58.5 489 53.5 c 0
 491 48.5 491.333007812 41.8330078125 490 33.5 c 0
 488.666992188 25.1669921875 486 15.6669921875 482 5 c 0xdf80
EndSplineSet
Validated: 524289
EndChar

StartChar: A
Encoding: 65 65 33
Width: 550
GlyphClass: 2
Flags: HMW
HStem: -5.55122 21G 251 81.0059
VStem: 8.4769 90.5231
LayerCount: 2
Fore
SplineSet
99 41 m 2
 92.3330078125 20.3330078125 83 6.6708984375 71 0.00390625 c 0
 64.3330078125 -3.7001953125 57.5634765625 -5.5517578125 50.6904296875 -5.5517578125 c 0
 45.1923828125 -5.5517578125 39.62890625 -4.3671875 33.9990234375 -1.9970703125 c 0
 16.9853515625 5.78125 8.478515625 21.3564453125 8.478515625 44.7294921875 c 0
 8.478515625 53.4111328125 9.65234375 63.1689453125 12 74.0029296875 c 0
 16 95.3359375 35.3330078125 147.3359375 70 230.002929688 c 1
 58 238.002929688 52 247.669921875 52 259.002929688 c 0
 51.3330078125 268.3359375 55.5 277.168945312 64.5 285.501953125 c 0
 73.5 293.834960938 85.3330078125 300.334960938 100 305.001953125 c 1
 182 495.668945312 245 623.001953125 289 687.001953125 c 0
 299 700.334960938 307.833007812 710.001953125 315.5 716.001953125 c 0
 323.166992188 722.001953125 331.666992188 725.001953125 341 725.001953125 c 0
 343.302734375 725.244140625 345.567382812 725.365234375 347.79296875 725.365234375 c 0
 357.809570312 725.365234375 367.044921875 722.911132812 375.499023438 718.001953125 c 0
 385.83203125 712.001953125 391.999023438 701.668945312 393.999023438 687.001953125 c 0
 407.999023438 604.334960938 431.499023438 487.16796875 464.499023438 335.500976562 c 0
 497.499023438 183.833984375 520.33203125 96.6669921875 532.999023438 74 c 0
 538.5546875 63.443359375 541.333007812 53.697265625 541.333007812 44.76171875 c 0
 541.333007812 42.9755859375 541.221679688 41.2216796875 541 39.5 c 0
 539.666992188 29.1669921875 536.333984375 20.5 531.000976562 13.5 c 0
 525.66796875 6.5 519.334960938 1.3330078125 512.001953125 -2 c 0
 506.2109375 -4.4375 500.419921875 -5.65625 494.62890625 -5.65625 c 2
 474 -0.4990234375 l 2
 461.333007812 5.833984375 451 19.6669921875 443 41 c 0
 434.333007812 61.6669921875 417.666015625 131.666992188 392.999023438 251 c 1
 307.666015625 247.666992188 231.333007812 240.666992188 164 230 c 1
 99 41 l 2
321 602.004882812 m 1
 291.666992188 557.337890625 250 462.671875 196 318.004882812 c 1
 264 326.004882812 324.333007812 330.671875 377 332.004882812 c 1
 321 602.004882812 l 1
EndSplineSet
Validated: 524289
EndChar

StartChar: B
Encoding: 66 66 34
Width: 550
GlyphClass: 2
Flags: HMW
HStem: -22.9961 21G 297.004 72 630.004 78.999
VStem: 33 96.4978 386.997 90.0384 420.998 98.001
LayerCount: 2
Fore
SplineSet
224 -14 m 0xf4
 212.666992188 -14.6669921875 199.998046875 -15.6640625 185.998046875 -16.9970703125 c 0
 171.998046875 -18.330078125 160.665039062 -19.330078125 151.998046875 -19.9970703125 c 2
 125.998046875 -21.9970703125 l 2
 117.331054688 -22.6640625 109.498046875 -22.9970703125 102.498046875 -22.9970703125 c 0
 95.498046875 -22.9970703125 88.998046875 -22.330078125 82.998046875 -20.9970703125 c 2
 78.998046875 -20.9970703125 l 2
 65.6650390625 -20.9970703125 54.83203125 -16.4970703125 46.4990234375 -7.4970703125 c 0
 38.783203125 0.8359375 34.92578125 12.1689453125 34.92578125 26.5029296875 c 0
 34.92578125 33.943359375 37.25 48.533203125 37.25 135.748046875 c 0
 37.25 152.249023438 37.1669921875 170.333984375 37 190.002929688 c 0
 36.3330078125 268.669921875 35 349.669921875 33 433.002929688 c 0
 31.6669921875 477.669921875 31 507.669921875 31 523.002929688 c 0
 31 538.3359375 31.5 559.002929688 32.5 585.002929688 c 0
 33.5 611.002929688 34 629.002929688 34 639.002929688 c 0
 34.6669921875 657.002929688 39.5 670.502929688 48.5 679.502929688 c 0
 57.5 688.502929688 69 693.002929688 83 693.002929688 c 2
 88 693.002929688 l 2
 98.6669921875 696.3359375 109.666992188 699.168945312 121 701.501953125 c 0
 132.333007812 703.834960938 142.833007812 705.501953125 152.5 706.501953125 c 0
 162.166992188 707.501953125 172.666992188 708.168945312 184 708.501953125 c 0
 195.333007812 708.834960938 204.166015625 709.001953125 210.499023438 709.001953125 c 2
 230.999023438 709.001953125 l 1
 241.999023438 709.001953125 l 2
 287.33203125 709.001953125 327.499023438 700.668945312 362.499023438 684.001953125 c 0
 397.499023438 667.334960938 425.166015625 643.16796875 445.499023438 611.500976562 c 0
 467.920898438 576.581054688 477.03515625 537.415039062 477.03515625 496.803710938 c 0xf8
 477.03515625 459.928710938 468.5234375 428.161132812 451.499023438 401.500976562 c 0
 433.83203125 373.833984375 409.33203125 353.666992188 377.999023438 341 c 1
 400.666015625 333.666992188 422.499023438 322.833984375 443.499023438 308.500976562 c 0
 464.499023438 294.16796875 482.33203125 278.16796875 496.999023438 260.500976562 c 0
 511.666015625 242.833984375 518.999023438 226.333984375 518.999023438 211.000976562 c 0
 518.999023438 185.66796875 512.666015625 160.500976562 499.999023438 135.500976562 c 0
 487.33203125 110.500976562 468.83203125 87.66796875 444.499023438 67.0009765625 c 0
 420.166015625 46.333984375 388.833007812 28.6669921875 350.5 14 c 0
 312.166992188 -0.6669921875 270 -10 224 -14 c 0xf4
239.998046875 630.002929688 m 0
 203.998046875 630.002929688 168.998046875 625.668945312 134.998046875 617.001953125 c 1
 134.998046875 604.334960938 134.331054688 584.001953125 132.998046875 556.001953125 c 0
 131.665039062 528.001953125 130.665039062 498.334960938 129.998046875 467.001953125 c 0
 129.6640625 451.3359375 129.497070312 435.502929688 129.497070312 419.502929688 c 0
 129.497070312 403.502929688 129.6640625 387.3359375 129.998046875 371.002929688 c 1
 161.331054688 369.669921875 190.998046875 369.002929688 218.998046875 369.002929688 c 0
 238.998046875 369.002929688 257.331054688 370.669921875 273.998046875 374.002929688 c 0
 290.665039062 377.3359375 304.498046875 381.668945312 315.498046875 387.001953125 c 0
 326.498046875 392.334960938 336.498046875 398.834960938 345.498046875 406.501953125 c 0
 354.498046875 414.168945312 361.331054688 422.001953125 365.998046875 430.001953125 c 0
 370.665039062 438.001953125 374.665039062 446.834960938 377.998046875 456.501953125 c 0
 381.331054688 466.168945312 383.6640625 474.8359375 384.997070312 482.502929688 c 0
 386.330078125 490.169921875 386.997070312 498.336914062 386.997070312 507.00390625 c 0
 386.997070312 524.336914062 383.497070312 540.336914062 376.497070312 555.00390625 c 0
 369.497070312 569.670898438 360.830078125 581.50390625 350.497070312 590.50390625 c 0
 340.1640625 599.50390625 328.331054688 607.170898438 314.998046875 613.50390625 c 0
 301.665039062 619.836914062 288.665039062 624.169921875 275.998046875 626.502929688 c 0
 263.331054688 628.8359375 251.331054688 630.002929688 239.998046875 630.002929688 c 0
225.998046875 297.001953125 m 1
 177.331054688 297.001953125 145.998046875 296.66796875 131.998046875 296.000976562 c 1
 134.665039062 188.66796875 136.665039062 112.334960938 137.998046875 67.001953125 c 1
 145.331054688 67.001953125 157.498046875 67.3349609375 174.498046875 68.001953125 c 0
 191.498046875 68.6689453125 204.331054688 69.001953125 212.998046875 69.001953125 c 0
 243.665039062 70.3349609375 272.498046875 75.66796875 299.498046875 85.0009765625 c 0
 326.498046875 94.333984375 348.331054688 105.500976562 364.998046875 118.500976562 c 0
 381.665039062 131.500976562 395.165039062 145.16796875 405.498046875 159.500976562 c 0
 415.831054688 173.833984375 420.998046875 187.000976562 420.998046875 199.000976562 c 0xf4
 420.998046875 207.66796875 417.331054688 216.334960938 409.998046875 225.001953125 c 0
 402.665039062 233.668945312 391.498046875 242.668945312 376.498046875 252.001953125 c 0
 361.498046875 261.334960938 340.998046875 270.001953125 314.998046875 278.001953125 c 0
 288.998046875 286.001953125 259.331054688 292.334960938 225.998046875 297.001953125 c 1
EndSplineSet
Validated: 524289
EndChar

StartChar: C
Encoding: 67 67 35
Width: 550
GlyphClass: 2
Flags: HMW
HStem: -31.0911 90.092 518.417 222.246 632.001 80.9961
VStem: 17.0039 100.998 430.005 103.001
LayerCount: 2
Fore
SplineSet
505 64 m 0xb8
 450.015625 0.607421875 365.850585938 -31.091796875 252.495117188 -31.091796875 c 0
 249.025390625 -31.091796875 245.528320312 -31.0625 242.00390625 -31.0029296875 c 0
 214.670898438 -31.0029296875 188.670898438 -26.3359375 164.00390625 -17.0029296875 c 0
 139.336914062 -7.669921875 118.50390625 4.6630859375 101.50390625 19.99609375 c 0
 84.50390625 35.3291015625 69.3369140625 53.162109375 56.00390625 73.4951171875 c 0
 42.6708984375 93.828125 32.837890625 115.495117188 26.5048828125 138.495117188 c 0
 20.171875 161.495117188 17.0048828125 184.662109375 17.0048828125 207.995117188 c 0
 17.0048828125 256.662109375 22.0048828125 303.662109375 32.0048828125 348.995117188 c 0
 42.0048828125 394.328125 55.5048828125 435.328125 72.5048828125 471.995117188 c 0
 89.5048828125 508.662109375 109.337890625 542.329101562 132.004882812 572.99609375 c 0
 154.671875 603.663085938 178.838867188 629.163085938 204.505859375 649.49609375 c 0
 230.172851562 669.829101562 256.505859375 685.49609375 283.505859375 696.49609375 c 0
 310.505859375 707.49609375 336.338867188 712.99609375 361.005859375 712.99609375 c 0xb8
 385.672851562 712.99609375 408.33984375 710.329101562 429.006835938 704.99609375 c 1
 431.673828125 714.99609375 436.673828125 723.163085938 444.006835938 729.49609375 c 0
 451.33984375 735.829101562 460.006835938 739.329101562 470.006835938 739.99609375 c 0
 472.376953125 740.440429688 474.755859375 740.663085938 477.142578125 740.663085938 c 0
 485.49609375 740.663085938 493.950195312 737.940429688 502.505859375 732.49609375 c 0
 513.505859375 725.49609375 520.338867188 715.329101562 523.005859375 701.99609375 c 0
 525.005859375 691.99609375 527.005859375 682.163085938 529.005859375 672.49609375 c 0
 531.005859375 662.829101562 532.172851562 653.329101562 532.505859375 643.99609375 c 0
 532.838867188 634.663085938 533.005859375 626.99609375 533.005859375 620.99609375 c 2
 533.005859375 599.99609375 l 1
 533.005859375 584.99609375 l 2
 533.005859375 570.99609375 527.672851562 556.829101562 517.005859375 542.49609375 c 0
 506.338867188 528.163085938 495.671875 520.330078125 485.004882812 518.997070312 c 0
 482.682617188 518.610351562 480.353515625 518.416992188 478.018554688 518.416992188 c 0xd8
 468.2890625 518.416992188 458.451171875 521.77734375 448.504882812 528.498046875 c 0
 436.171875 536.831054688 430.004882812 547.998046875 430.004882812 561.998046875 c 0
 430.004882812 567.331054688 430.337890625 581.331054688 431.004882812 603.998046875 c 0
 430.337890625 604.665039062 427.170898438 606.83203125 421.50390625 610.499023438 c 0
 415.836914062 614.166015625 411.836914062 616.833007812 409.50390625 618.5 c 0
 407.170898438 620.166992188 403.337890625 622.333984375 398.004882812 625.000976562 c 0
 392.671875 627.66796875 387.504882812 629.500976562 382.504882812 630.500976562 c 0
 377.504882812 631.500976562 372.671875 632.000976562 368.004882812 632.000976562 c 0
 347.337890625 632.000976562 325.170898438 625.333984375 301.50390625 612.000976562 c 0
 277.836914062 598.66796875 255.169921875 579.66796875 233.502929688 555.000976562 c 0
 211.8359375 530.333984375 192.168945312 502.000976562 174.501953125 470.000976562 c 0
 156.834960938 438.000976562 143.001953125 401.833984375 133.001953125 361.500976562 c 0
 123.001953125 321.16796875 118.001953125 280.66796875 118.001953125 240.000976562 c 0
 118.001953125 210.66796875 123.668945312 182.000976562 135.001953125 154.000976562 c 0
 146.334960938 126.000976562 162.501953125 103.16796875 183.501953125 85.5009765625 c 0
 204.501953125 67.833984375 227.334960938 59.0009765625 252.001953125 59.0009765625 c 0
 273.334960938 59.0009765625 294.501953125 61.16796875 315.501953125 65.5009765625 c 0
 336.501953125 69.833984375 355.001953125 75.5009765625 371.001953125 82.5009765625 c 0
 387.001953125 89.5009765625 400.834960938 96.5009765625 412.501953125 103.500976562 c 0
 424.168945312 110.500976562 435.001953125 118.000976562 445.001953125 126.000976562 c 0
 453.668945312 132.000976562 461.168945312 136.66796875 467.501953125 140.000976562 c 0
 473.834960938 143.333984375 480.66796875 145.000976562 488.000976562 145.000976562 c 0
 495.333984375 145.000976562 502.666992188 142.66796875 510 138.000976562 c 0
 521.220703125 129.2734375 526.831054688 119.234375 526.831054688 107.883789062 c 0
 526.831054688 94.95703125 519.553710938 80.3291015625 505 64 c 0xb8
EndSplineSet
Validated: 524289
EndChar

StartChar: D
Encoding: 68 68 36
Width: 550
GlyphClass: 2
Flags: HMW
HStem: -31 85.998 694.001 20G
VStem: 15.3732 98.6278 19.999 102.002 439.001 95.9971
LayerCount: 2
Fore
SplineSet
115.000976562 348 m 0xe8
 115.66796875 319.333007812 116.831054688 276.1640625 118.498046875 218.497070312 c 0
 120.165039062 160.830078125 121.333984375 117.330078125 122.000976562 87.9970703125 c 1
 149.333984375 75.9970703125 177.999023438 67.4970703125 207.999023438 62.4970703125 c 0
 237.999023438 57.4970703125 271.999023438 54.9970703125 309.999023438 54.9970703125 c 0
 328.666015625 54.9970703125 346.333007812 61.1640625 363 73.4970703125 c 0
 379.666992188 85.830078125 393.333984375 101.830078125 404.000976562 121.497070312 c 0
 414.66796875 141.1640625 423.16796875 162.831054688 429.500976562 186.498046875 c 0
 435.833984375 210.165039062 439.000976562 233.33203125 439.000976562 255.999023438 c 0
 439.000976562 381.33203125 387.66796875 476.999023438 285.000976562 542.999023438 c 0
 248.333984375 566.33203125 196.000976562 590.33203125 128.000976562 614.999023438 c 1
 127.000976562 615.999023438 l 1
 126.000976562 615.999023438 l 1
 125.000976562 615.999023438 l 1
 124.000976562 616.999023438 l 1
 123.000976562 616.999023438 l 1
 122.000976562 616.999023438 l 1
 122.000976562 617.999023438 l 1xd8
 121.000976562 617.999023438 l 1
 120.000976562 617.999023438 l 1
 119.000976562 618.999023438 l 1
 118.000976562 618.999023438 l 1
 117.000976562 618.999023438 l 1
 116.000976562 619.999023438 l 1
 115.000976562 619.999023438 l 1
 114.000976562 619.999023438 l 1
 114.000976562 620.999023438 l 1
 113.143554688 583.854492188 112.71484375 545.9140625 112.71484375 507.177734375 c 0
 112.71484375 455.533203125 113.4765625 402.473632812 115.000976562 348 c 0xe8
311 -31.0009765625 m 0
 277.666992188 -31.0009765625 245.16796875 -29.5 213.500976562 -26.5 c 0
 181.833984375 -23.5 156.666992188 -20 138 -16 c 0
 119.333007812 -12 103 -8.3330078125 89 -5 c 0
 75 -1.6669921875 66.6669921875 0 64 0 c 0
 50.6669921875 0 39.6669921875 4.5 31 13.5 c 0
 23.48828125 21.2998046875 19.732421875 31.7294921875 19.732421875 44.7880859375 c 0
 19.732421875 46.796875 19.8212890625 48.8671875 19.9990234375 51 c 0xd8
 21.4990234375 74.9990234375 22.2490234375 112.965820312 22.2490234375 164.901367188 c 0
 22.2490234375 182.21484375 22.166015625 201.081054688 21.9990234375 221.5 c 0
 21.33203125 303.166992188 19.6650390625 391.666992188 16.998046875 487 c 0
 16.3310546875 524.333007812 15.8310546875 548.833007812 15.498046875 560.5 c 0
 15.4150390625 563.416015625 15.373046875 566.73828125 15.373046875 570.466796875 c 0xe8
 15.373046875 581.654296875 15.748046875 596.498046875 16.498046875 614.999023438 c 0
 17.498046875 639.666015625 17.998046875 654.666992188 17.998046875 660 c 0
 18.6650390625 678 23.6650390625 691.5 32.998046875 700.5 c 0
 42.3310546875 709.5 53.998046875 714 67.998046875 714 c 0
 76.6650390625 714 87.6650390625 713.333007812 100.998046875 712 c 0
 114.331054688 710.666992188 131.498046875 708 152.498046875 704 c 0
 173.498046875 700 194.998046875 694.5 216.998046875 687.5 c 0
 238.998046875 680.5 262.831054688 670.666992188 288.498046875 658 c 0
 314.165039062 645.333007812 338.498046875 630.666015625 361.498046875 613.999023438 c 0
 384.498046875 597.33203125 406.665039062 576.499023438 427.998046875 551.499023438 c 0
 449.331054688 526.499023438 467.831054688 499.166015625 483.498046875 469.499023438 c 0
 499.165039062 439.83203125 511.665039062 404.499023438 520.998046875 363.499023438 c 0
 530.331054688 322.499023438 534.998046875 278.33203125 534.998046875 230.999023438 c 0
 534.998046875 207.666015625 531.831054688 183.999023438 525.498046875 159.999023438 c 0
 519.165039062 135.999023438 509.498046875 112.499023438 496.498046875 89.4990234375 c 0
 483.498046875 66.4990234375 468.331054688 45.9990234375 450.998046875 27.9990234375 c 0
 433.665039062 9.9990234375 412.83203125 -4.333984375 388.499023438 -15.0009765625 c 0
 364.166015625 -25.66796875 338.333007812 -31.0009765625 311 -31.0009765625 c 0
EndSplineSet
Validated: 524289
EndChar

StartChar: E
Encoding: 69 69 37
Width: 550
GlyphClass: 2
Flags: HMW
HStem: -17.498 85.4132 -6.2352 90.7323 312.001 85.999 332.001 80.999 615.159 82.8417
VStem: 28.005 97.4971
LayerCount: 2
Fore
SplineSet
471 -6 m 0x4c
 468.815429688 -5.87890625 466.068359375 -5.818359375 462.7578125 -5.818359375 c 0
 447.880859375 -5.818359375 421.630859375 -7.044921875 384.002929688 -9.4990234375 c 0
 338.002929688 -12.4990234375 287.502929688 -15.166015625 232.502929688 -17.4990234375 c 0
 202.88671875 -18.7548828125 176.701171875 -19.3828125 153.947265625 -19.3828125 c 0
 134.4453125 -19.3828125 117.463867188 -18.9208984375 103.002929688 -17.998046875 c 0
 87.669921875 -17.3310546875 72.3369140625 -9.8310546875 57.00390625 4.501953125 c 0
 41.6708984375 18.8349609375 32.6708984375 36.3349609375 30.00390625 57.001953125 c 0
 28.00390625 74.3349609375 27.00390625 105.501953125 27.00390625 150.501953125 c 0
 27.00390625 195.501953125 27.3369140625 243.334960938 28.00390625 294.001953125 c 0
 28.2265625 310.899414062 28.337890625 328.500976562 28.337890625 346.806640625 c 0
 28.337890625 383.391601562 27.8935546875 422.790039062 27.0048828125 465.001953125 c 0
 26.337890625 505.001953125 25.837890625 531.501953125 25.5048828125 544.501953125 c 0
 25.421875 547.750976562 25.3798828125 551.385742188 25.3798828125 555.405273438 c 0
 25.3798828125 567.467773438 25.7548828125 583 26.5048828125 602.000976562 c 0
 27.5048828125 627.333984375 28.0048828125 643.000976562 28.0048828125 649.000976562 c 0
 28.671875 667.000976562 33.671875 680.66796875 43.0048828125 690.000976562 c 0
 52.337890625 699.333984375 64.0048828125 704.000976562 78.0048828125 704.000976562 c 0
 78.91796875 704.036132812 79.8193359375 704.053710938 80.7099609375 704.053710938 c 0
 96.7314453125 704.053710938 109.163085938 698.369140625 118.004882812 687.000976562 c 1
 156.004882812 692.333984375 200.504882812 695.666992188 251.504882812 697 c 0
 277.004882812 697.666015625 301.046875 697.999023438 323.629882812 697.999023438 c 0
 346.212890625 697.999023438 367.337890625 697.666015625 387.00390625 697 c 0
 426.336914062 695.666992188 457.669921875 693.666992188 481.002929688 691 c 0
 497.002929688 689 508.002929688 685 514.002929688 679 c 0
 520.002929688 673 523.3359375 664.666992188 524.002929688 654 c 0
 524.002929688 648 523.3359375 642.333007812 522.002929688 637 c 0
 520.669921875 631.666992188 518.502929688 626.833984375 515.502929688 622.500976562 c 0
 512.502929688 618.16796875 508.002929688 614.66796875 502.002929688 612.000976562 c 0
 496.002929688 609.333984375 489.002929688 608.666992188 481.002929688 610 c 0
 434.829101562 613.438476562 388.383789062 615.158203125 341.666992188 615.158203125 c 0
 324.98046875 615.158203125 308.258789062 614.938476562 291.502929688 614.5 c 0
 227.8359375 612.833007812 173.3359375 608.666015625 128.002929688 601.999023438 c 1
 125.3359375 532.666015625 124.002929688 464.666015625 124.002929688 397.999023438 c 1xac
 172.669921875 397.999023438 239.002929688 400.499023438 323.002929688 405.499023438 c 0
 407.002929688 410.499023438 454.3359375 412.999023438 465.002929688 412.999023438 c 0
 480.3359375 412.999023438 491.168945312 409.666015625 497.501953125 402.999023438 c 0
 503.834960938 396.33203125 507.001953125 386.999023438 507.001953125 374.999023438 c 0
 507.001953125 346.318359375 493.6171875 331.977539062 466.848632812 331.977539062 c 0
 466.240234375 331.977539062 465.625 331.985351562 465.002929688 332 c 0x1c
 453.002929688 332 401.502929688 328.666992188 310.502929688 322 c 0
 219.502929688 315.333007812 157.669921875 312 125.002929688 312 c 1
 125.002929688 297.333007812 125.169921875 278.166015625 125.502929688 254.499023438 c 0
 125.8359375 230.83203125 126.168945312 210.499023438 126.501953125 193.499023438 c 0
 126.834960938 176.499023438 127.16796875 158.999023438 127.500976562 140.999023438 c 0
 127.833984375 122.999023438 128.500976562 108.166015625 129.500976562 96.4990234375 c 0
 130.500976562 84.83203125 132.000976562 76.6650390625 134.000976562 71.998046875 c 0
 144.112304688 69.275390625 166.079101562 67.9140625 199.900390625 67.9140625 c 0xac
 224.0546875 67.9140625 254.254882812 68.6083984375 290.500976562 69.9970703125 c 0
 377.500976562 73.330078125 433.333984375 77.6630859375 458.000976562 82.99609375 c 0
 467.333984375 84.3291015625 475.333984375 84.8291015625 482.000976562 84.49609375 c 0
 488.66796875 84.1630859375 494.500976562 82.830078125 499.500976562 80.4970703125 c 0
 504.500976562 78.1640625 508.500976562 75.6640625 511.500976562 72.9970703125 c 0
 514.500976562 70.330078125 516.833984375 66.830078125 518.500976562 62.4970703125 c 0
 520.16796875 58.1640625 521.500976562 54.3310546875 522.500976562 50.998046875 c 0
 523.500976562 47.6650390625 524.000976562 44.33203125 524.000976562 40.9990234375 c 0
 524.000976562 28.33203125 519.500976562 16.9990234375 510.500976562 6.9990234375 c 0
 502.559570312 -1.82421875 491.374023438 -6.2353515625 476.944335938 -6.2353515625 c 0
 475.020507812 -6.2353515625 473.0390625 -6.1572265625 471 -6 c 0x4c
EndSplineSet
Validated: 524289
EndChar

StartChar: F
Encoding: 70 70 38
Width: 550
GlyphClass: 2
Flags: HMW
HStem: -21.0722 21G 322.534 84.6107 621.784 84.7164 694.192 20G
VStem: 29.738 103.262 32.255 93.745
LayerCount: 2
Fore
SplineSet
133 24 m 0xe8
 131.666992188 10 125.172851562 -1.166015625 113.505859375 -9.4990234375 c 0
 102.703125 -17.21484375 90.615234375 -21.072265625 77.2412109375 -21.072265625 c 0
 76.1708984375 -21.072265625 75.091796875 -21.0478515625 74.0048828125 -20.998046875 c 0
 60.671875 -20.998046875 49.671875 -16.498046875 41.0048828125 -7.498046875 c 0
 33.4931640625 0.302734375 29.7373046875 10.732421875 29.7373046875 23.791015625 c 0xe8
 29.7373046875 25.7998046875 29.826171875 27.8701171875 30.00390625 30.0029296875 c 0
 31.50390625 52.001953125 32.25390625 89.09375 32.25390625 141.279296875 c 0
 32.25390625 158.676757812 32.1708984375 177.750976562 32.00390625 198.502929688 c 0
 31.3369140625 281.502929688 29.669921875 367.002929688 27.0029296875 455.002929688 c 0
 25.669921875 499.669921875 25.0029296875 529.669921875 25.0029296875 545.002929688 c 0
 25.0029296875 560.3359375 25.5029296875 581.002929688 26.5029296875 607.002929688 c 0
 27.5029296875 633.002929688 28.0029296875 650.669921875 28.0029296875 660.002929688 c 0
 28.669921875 678.002929688 33.669921875 691.502929688 43.0029296875 700.502929688 c 0
 52.3359375 709.502929688 64.0029296875 714.002929688 78.0029296875 714.002929688 c 0
 79.716796875 714.129882812 81.3916015625 714.193359375 83.02734375 714.193359375 c 0xd4
 98.56640625 714.193359375 110.55859375 708.462890625 119.002929688 697.001953125 c 1
 184.3359375 701.668945312 250.502929688 704.668945312 317.502929688 706.001953125 c 0
 334.251953125 706.334960938 350.241210938 706.501953125 365.469726562 706.501953125 c 0
 411.158203125 706.501953125 450.002929688 705.001953125 482.00390625 702.001953125 c 0
 497.336914062 700.668945312 508.169921875 696.8359375 514.502929688 690.502929688 c 0
 520.8359375 684.169921875 524.002929688 675.336914062 524.002929688 664.00390625 c 0
 524.002929688 651.336914062 520.3359375 640.669921875 513.002929688 632.002929688 c 0
 505.669921875 623.3359375 494.002929688 619.002929688 478.002929688 619.002929688 c 0
 440.669921875 620.857421875 402.20703125 621.78515625 362.615234375 621.78515625 c 0
 288.380859375 621.78515625 210.176757812 618.524414062 128.002929688 612.002929688 c 1
 128.002929688 600.669921875 127.669921875 582.502929688 127.002929688 557.502929688 c 0
 126.3359375 532.502929688 125.668945312 507.002929688 125.001953125 481.002929688 c 0
 124.66796875 468.002929688 124.500976562 454.919921875 124.500976562 441.752929688 c 0
 124.500976562 428.5859375 124.66796875 415.3359375 125.001953125 402.001953125 c 1
 155.286132812 405.430664062 188.508789062 407.145507812 224.669921875 407.145507812 c 0
 230.698242188 407.145507812 236.80859375 407.09765625 243.000976562 407.001953125 c 0
 286.333984375 406.334960938 325.666992188 404.501953125 361 401.501953125 c 0
 396.333007812 398.501953125 424 395.334960938 444 392.001953125 c 0
 460 389.334960938 471 385.001953125 477 379.001953125 c 0
 483 373.001953125 486.333007812 364.668945312 487 354.001953125 c 0
 487 348.001953125 486.5 342.501953125 485.5 337.501953125 c 0
 484.5 332.501953125 482.666992188 327.668945312 480 323.001953125 c 0
 477.333007812 318.334960938 473 314.834960938 467 312.501953125 c 0
 461 310.168945312 453.333007812 309.3359375 444 310.002929688 c 0
 423.333007812 313.3359375 395 316.168945312 359 318.501953125 c 0
 323 320.834960938 282.5 322.16796875 237.5 322.500976562 c 0
 234.502929688 322.5234375 231.541015625 322.534179688 228.61328125 322.534179688 c 0
 187.583984375 322.534179688 153.37890625 320.356445312 126 316 c 1xe4
 130 139.333007812 132.333007812 42 133 24 c 0xe8
EndSplineSet
Validated: 524289
EndChar

StartChar: G
Encoding: 71 71 39
Width: 550
GlyphClass: 2
Flags: HMW
HStem: -31.0616 90.0616 278 81.8571 643.002 80.999
VStem: 15.9951 100.001
LayerCount: 2
Fore
SplineSet
504 244 m 0
 502.666992188 230 498.4921875 213.669921875 491.4921875 195.002929688 c 0
 484.4921875 176.3359375 475.825195312 156.502929688 465.4921875 135.502929688 c 0
 455.159179688 114.502929688 441.826171875 94.169921875 425.493164062 74.5029296875 c 0
 409.16015625 54.8359375 391.993164062 37.0029296875 373.993164062 21.0029296875 c 0
 355.993164062 5.0029296875 334.993164062 -7.830078125 310.993164062 -17.4970703125 c 0
 288.541992188 -26.5400390625 266.3828125 -31.0615234375 244.515625 -31.0615234375 c 0
 243.006835938 -31.0615234375 241.499023438 -31.0400390625 239.993164062 -30.9970703125 c 0
 212.66015625 -30.9970703125 186.827148438 -26.330078125 162.494140625 -16.9970703125 c 0
 138.161132812 -7.6640625 117.328125 4.6689453125 99.9951171875 20.001953125 c 0
 82.662109375 35.3349609375 67.4951171875 53.16796875 54.4951171875 73.5009765625 c 0
 41.4951171875 93.833984375 31.828125 115.500976562 25.4951171875 138.500976562 c 0
 19.162109375 161.500976562 15.9951171875 184.66796875 15.9951171875 208.000976562 c 0
 15.9951171875 257.333984375 20.828125 305.333984375 30.4951171875 352.000976562 c 0
 40.162109375 398.66796875 53.662109375 440.66796875 70.9951171875 478.000976562 c 0
 88.328125 515.333984375 108.328125 549.500976562 130.995117188 580.500976562 c 0
 153.662109375 611.500976562 177.829101562 637.500976562 203.49609375 658.500976562 c 0
 229.163085938 679.500976562 255.330078125 695.66796875 281.997070312 707.000976562 c 0
 308.6640625 718.333984375 334.331054688 724.000976562 358.998046875 724.000976562 c 0
 386.998046875 724.000976562 418.165039062 717.500976562 452.498046875 704.500976562 c 0
 486.831054688 691.500976562 509.331054688 680.333984375 519.998046875 671.000976562 c 0
 529.776367188 661.22265625 534.665039062 649.518554688 534.665039062 635.888671875 c 0
 534.665039062 629.07421875 533.443359375 621.778320312 530.999023438 614.000976562 c 0
 528.33203125 605.333984375 521.999023438 599.000976562 511.999023438 595.000976562 c 0
 506.999023438 593.000976562 501.83203125 592.000976562 496.499023438 592.000976562 c 0
 491.166015625 592.000976562 485.666015625 593.000976562 480 595.000976562 c 0
 476 596.333984375 466.833007812 601.333984375 452.5 610.000976562 c 0
 438.166992188 618.66796875 423.5 626.334960938 408.5 633.001953125 c 0
 393.5 639.668945312 379.666992188 643.001953125 367 643.001953125 c 0
 346.333007812 643.001953125 324.166015625 636.168945312 300.499023438 622.501953125 c 0
 276.83203125 608.834960938 254.165039062 589.16796875 232.498046875 563.500976562 c 0
 210.831054688 537.833984375 191.1640625 508.666992188 173.497070312 476 c 0
 155.830078125 443.333007812 141.830078125 406.333007812 131.497070312 365 c 0
 121.1640625 323.666992188 115.997070312 282 115.997070312 240 c 0
 115.997070312 210.666992188 121.6640625 182 132.997070312 154 c 0
 144.330078125 126 160.497070312 103.166992188 181.497070312 85.5 c 0
 202.497070312 67.8330078125 225.6640625 59 250.997070312 59 c 0
 266.997070312 59 283.497070312 64.1669921875 300.497070312 74.5 c 0
 317.497070312 84.8330078125 332.6640625 98 345.997070312 114 c 0
 359.330078125 130 371.830078125 148 383.497070312 168 c 0
 395.1640625 188 405.1640625 207.333007812 413.497070312 226 c 0
 421.830078125 244.666992188 428.330078125 262 432.997070312 278 c 1
 390.997070312 276 349.830078125 272.333007812 309.497070312 267 c 0
 269.1640625 261.666992188 241.331054688 254.666992188 225.998046875 246 c 0
 220.629882812 243.158203125 215.374023438 241.737304688 210.23046875 241.737304688 c 0
 204.514648438 241.737304688 198.9375 243.491210938 193.499023438 247 c 0
 183.166015625 253.666992188 177.333007812 262.666992188 176 274 c 0
 175.509765625 277.1015625 175.264648438 280.118164062 175.264648438 283.05078125 c 0
 175.264648438 304.064453125 187.842773438 320.713867188 212.999023438 333 c 0
 231.666015625 342.333007812 272.499023438 349.5 335.499023438 354.5 c 0
 380.499023438 358.071289062 418.44140625 359.857421875 449.326171875 359.857421875 c 0
 461.6796875 359.857421875 472.904296875 359.571289062 482.999023438 359 c 0
 499.666015625 358.333007812 511.166015625 355.5 517.499023438 350.5 c 0
 523.83203125 345.5 528.33203125 337.666992188 530.999023438 327 c 0
 531.354492188 323.7109375 531.532226562 320.587890625 531.532226562 317.630859375 c 0
 531.532226562 298.41015625 524.021484375 286.200195312 509 281 c 0
 509 279 508.166992188 273.666992188 506.5 265 c 0
 504.833007812 256.333007812 504 249.333007812 504 244 c 0
EndSplineSet
Validated: 524289
EndChar

StartChar: H
Encoding: 72 72 40
Width: 550
GlyphClass: 2
Flags: HMW
HStem: -21.0741 21G 311.999 86.001 694.074 20G
VStem: 42.997 98.002 414.09 99.5773
LayerCount: 2
Fore
SplineSet
507 24 m 0
 505.666992188 10 499.166015625 -1.169921875 487.499023438 -9.5029296875 c 0
 476.696289062 -17.21875 464.89453125 -21.076171875 452.091796875 -21.076171875 c 0
 451.067382812 -21.076171875 450.036132812 -21.0517578125 448.999023438 -21.001953125 c 0
 435.666015625 -21.001953125 424.666015625 -16.501953125 415.999023438 -7.501953125 c 0
 408.487304688 0.2978515625 404.731445312 10.7275390625 404.731445312 23.7861328125 c 0
 404.731445312 25.794921875 404.8203125 27.865234375 404.998046875 29.998046875 c 0
 411.05859375 114.237304688 414.088867188 207.841796875 414.088867188 310.811523438 c 0
 414.088867188 321.11328125 414.05859375 331.508789062 413.998046875 341.998046875 c 1
 402.665039062 341.331054688 361.83203125 336.1640625 291.499023438 326.497070312 c 0
 221.166015625 316.830078125 170.999023438 311.997070312 140.999023438 311.997070312 c 1
 140.999023438 309.997070312 140.83203125 306.497070312 140.499023438 301.497070312 c 0
 140.166015625 296.497070312 139.999023438 292.997070312 139.999023438 290.997070312 c 0
 137.999023438 257.997070312 136.999023438 219.247070312 136.999023438 174.747070312 c 0
 136.999023438 130.247070312 137.999023438 79.9970703125 139.999023438 23.9970703125 c 0
 138.666015625 9.9970703125 131.999023438 -1.169921875 119.999023438 -9.5029296875 c 0
 108.888671875 -17.21875 96.9208984375 -21.076171875 84.095703125 -21.076171875 c 0
 83.0693359375 -21.076171875 82.037109375 -21.0517578125 81 -21.001953125 c 0
 67.6669921875 -21.001953125 56.6669921875 -16.501953125 48 -7.501953125 c 0
 40.48828125 0.298828125 36.732421875 10.728515625 36.732421875 23.787109375 c 0
 36.732421875 25.7958984375 36.8212890625 27.8662109375 36.9990234375 29.9990234375 c 0
 37.666015625 39.33203125 38.166015625 54.33203125 38.4990234375 74.9990234375 c 0
 38.83203125 95.666015625 38.9990234375 123.333007812 38.9990234375 158 c 0
 38.9990234375 192.666992188 39.33203125 224 39.9990234375 252 c 0
 39.9990234375 274.666992188 40.666015625 307.166992188 41.9990234375 349.5 c 0
 43.33203125 391.833007812 44.1650390625 423.166015625 44.498046875 443.499023438 c 0
 44.609375 450.270507812 44.6650390625 458.168945312 44.6650390625 467.1953125 c 0
 44.6650390625 485.2734375 44.4423828125 507.875 43.9970703125 535 c 0
 43.330078125 565 42.9970703125 584.166992188 42.9970703125 592.5 c 0
 42.9970703125 600.833007812 43.330078125 612.333007812 43.9970703125 627 c 0
 44.6640625 641.666992188 45.3310546875 652.666992188 45.998046875 660 c 0
 46.6650390625 678 51.498046875 691.5 60.498046875 700.5 c 0
 69.498046875 709.5 80.998046875 714 94.998046875 714 c 0
 96.0849609375 714.049804688 97.158203125 714.07421875 98.2177734375 714.07421875 c 0
 111.455078125 714.07421875 122.548828125 710.216796875 131.499023438 702.500976562 c 0
 141.166015625 694.16796875 145.999023438 681.000976562 145.999023438 663.000976562 c 0
 145.999023438 656.333984375 145.166015625 642.000976562 143.499023438 620.000976562 c 0
 141.83203125 598.000976562 140.999023438 577.66796875 140.999023438 559.000976562 c 0
 140.999023438 541.66796875 141.33203125 515.16796875 141.999023438 479.500976562 c 0
 142.666015625 443.833984375 142.999023438 416.666992188 142.999023438 398 c 1
 177.666015625 398 213.333007812 400 250 404 c 0
 286.666992188 408 320 412 350 416 c 0
 380 420 401 422.666992188 413 424 c 1
 413 428.666992188 412.666992188 435.5 412 444.5 c 0
 411.333007812 453.5 411 460.333007812 411 465 c 0
 410.333007812 506.333007812 410 533.666015625 410 546.999023438 c 0
 410 560.33203125 410.5 580.999023438 411.5 608.999023438 c 0
 412.5 636.999023438 413.333007812 653.999023438 414 659.999023438 c 0
 414 677.999023438 418.833007812 691.499023438 428.5 700.499023438 c 0
 438.166992188 709.499023438 449.666992188 713.999023438 463 713.999023438 c 0
 464.086914062 714.048828125 465.16015625 714.073242188 466.219726562 714.073242188 c 0
 479.45703125 714.073242188 490.55078125 710.215820312 499.500976562 702.5 c 0
 509.16796875 694.166992188 514.000976562 681 514.000976562 663 c 0
 514.000976562 650.333007812 513.66796875 624.333007812 513.000976562 585 c 0
 512.333984375 545.666992188 511.833984375 511.166992188 511.500976562 481.5 c 0
 511.434570312 475.5703125 511.401367188 469.114257812 511.401367188 462.131835938 c 0
 511.401367188 434.18359375 511.934570312 397.806640625 513.000976562 353 c 0
 513.4453125 337.448242188 513.666992188 320.267578125 513.666992188 301.458007812 c 0
 513.666992188 263.825195312 512.778320312 219.672851562 511 169 c 0
 508.333007812 93 507 44.6669921875 507 24 c 0
EndSplineSet
Validated: 524289
EndChar

StartChar: I
Encoding: 73 73 41
Width: 550
GlyphClass: 2
Flags: HMW
HStem: -13.998 80.001 -6.39919 77.8992 612.001 89.001 625.002 85.3327
VStem: 220.007 101.995 228.073 100.596
LayerCount: 2
Fore
SplineSet
483 -11 m 0x68
 465.666992188 -8.3330078125 437.177734375 -6.8310546875 397.510742188 -6.498046875 c 0
 389.58203125 -6.431640625 381.70703125 -6.3984375 373.884765625 -6.3984375 c 0x68
 342.573242188 -6.3984375 312.115234375 -6.931640625 282.510742188 -7.998046875 c 0
 245.510742188 -9.3310546875 205.84375 -10.6640625 163.510742188 -11.9970703125 c 0
 121.177734375 -13.330078125 91.677734375 -13.9970703125 75.0107421875 -13.9970703125 c 0
 57.677734375 -13.9970703125 45.0107421875 -10.6640625 37.0107421875 -3.9970703125 c 0
 25.2138671875 5.833984375 24.927734375 17.4921875 24.927734375 24.966796875 c 0
 24.927734375 35.6865234375 28.2880859375 44.865234375 35.009765625 52.50390625 c 0
 42.3427734375 60.8369140625 54.67578125 65.3369140625 72.0087890625 66.00390625 c 0
 100.008789062 67.3369140625 149.341796875 69.00390625 220.008789062 71.00390625 c 1x88
 225.385742188 154.600585938 228.07421875 241.782226562 228.07421875 332.547851562 c 0
 228.07421875 365.559570312 227.71875 399.044921875 227.0078125 433.004882812 c 0
 226.340820312 457.004882812 225.840820312 479.671875 225.5078125 501.004882812 c 0
 225.174804688 522.337890625 225.0078125 537.670898438 225.0078125 547.00390625 c 0
 225.0078125 556.336914062 225.674804688 570.836914062 227.0078125 590.50390625 c 0
 228.340820312 610.170898438 229.0078125 621.670898438 229.0078125 625.00390625 c 0
 198.673828125 625.669921875 171.33984375 626.002929688 147.005859375 626.002929688 c 0
 122.671875 626.002929688 101.337890625 625.669921875 83.0048828125 625.002929688 c 0
 66.337890625 625.002929688 53.5048828125 628.669921875 44.5048828125 636.002929688 c 0
 31.23046875 646.818359375 30.9306640625 659.26953125 30.9306640625 666.641601562 c 0
 30.9306640625 677.5234375 34.7880859375 686.9765625 42.50390625 695.000976562 c 0
 50.8369140625 703.66796875 64.00390625 708.000976562 82.00390625 708.000976562 c 0
 137.563476562 709.556640625 189.270507812 710.334960938 237.125 710.334960938 c 0x94
 332.82421875 710.334960938 413.1171875 707.223632812 478.00390625 701.001953125 c 0
 507.336914062 698.334960938 522.669921875 684.66796875 524.002929688 660.000976562 c 0
 524.002929688 654.000976562 523.169921875 648.16796875 521.502929688 642.500976562 c 0
 519.8359375 636.833984375 517.002929688 631.333984375 513.002929688 626.000976562 c 0
 509.002929688 620.66796875 503.669921875 616.500976562 497.002929688 613.500976562 c 0
 490.3359375 610.500976562 483.3359375 610.000976562 476.002929688 612.000976562 c 0
 456.002929688 615.333984375 407.002929688 619.000976562 329.002929688 623.000976562 c 1
 329.002929688 617.66796875 328.669921875 602.66796875 328.002929688 578.000976562 c 0
 327.3359375 553.333984375 327.002929688 533.666992188 327.002929688 519 c 2
 327.002929688 456 l 2
 327.002929688 428.666992188 327.3359375 401.666992188 328.002929688 375 c 0
 328.447265625 359.2265625 328.668945312 342.157226562 328.668945312 323.791992188 c 0x24
 328.668945312 287.047851562 327.780273438 245.1171875 326.001953125 198 c 0
 323.334960938 127.333007812 322.001953125 85.3330078125 322.001953125 72 c 1
 350.668945312 72 384.001953125 71.8330078125 422.001953125 71.5 c 0
 460.001953125 71.1669921875 480.334960938 71 483.001953125 71 c 0
 498.334960938 71 509.16796875 67.5 515.500976562 60.5 c 0
 521.833984375 53.5 525.000976562 44.3330078125 525.000976562 33 c 0
 525.000976562 27 524.66796875 21.5 524.000976562 16.5 c 0
 523.333984375 11.5 521.333984375 6.5 518.000976562 1.5 c 0
 514.66796875 -3.5 510.16796875 -7.1669921875 504.500976562 -9.5 c 0
 498.833984375 -11.8330078125 491.666992188 -12.3330078125 483 -11 c 0x68
EndSplineSet
Validated: 524289
EndChar

StartChar: J
Encoding: 74 74 42
Width: 550
GlyphClass: 2
Flags: HMW
HStem: -35.001 101.001 625 82.999
VStem: 22.0039 89 285.003 93.9971
LayerCount: 2
Fore
SplineSet
376 215 m 0
 370.666992188 155 362.66796875 106.33203125 352.000976562 68.9990234375 c 0
 341.333984375 31.666015625 328.333984375 4.9990234375 313.000976562 -11.0009765625 c 0
 297.66796875 -27.0009765625 279.66796875 -35.0009765625 259.000976562 -35.0009765625 c 0
 236.333984375 -35.0009765625 214.000976562 -31.0009765625 192.000976562 -23.0009765625 c 0
 170.000976562 -15.0009765625 150.833984375 -4.333984375 134.500976562 8.9990234375 c 0
 118.16796875 22.33203125 103.000976562 36.83203125 89.0009765625 52.4990234375 c 0
 75.0009765625 68.166015625 63.333984375 83.8330078125 54.0009765625 99.5 c 0
 44.66796875 115.166992188 37.3349609375 129.166992188 32.001953125 141.5 c 0
 26.6689453125 153.833007812 23.6689453125 163.666015625 23.001953125 170.999023438 c 0
 21.6689453125 176.999023438 21.3359375 184.166015625 22.0029296875 192.499023438 c 0
 22.669921875 200.83203125 24.169921875 208.665039062 26.5029296875 215.998046875 c 0
 28.8359375 223.331054688 32.8359375 229.831054688 38.5029296875 235.498046875 c 0
 44.169921875 241.165039062 52.0029296875 244.665039062 62.0029296875 245.998046875 c 0
 65.55859375 246.64453125 68.9482421875 246.967773438 72.1708984375 246.967773438 c 0
 82.2412109375 246.967773438 90.6845703125 243.811523438 97.5029296875 237.499023438 c 0
 106.502929688 229.166015625 111.002929688 218.666015625 111.002929688 205.999023438 c 0
 111.002929688 198.666015625 112.3359375 189.833007812 115.002929688 179.5 c 0
 117.669921875 169.166992188 122.169921875 157.166992188 128.502929688 143.5 c 0
 134.8359375 129.833007812 142.668945312 117.333007812 152.001953125 106 c 0
 161.334960938 94.6669921875 174.501953125 85.1669921875 191.501953125 77.5 c 0
 208.501953125 69.8330078125 226.668945312 66 246.001953125 66 c 0
 270.001953125 66 283.668945312 124 287.001953125 240 c 0
 287.001953125 254.666992188 286.334960938 301.666992188 285.001953125 381 c 0
 284.3359375 420.666015625 284.002929688 460.749023438 284.002929688 501.249023438 c 0
 284.002929688 541.749023438 284.3359375 582.666015625 285.001953125 624 c 1
 240.203125 625.200195312 198.5234375 625.799804688 159.963867188 625.799804688 c 0
 134.256835938 625.799804688 109.936523438 625.533203125 87.0029296875 625 c 0
 70.3359375 625 57.6689453125 628.666992188 49.001953125 636 c 0
 36.2734375 646.76953125 35.927734375 659.155273438 35.927734375 666.639648438 c 0
 35.927734375 677.521484375 39.78515625 686.974609375 47.5009765625 694.999023438 c 0
 55.833984375 703.666015625 68.6669921875 707.999023438 86 707.999023438 c 0
 141.559570312 709.5546875 193.229492188 710.333007812 241.009765625 710.333007812 c 0
 336.561523438 710.333007812 416.55859375 707.221679688 481.000976562 701 c 0
 510.333984375 698.333007812 526.000976562 684.666015625 528.000976562 659.999023438 c 0
 528.000976562 653.999023438 527.000976562 648.166015625 525.000976562 642.499023438 c 0
 523.000976562 636.83203125 520.333984375 631.33203125 517.000976562 625.999023438 c 0
 513.66796875 620.666015625 508.66796875 616.499023438 502.000976562 613.499023438 c 0
 495.333984375 610.499023438 487.666992188 609.999023438 479 611.999023438 c 0
 455.666992188 615.33203125 420 618.33203125 372 620.999023438 c 1
 372 601.666015625 372.666992188 572.333007812 374 533 c 0
 375.333007812 493.666992188 376.5 457.833984375 377.5 425.500976562 c 0
 378.5 393.16796875 379 357.16796875 379 317.500976562 c 0
 379 277.833984375 378 243.666992188 376 215 c 0
EndSplineSet
Validated: 524289
EndChar

StartChar: K
Encoding: 75 75 43
Width: 550
GlyphClass: 2
Flags: HMW
HStem: -21.0751 21G 694.072 20G
VStem: 31.735 95.2646
LayerCount: 2
Fore
SplineSet
135 24 m 0
 133.666992188 10 127.171875 -1.16796875 115.504882812 -9.5009765625 c 0
 104.702148438 -17.216796875 92.6142578125 -21.07421875 79.240234375 -21.07421875 c 0
 78.169921875 -21.07421875 77.0908203125 -21.0498046875 76.00390625 -21 c 0
 62.6708984375 -21 51.6708984375 -16.5 43.00390625 -7.5 c 0
 35.4921875 0.30078125 31.736328125 10.73046875 31.736328125 23.7890625 c 0
 31.736328125 25.7978515625 31.8251953125 27.8681640625 32.0029296875 30.0009765625 c 0
 33.5029296875 52 34.2529296875 89.091796875 34.2529296875 141.276367188 c 0
 34.2529296875 158.673828125 34.169921875 177.748046875 34.0029296875 198.5 c 0
 33.3359375 281.5 31.6689453125 367 29.001953125 455 c 0
 27.6689453125 497.666992188 27.001953125 526.5 27.001953125 541.5 c 0
 27.001953125 556.5 27.501953125 578.166992188 28.501953125 606.5 c 0
 29.501953125 634.833007812 30.001953125 652.666015625 30.001953125 659.999023438 c 0
 30.6689453125 677.999023438 35.6689453125 691.499023438 45.001953125 700.499023438 c 0
 54.3349609375 709.499023438 66.001953125 713.999023438 80.001953125 713.999023438 c 0
 81.0888671875 714.048828125 82.162109375 714.073242188 83.2216796875 714.073242188 c 0
 96.458984375 714.073242188 107.552734375 710.215820312 116.502929688 702.5 c 0
 126.169921875 694.166992188 131.002929688 681 131.002929688 663 c 0
 131.002929688 647 130.3359375 612 129.002929688 558 c 0
 127.669921875 504 127.002929688 459.333007812 127.002929688 424 c 1
 151.002929688 447.333007812 187.002929688 482.666015625 235.002929688 529.999023438 c 0
 283.002929688 577.33203125 321.3359375 614.83203125 350.002929688 642.499023438 c 0
 378.669921875 670.166015625 397.002929688 687.333007812 405.002929688 694 c 0
 414.3359375 702.666992188 423.3359375 708.5 432.002929688 711.5 c 0
 440.669921875 714.5 448.169921875 715.166992188 454.502929688 713.5 c 0
 460.8359375 711.833007812 466.668945312 708.333007812 472.001953125 703 c 0
 479.512695312 694.911132812 483.268554688 685.946289062 483.268554688 676.10546875 c 0
 483.268554688 663.235351562 476.845703125 648.8671875 464.000976562 633 c 0
 454.000976562 621 418.66796875 584.5 358.000976562 523.5 c 0
 297.333984375 462.5 243.333984375 409.333007812 196.000976562 364 c 1
 218.66796875 340 257.16796875 302.5 311.500976562 251.5 c 0
 365.833984375 200.5 413.000976562 155.666992188 453.000976562 117 c 0
 493.000976562 78.3330078125 515.333984375 54 520.000976562 44 c 0
 522.000976562 37.666015625 523.000976562 31.666015625 523.000976562 25.9990234375 c 0
 523.000976562 20.33203125 522.000976562 14.9990234375 520.000976562 9.9990234375 c 0
 516.000976562 -0.0009765625 510.000976562 -7.66796875 502.000976562 -13.0009765625 c 0
 493.725585938 -18.5986328125 485.495117188 -21.3974609375 477.30859375 -21.3974609375 c 0
 463.071289062 -21.3974609375 448.96875 -12.931640625 435 4 c 0
 428.333007812 12.6669921875 404.5 35.6669921875 363.5 73 c 0
 322.5 110.333007812 278.333007812 151.5 231 196.5 c 0
 183.666992188 241.5 149 277.333007812 127 304 c 1
 127 284 l 2
 127 272.666992188 129.666992188 186 135 24 c 0
EndSplineSet
Validated: 524289
EndChar

StartChar: L
Encoding: 76 76 44
Width: 550
GlyphClass: 2
Flags: HMW
HStem: -15.0049 86.9159
VStem: 26.998 103.002 56.798 91.7021
LayerCount: 2
Fore
SplineSet
480 10 m 0xc0
 434.666992188 1.3330078125 365.999023438 -5.005859375 273.999023438 -9.005859375 c 0
 181.999023438 -13.005859375 114.33203125 -15.005859375 70.9990234375 -15.005859375 c 0
 57.666015625 -15.005859375 46.666015625 -10.505859375 37.9990234375 -1.505859375 c 0
 30.4873046875 6.294921875 26.7314453125 16.724609375 26.7314453125 29.783203125 c 0
 26.7314453125 31.7919921875 26.8203125 33.8623046875 26.998046875 35.9951171875 c 0xc0
 26.998046875 41.328125 30.8310546875 79.4951171875 38.498046875 150.495117188 c 0
 46.1650390625 221.495117188 51.6650390625 289.995117188 54.998046875 355.995117188 c 0
 56.1982421875 373.995117188 56.7978515625 400.994140625 56.7978515625 436.993164062 c 0
 56.7978515625 460.993164062 56.53125 488.994140625 55.998046875 520.995117188 c 0
 54.6650390625 600.995117188 53.998046875 644.328125 53.998046875 650.995117188 c 0
 54.6650390625 668.995117188 59.83203125 682.662109375 69.4990234375 691.995117188 c 0
 79.166015625 701.328125 90.666015625 705.995117188 103.999023438 705.995117188 c 0
 105.0859375 706.044921875 106.159179688 706.069335938 107.21875 706.069335938 c 0
 120.456054688 706.069335938 131.549804688 702.211914062 140.5 694.49609375 c 0
 150.166992188 686.163085938 155 672.99609375 155 654.99609375 c 0
 155 635.663085938 154.333007812 609.330078125 153 575.997070312 c 0
 151.666992188 542.6640625 150.166992188 500.6640625 148.5 449.997070312 c 0xa0
 146.833007812 399.330078125 145.333007812 355.330078125 144 317.997070312 c 0
 143.333007812 289.997070312 140.833007812 249.330078125 136.5 195.997070312 c 0
 132.166992188 142.6640625 130 101.331054688 130 71.998046875 c 1
 134.87109375 71.9404296875 139.811523438 71.9111328125 144.821289062 71.9111328125 c 0
 197.40625 71.9111328125 257.6328125 75.107421875 325.5 81.498046875 c 0
 399.833007812 88.498046875 449.333007812 95.3310546875 474 101.998046875 c 0
 482 103.998046875 489.166992188 103.665039062 495.5 100.998046875 c 0
 501.833007812 98.3310546875 506.833007812 94.3310546875 510.5 88.998046875 c 0
 514.166992188 83.6650390625 517.166992188 77.83203125 519.5 71.4990234375 c 0
 521.833007812 65.166015625 523 59.3330078125 523 54 c 0
 523 42 520 32.3330078125 514 25 c 0
 508 17.6669921875 496.666992188 12.6669921875 480 10 c 0xc0
EndSplineSet
Validated: 524289
EndChar

StartChar: M
Encoding: 77 77 45
Width: 550
GlyphClass: 2
Flags: HMW
HStem: -9.99414 21G<45.001 51.667>
VStem: 8.999 83.001 221.001 104.999
LayerCount: 2
Fore
SplineSet
92 59 m 0
 92.044921875 57.578125 92.068359375 56.17578125 92.068359375 54.7939453125 c 0
 92.068359375 35.443359375 87.7109375 20.0166015625 79 8.505859375 c 0
 69.6669921875 -3.8271484375 58.333984375 -9.994140625 45.0009765625 -9.994140625 c 0
 21.0009765625 -9.3271484375 9.0009765625 15.33984375 9.0009765625 64.0068359375 c 0
 9.0009765625 72.0068359375 10.0009765625 85.673828125 12.0009765625 105.006835938 c 0
 14.0009765625 124.33984375 16.5009765625 149.672851562 19.5009765625 181.005859375 c 0
 22.5009765625 212.338867188 25.0009765625 239.671875 27.0009765625 263.004882812 c 0
 27.66796875 271.004882812 28.66796875 283.337890625 30.0009765625 300.004882812 c 0
 34.0009765625 349.337890625 37.16796875 387.837890625 39.5009765625 415.504882812 c 0
 41.833984375 443.171875 45.333984375 477.671875 50.0009765625 519.004882812 c 0
 54.66796875 560.337890625 58.8349609375 592.837890625 62.501953125 616.504882812 c 0
 66.1689453125 640.171875 70.6689453125 656.671875 76.001953125 666.004882812 c 0
 82.6689453125 680.004882812 92.8359375 690.171875 106.502929688 696.504882812 c 0
 117.79296875 701.736328125 128.7421875 704.352539062 139.350585938 704.352539062 c 0
 141.583007812 704.352539062 143.80078125 704.236328125 146.002929688 704.004882812 c 0
 176.002929688 704.004882812 194.669921875 691.671875 202.002929688 667.004882812 c 0
 210.002929688 637.671875 218.669921875 589.171875 228.002929688 521.504882812 c 0
 237.3359375 453.837890625 246.8359375 376.670898438 256.502929688 290.00390625 c 0
 266.169921875 203.336914062 273.002929688 146.00390625 277.002929688 118.00390625 c 1
 283.669921875 212.00390625 291.336914062 296.670898438 300.00390625 372.00390625 c 0
 306.00390625 427.336914062 314.170898438 483.00390625 324.50390625 539.00390625 c 0
 334.836914062 595.00390625 344.00390625 637.670898438 352.00390625 667.00390625 c 0
 354.670898438 677.00390625 360.170898438 685.170898438 368.50390625 691.50390625 c 0
 376.836914062 697.836914062 385.669921875 701.669921875 395.002929688 703.002929688 c 0
 401.223632812 703.891601562 407 704.3359375 412.33203125 704.3359375 c 0
 415 704.3359375 417.556640625 704.224609375 420.001953125 704.001953125 c 2
 424.001953125 704.001953125 l 1
 437.501953125 704.001953125 l 2
 441.168945312 704.001953125 446.168945312 703.168945312 452.501953125 701.501953125 c 0
 458.834960938 699.834960938 464.001953125 697.66796875 468.001953125 695.000976562 c 0
 472.001953125 692.333984375 475.668945312 688.166992188 479.001953125 682.5 c 0
 482.334960938 676.833007812 484.66796875 670 486.000976562 662 c 0
 488.66796875 642 496.334960938 544.333007812 509.001953125 369 c 0
 521.668945312 193.666992188 531.001953125 94.6669921875 537.001953125 72 c 0
 539.668945312 60.5712890625 541.001953125 50.33984375 541.001953125 41.3056640625 c 0
 541.001953125 18.720703125 532.668945312 3.6181640625 516.001953125 -4.0009765625 c 0
 510.2109375 -6.4384765625 504.419921875 -7.6572265625 498.62890625 -7.6572265625 c 2
 478 -2.5 l 2
 465.333007812 3.8330078125 456 17.666015625 450 38.9990234375 c 0
 436 83.666015625 423.666992188 278.333007812 413 623 c 1
 393.666992188 526.333007812 381 438.333007812 375 359 c 0
 369 283 360.833007812 210.833007812 350.5 142.5 c 0
 340.166992188 74.1669921875 332 32.333984375 326 17.0009765625 c 0
 318.666992188 1.0009765625 300 -6.9990234375 270 -6.9990234375 c 0
 268.333007812 -7.08203125 266.705078125 -7.1240234375 265.116210938 -7.1240234375 c 0
 253.997070312 -7.1240234375 244.791992188 -5.08203125 237.500976562 -0.9990234375 c 0
 229.16796875 3.66796875 223.66796875 10.3349609375 221.000976562 19.001953125 c 0
 213.000976562 51.001953125 199.66796875 124.501953125 181.000976562 239.501953125 c 0
 162.333984375 354.501953125 145.333984375 464.668945312 130.000976562 570.001953125 c 1
 128.000976562 548.668945312 126.16796875 524.668945312 124.500976562 498.001953125 c 0
 122.833984375 471.334960938 121.333984375 448.16796875 120.000976562 428.500976562 c 0
 118.66796875 408.833984375 116.500976562 379.666992188 113.500976562 341 c 0
 110.500976562 302.333007812 108.333984375 273 107.000976562 253 c 0
 105.66796875 225 103.66796875 196.166992188 101.000976562 166.5 c 0
 98.333984375 136.833007812 96.1669921875 113.5 94.5 96.5 c 0
 92.8330078125 79.5 92 67 92 59 c 0
EndSplineSet
Validated: 524289
EndChar

StartChar: N
Encoding: 78 78 46
Width: 550
GlyphClass: 2
Flags: HMW
HStem: -14.1178 21G
VStem: 29.001 82.7479 428.421 92.5787 438.002 83.18
LayerCount: 2
Fore
SplineSet
447 -14 m 0xd0
 445.5078125 -14.078125 444.045898438 -14.1181640625 442.614257812 -14.1181640625 c 0
 431.888671875 -14.1181640625 422.848632812 -11.9140625 415.497070312 -7.5029296875 c 0
 407.1640625 -2.5029296875 401.331054688 4.330078125 397.998046875 12.9970703125 c 0
 391.998046875 26.330078125 375.998046875 55.6630859375 349.998046875 100.99609375 c 0
 323.998046875 146.329101562 297.165039062 193.49609375 269.498046875 242.49609375 c 0
 241.831054688 291.49609375 212.831054688 346.329101562 182.498046875 406.99609375 c 0
 152.165039062 467.663085938 129.33203125 519.330078125 113.999023438 561.997070312 c 1
 117.19921875 503.86328125 118.798828125 448.9296875 118.798828125 397.196289062 c 0
 118.798828125 384.262695312 118.69921875 371.529296875 118.499023438 358.99609375 c 0
 117.499023438 296.329101562 115.999023438 232.49609375 113.999023438 167.49609375 c 0
 112.499023438 118.748046875 111.749023438 84.3427734375 111.749023438 64.2802734375 c 0
 111.749023438 55.919921875 112.065429688 44.9990234375 112.065429688 44.8046875 c 0
 112.065429688 25.599609375 107.709960938 11.330078125 98.9990234375 1.9970703125 c 0
 90.25 -7.3779296875 79.7431640625 -12.0654296875 67.478515625 -12.0654296875 c 0
 66.66015625 -12.0654296875 65.833984375 -12.044921875 65 -12.0029296875 c 0
 51 -12.0029296875 41.5 -6.3359375 36.5 4.9970703125 c 0
 31.5 16.330078125 29 32.9970703125 29 54.9970703125 c 0
 29 68.330078125 30 119.997070312 32 209.997070312 c 0
 34 299.997070312 35.3330078125 378.6640625 36 445.997070312 c 0
 36.1669921875 462.83203125 36.25 479.5 36.25 496.001953125 c 0
 36.25 545.5 35.5 593.499023438 34 639.998046875 c 0
 33.904296875 641.903320312 33.8564453125 643.767578125 33.8564453125 645.590820312 c 0
 33.8564453125 656.528320312 35.5712890625 665.997070312 39 673.99609375 c 0
 43 683.329101562 48.6669921875 690.162109375 56 694.495117188 c 0
 63.3330078125 698.828125 71 701.828125 79 703.495117188 c 0
 87 705.162109375 95.6669921875 705.329101562 105 703.99609375 c 0
 133.666992188 703.99609375 151.666992188 691.663085938 159 666.99609375 c 0
 173 622.99609375 211.666992188 541.99609375 275 423.99609375 c 0
 338.333007812 305.99609375 392 210.663085938 436 137.99609375 c 1
 437.778320312 179.779296875 438.666992188 234.232421875 438.666992188 301.35546875 c 0
 438.666992188 334.904296875 438.4453125 371.618164062 438.000976562 411.497070312 c 0xd0
 436.66796875 531.1640625 433.66796875 609.997070312 429.000976562 647.997070312 c 0
 428.614257812 651.09375 428.420898438 654.096679688 428.420898438 657.005859375 c 0
 428.420898438 669.12890625 431.78125 679.625976562 438.501953125 688.497070312 c 0
 446.834960938 699.497070312 457.66796875 704.997070312 471.000976562 704.997070312 c 0
 478.333984375 704.997070312 484.666992188 704.1640625 490 702.497070312 c 0
 495.333007812 700.830078125 499.5 698.830078125 502.5 696.497070312 c 0
 505.5 694.1640625 508 690.331054688 510 684.998046875 c 0
 512 679.665039062 513.5 674.83203125 514.5 670.499023438 c 0
 515.5 666.166015625 516.666992188 659.333007812 518 650 c 0
 519.333007812 639.333007812 520.333007812 585.833007812 521 489.5 c 0xe0
 521.12109375 471.981445312 521.181640625 454.34765625 521.181640625 436.59765625 c 0
 521.181640625 356.741210938 519.954101562 274.541992188 517.5 190 c 0
 514.5 86.6669921875 509.333007812 27 502 11 c 0
 495.333007812 -5.6669921875 477 -14 447 -14 c 0xd0
EndSplineSet
Validated: 524289
EndChar

StartChar: O
Encoding: 79 79 47
Width: 550
GlyphClass: 2
Flags: HMW
HStem: -24 83.998 636.997 81.001
VStem: 29.999 96.3855 423.499 96.0643
LayerCount: 2
Fore
SplineSet
242 -24 m 0
 200.666992188 -23.3330078125 163.666992188 -10.8369140625 131 13.49609375 c 0
 98.3330078125 37.8291015625 73.166015625 70.49609375 55.4990234375 111.49609375 c 0
 38.474609375 151.004882812 29.962890625 194.072265625 29.962890625 240.700195312 c 0
 29.962890625 242.4609375 29.974609375 244.2265625 29.9990234375 245.997070312 c 2
 29.9990234375 262.997070312 l 2
 29.9990234375 292.997070312 30.166015625 316.997070312 30.4990234375 334.997070312 c 0
 30.83203125 352.997070312 32.1650390625 376.997070312 34.498046875 406.997070312 c 0
 36.8310546875 436.997070312 40.8310546875 465.497070312 46.498046875 492.497070312 c 0
 52.1650390625 519.497070312 59.33203125 544.997070312 67.9990234375 568.997070312 c 0
 84.666015625 612.330078125 114.333007812 647.997070312 157 675.997070312 c 0
 199.666992188 703.997070312 247 717.997070312 299 717.997070312 c 0
 325.666992188 717.997070312 351.333984375 712.830078125 376.000976562 702.497070312 c 0
 400.66796875 692.1640625 422.66796875 677.331054688 442.000976562 657.998046875 c 0
 461.333984375 638.665039062 477.500976562 613.998046875 490.500976562 583.998046875 c 0
 503.500976562 553.998046875 511.66796875 520.331054688 515.000976562 482.998046875 c 0
 517.66796875 449.665039062 519.16796875 413.998046875 519.500976562 375.998046875 c 0
 519.54296875 371.251953125 519.563476562 366.498046875 519.563476562 361.736328125 c 0
 519.563476562 328.374023438 518.54296875 294.627929688 516.500976562 260.499023438 c 0
 514.16796875 221.499023438 509.66796875 190.666015625 503.000976562 167.999023438 c 0
 494.333984375 136.666015625 483.666992188 109.666015625 471 86.9990234375 c 0
 458.333007812 64.33203125 444.333007812 45.83203125 429 31.4990234375 c 0
 413.666992188 17.166015625 396 5.8330078125 376 -2.5 c 0
 356 -10.8330078125 335.5 -16.5 314.5 -19.5 c 0
 293.5 -22.5 269.333007812 -24 242 -24 c 0
242 59.99609375 m 0
 260 59.99609375 276.997070312 62.1640625 292.997070312 66.4970703125 c 0
 308.997070312 70.830078125 324.6640625 77.830078125 339.997070312 87.4970703125 c 0
 355.330078125 97.1640625 368.997070312 109.997070312 380.997070312 125.997070312 c 0
 392.997070312 141.997070312 402.330078125 160.6640625 408.997070312 181.997070312 c 0
 411.6640625 190.6640625 414.331054688 210.6640625 416.998046875 241.997070312 c 0
 419.665039062 273.330078125 421.83203125 310.663085938 423.499023438 353.99609375 c 0
 423.989257812 366.741210938 424.234375 379.428710938 424.234375 392.05859375 c 0
 424.234375 422.370117188 422.822265625 452.349609375 419.999023438 481.99609375 c 0
 415.999023438 525.99609375 401.83203125 562.829101562 377.499023438 592.49609375 c 0
 353.166015625 622.163085938 323.333007812 636.99609375 288 636.99609375 c 0
 252 636.99609375 221.833007812 623.829101562 197.5 597.49609375 c 0
 173.166992188 571.163085938 155.666992188 534.330078125 145 486.997070312 c 0
 132.58984375 433.408203125 126.384765625 371.466796875 126.384765625 301.171875 c 0
 126.384765625 288.389648438 126.58984375 275.331054688 127 261.99609375 c 0
 127.666992188 240.663085938 129.5 220.99609375 132.5 202.99609375 c 0
 135.5 184.99609375 139.666992188 166.99609375 145 148.99609375 c 0
 150.333007812 130.99609375 157.333007812 115.49609375 166 102.49609375 c 0
 174.666992188 89.49609375 185.5 79.1630859375 198.5 71.49609375 c 0
 211.5 63.8291015625 226 59.99609375 242 59.99609375 c 0
EndSplineSet
Validated: 524289
EndChar

StartChar: P
Encoding: 80 80 48
Width: 550
GlyphClass: 2
Flags: HMW
HStem: -19.0771 21G 230.001 81.9374 630.003 80.998
VStem: 49.664 94.3366 54.74 102.314 418.997 92.0029
LayerCount: 2
Fore
SplineSet
157.053710938 21.7568359375 m 0xec
 157.053710938 8.837890625 151.53515625 -1.2421875 140.499023438 -8.4951171875 c 0
 129.765625 -15.548828125 117.762695312 -19.0751953125 104.490234375 -19.0751953125 c 0
 103.3359375 -19.0751953125 102.171875 -19.048828125 100.998046875 -18.9951171875 c 0
 86.998046875 -18.9951171875 75.498046875 -14.828125 66.498046875 -6.4951171875 c 0
 58.6591796875 0.7626953125 54.740234375 10.9287109375 54.740234375 24.0029296875 c 0xec
 54.740234375 25.939453125 54.826171875 27.939453125 54.998046875 30.00390625 c 0
 55.6650390625 40.6708984375 55.998046875 56.50390625 55.998046875 77.50390625 c 0
 55.998046875 98.50390625 55.8310546875 124.50390625 55.498046875 155.50390625 c 0
 55.1650390625 186.50390625 54.6650390625 216.50390625 53.998046875 245.50390625 c 0
 53.3310546875 274.50390625 52.498046875 310.00390625 51.498046875 352.00390625 c 0
 50.498046875 394.00390625 49.998046875 429.00390625 49.998046875 457.00390625 c 0
 49.775390625 471.455078125 49.6640625 487.463867188 49.6640625 505.029296875 c 0xf4
 49.6640625 540.134765625 50.1083984375 581.458984375 50.9970703125 629.002929688 c 0
 47.6640625 632.3359375 45.6640625 634.002929688 44.9970703125 634.002929688 c 0
 39.6640625 642.002929688 37.8310546875 650.169921875 39.498046875 658.502929688 c 0
 41.1650390625 666.8359375 44.83203125 674.3359375 50.4990234375 681.002929688 c 0
 56.166015625 687.669921875 62.3330078125 691.669921875 69 693.002929688 c 0
 93 698.3359375 128.166992188 702.668945312 174.5 706.001953125 c 0
 220.833007812 709.334960938 253.333007812 711.001953125 272 711.001953125 c 0
 317.333007812 711.001953125 357.833007812 703.001953125 393.5 687.001953125 c 0
 429.166992188 671.001953125 457.5 646.834960938 478.5 614.501953125 c 0
 499.5 582.168945312 510.333007812 543.668945312 511 499.001953125 c 0
 511 461.668945312 504.833007812 426.501953125 492.5 393.501953125 c 0
 480.166992188 360.501953125 463.5 332.001953125 442.5 308.001953125 c 0
 421.5 284.001953125 395.666992188 265.001953125 365 251.001953125 c 0
 334.333007812 237.001953125 301 230.001953125 265 230.001953125 c 0
 213 230.001953125 172 233.668945312 142 241.001953125 c 1
 143.333007812 213.001953125 145 186.168945312 147 160.501953125 c 0
 149 134.834960938 151 108.16796875 153 80.5009765625 c 0
 155.264648438 49.16796875 157.053710938 24.41796875 157.053710938 21.7568359375 c 0xec
271.999023438 630.005859375 m 0
 248.666015625 630.005859375 206.66796875 627.336914062 146.000976562 622.00390625 c 1
 146.000976562 608.670898438 145.333984375 584.00390625 144.000976562 548.00390625 c 0xf4
 142.66796875 512.00390625 141.66796875 475.00390625 141.000976562 437.00390625 c 0
 140.333984375 399.00390625 140.000976562 362.00390625 140.000976562 326.00390625 c 1
 165.625 316.62890625 195.350585938 311.94140625 229.177734375 311.94140625 c 0
 231.43359375 311.94140625 233.708007812 311.961914062 236.000976562 312.00390625 c 0
 255.333984375 312.00390625 272.833984375 313.336914062 288.500976562 316.00390625 c 0
 304.16796875 318.670898438 317.834960938 322.337890625 329.501953125 327.004882812 c 0
 341.168945312 331.671875 351.668945312 337.838867188 361.001953125 345.505859375 c 0
 370.334960938 353.172851562 378.16796875 360.83984375 384.500976562 368.506835938 c 0
 390.833984375 376.173828125 396.166992188 385.173828125 400.5 395.506835938 c 0
 404.833007812 405.83984375 408.166015625 415.172851562 410.499023438 423.505859375 c 0
 412.83203125 431.838867188 414.665039062 441.505859375 415.998046875 452.505859375 c 0
 417.331054688 463.505859375 418.1640625 472.505859375 418.497070312 479.505859375 c 0
 418.830078125 486.505859375 418.997070312 495.005859375 418.997070312 505.005859375 c 0
 418.997070312 523.672851562 415.497070312 540.505859375 408.497070312 555.505859375 c 0
 401.497070312 570.505859375 392.830078125 582.505859375 382.497070312 591.505859375 c 0
 372.1640625 600.505859375 360.331054688 608.005859375 346.998046875 614.005859375 c 0
 333.665039062 620.005859375 320.83203125 624.172851562 308.499023438 626.505859375 c 0
 296.166015625 628.838867188 283.999023438 630.005859375 271.999023438 630.005859375 c 0
EndSplineSet
Validated: 524289
EndChar

StartChar: Q
Encoding: 81 81 49
Width: 550
GlyphClass: 2
Flags: HMW
HStem: -24.1963 84.2021 637.005 80.9971
VStem: 26.07 95.6075 230.858 73.1323 424.101 93.3379
LayerCount: 2
Fore
SplineSet
501 -206 m 0
 493.890625 -210.443359375 486.481445312 -212.6640625 478.77734375 -212.6640625 c 0
 474.921875 -212.6640625 470.993164062 -212.108398438 466.991210938 -210.997070312 c 0
 454.991210938 -207.6640625 444.32421875 -199.997070312 434.991210938 -187.997070312 c 0
 425.658203125 -175.997070312 409.658203125 -153.6640625 386.991210938 -120.997070312 c 0
 364.32421875 -88.330078125 342.32421875 -54.9970703125 320.991210938 -20.9970703125 c 1
 307.125976562 -23.130859375 292.194335938 -24.197265625 276.1953125 -24.197265625 c 0
 272.194335938 -24.197265625 268.125976562 -24.130859375 263.991210938 -23.9970703125 c 0
 234.658203125 -23.9970703125 207.325195312 -19.330078125 181.9921875 -9.9970703125 c 0
 156.659179688 -0.6640625 134.826171875 12.3359375 116.493164062 29.0029296875 c 0
 98.16015625 45.669921875 82.3271484375 65.5029296875 68.994140625 88.5029296875 c 0
 55.6611328125 111.502929688 45.6611328125 136.169921875 38.994140625 162.502929688 c 0
 32.3271484375 188.8359375 28.3271484375 216.668945312 26.994140625 246.001953125 c 0
 26.3779296875 263.084960938 26.0693359375 279.766601562 26.0693359375 296.046875 c 0
 26.0693359375 403.024414062 39.3779296875 492.67578125 65.994140625 565.001953125 c 0
 83.3271484375 609.001953125 112.994140625 645.501953125 154.994140625 674.501953125 c 0
 196.994140625 703.501953125 243.994140625 718.001953125 295.994140625 718.001953125 c 0
 323.327148438 718.001953125 348.827148438 713.334960938 372.494140625 704.001953125 c 0
 396.161132812 694.668945312 417.661132812 681.001953125 436.994140625 663.001953125 c 0
 456.327148438 645.001953125 472.494140625 620.668945312 485.494140625 590.001953125 c 0
 498.494140625 559.334960938 507.327148438 523.66796875 511.994140625 483.000976562 c 0
 515.624023438 447.220703125 517.439453125 405.2890625 517.439453125 357.20703125 c 0
 517.439453125 343.473632812 517.291015625 329.23828125 516.995117188 314.500976562 c 0
 515.662109375 248.16796875 511.329101562 197.66796875 503.99609375 163.000976562 c 0
 489.99609375 91.0009765625 457.329101562 39.66796875 405.99609375 9.0009765625 c 1
 419.329101562 -10.33203125 433.49609375 -29.9990234375 448.49609375 -49.9990234375 c 0
 463.49609375 -69.9990234375 477.829101562 -88.666015625 491.49609375 -105.999023438 c 0
 505.163085938 -123.33203125 514.330078125 -134.999023438 518.997070312 -140.999023438 c 0
 523.6640625 -148.33203125 525.331054688 -156.33203125 523.998046875 -164.999023438 c 0
 522.665039062 -173.666015625 519.83203125 -181.833007812 515.499023438 -189.5 c 0
 511.166015625 -197.166992188 506.333007812 -202.666992188 501 -206 c 0
123.991210938 262.004882812 m 0
 125.991210938 224.004882812 133.157226562 189.837890625 145.490234375 159.504882812 c 0
 157.823242188 129.171875 174.323242188 105.004882812 194.990234375 87.0048828125 c 0
 215.657226562 69.0048828125 238.657226562 60.0048828125 263.990234375 60.0048828125 c 2
 273.990234375 60.0048828125 l 1
 257.990234375 90.0048828125 246.657226562 113.337890625 239.990234375 130.004882812 c 0
 233.90234375 146.33203125 230.858398438 160.706054688 230.858398438 173.127929688 c 0
 230.858398438 190.630859375 236.90234375 204.256835938 248.990234375 214.005859375 c 0
 254.990234375 218.672851562 261.490234375 221.505859375 268.490234375 222.505859375 c 0
 275.490234375 223.505859375 282.157226562 221.505859375 288.490234375 216.505859375 c 0
 294.823242188 211.505859375 299.990234375 204.005859375 303.990234375 194.005859375 c 0
 315.990234375 160.672851562 333.323242188 124.33984375 355.990234375 85.0068359375 c 1
 384.657226562 104.33984375 403.657226562 135.33984375 412.990234375 178.006835938 c 0
 414.990234375 188.006835938 417.157226562 208.173828125 419.490234375 238.506835938 c 0
 421.823242188 268.83984375 423.323242188 306.672851562 423.990234375 352.005859375 c 0
 424.064453125 357.044921875 424.1015625 362.059570312 424.1015625 367.049804688 c 0
 424.1015625 406.948242188 421.731445312 445.266601562 416.991210938 482.004882812 c 0
 411.658203125 529.337890625 397.158203125 567.004882812 373.491210938 595.004882812 c 0
 349.82421875 623.004882812 320.32421875 637.004882812 284.991210938 637.004882812 c 0
 248.32421875 637.004882812 217.82421875 624.004882812 193.491210938 598.004882812 c 0
 169.158203125 572.004882812 151.658203125 535.671875 140.991210938 489.004882812 c 0
 128.115234375 437.5 121.676757812 382.5 121.676757812 324.004882812 c 0
 121.676757812 303.756835938 122.448242188 283.08984375 123.991210938 262.004882812 c 0
EndSplineSet
Validated: 524289
EndChar

StartChar: R
Encoding: 82 82 50
Width: 550
GlyphClass: 2
Flags: HMW
HStem: -19.0801 21G 694.06 20G
VStem: 31.002 95 35.457 102.598 35.502 93.498 39.002 81 416.002 92
LayerCount: 2
Fore
SplineSet
138.053710938 21.755859375 m 0xd2
 138.053710938 8.8369140625 132.5390625 -1.248046875 121.502929688 -8.5 c 0
 110.76953125 -15.5537109375 98.4853515625 -19.080078125 84.6494140625 -19.080078125 c 0
 83.4453125 -19.080078125 82.2294921875 -19.0537109375 81.001953125 -19 c 0
 67.001953125 -19 55.501953125 -14.8330078125 46.501953125 -6.5 c 0
 39.138671875 0.318359375 35.45703125 9.703125 35.45703125 21.6533203125 c 0xd2
 35.45703125 24.30859375 35.638671875 27.0908203125 36.001953125 30 c 0
 38.6689453125 64.6669921875 40.001953125 94.1669921875 40.001953125 118.5 c 0
 40.001953125 142.833007812 39.6689453125 202.666015625 39.001953125 297.999023438 c 0xc6
 39.001953125 310.666015625 39.6689453125 337.833007812 41.001953125 379.5 c 0
 41.66796875 400.333984375 42.0009765625 420.625976562 42.0009765625 440.375976562 c 0
 42.0009765625 460.125976562 41.66796875 479.333984375 41.001953125 498 c 0
 40.3349609375 520.666992188 38.501953125 551.333984375 35.501953125 590.000976562 c 0xca
 32.501953125 628.66796875 31.001953125 652.000976562 31.001953125 660.000976562 c 2
 31.001953125 666.000976562 l 2xe2
 30.95703125 666.845703125 30.9345703125 667.68359375 30.9345703125 668.513671875 c 0
 30.9345703125 680.127929688 35.2900390625 690.290039062 44.0009765625 699.000976562 c 0
 52.158203125 709.040039062 63.267578125 714.059570312 77.3291015625 714.059570312 c 0
 78.2080078125 714.059570312 79.0986328125 714.040039062 80.0009765625 714.000976562 c 0
 93.333984375 714.000976562 104.000976562 711.333984375 112.000976562 706.000976562 c 1
 167.333984375 703.333984375 217.500976562 696.166992188 262.500976562 684.5 c 0
 307.500976562 672.833007812 345.000976562 658.333007812 375.000976562 641 c 0
 405.000976562 623.666992188 430.333984375 604 451.000976562 582 c 0
 471.66796875 560 486.334960938 538 495.001953125 516 c 0
 503.668945312 494 508.001953125 471.666992188 508.001953125 449 c 0
 508.001953125 432.333007812 505.834960938 417 501.501953125 403 c 0
 497.168945312 389 491.001953125 376.833007812 483.001953125 366.5 c 0
 475.001953125 356.166992188 464.668945312 347 452.001953125 339 c 0
 439.334960938 331 425.834960938 324.166992188 411.501953125 318.5 c 0
 397.168945312 312.833007812 380.168945312 307.833007812 360.501953125 303.5 c 0
 340.834960938 299.166992188 321.334960938 295.833984375 302.001953125 293.500976562 c 0
 282.668945312 291.16796875 261.001953125 289.000976562 237.001953125 287.000976562 c 1
 304.334960938 252.333984375 363.66796875 211.833984375 415.000976562 165.500976562 c 0
 466.333984375 119.16796875 500.000976562 79.66796875 516.000976562 47.0009765625 c 0
 518.000976562 41.0009765625 519.000976562 35.2509765625 519.000976562 29.7509765625 c 0
 519.000976562 24.2509765625 518.000976562 19.0009765625 516.000976562 14.0009765625 c 0
 512.000976562 4.0009765625 505.66796875 -3.9990234375 497.000976562 -9.9990234375 c 0
 489.66796875 -15.3759765625 481.88671875 -18.064453125 473.657226562 -18.064453125 c 0
 470.6640625 -18.064453125 467.611328125 -17.708984375 464.5 -16.998046875 c 0
 452.833007812 -14.3310546875 442 -6.3310546875 432 7.001953125 c 0
 421.333007812 21.001953125 406.166015625 38.1689453125 386.499023438 58.501953125 c 0
 366.83203125 78.8349609375 343.165039062 101.501953125 315.498046875 126.501953125 c 0
 287.831054688 151.501953125 256.331054688 176.168945312 220.998046875 200.501953125 c 0
 185.665039062 224.834960938 151.33203125 244.334960938 117.999023438 259.001953125 c 1
 119.999023438 220.334960938 123.666015625 174.66796875 128.999023438 122.000976562 c 0xca
 131.875 93.6025390625 138.053710938 31.578125 138.053710938 21.755859375 c 0xd2
131.00390625 498 m 0
 131.00390625 490.666992188 130.505859375 480.833984375 129.505859375 468.500976562 c 0
 128.505859375 456.16796875 127.672851562 445.16796875 127.005859375 435.500976562 c 0
 126.338867188 425.833984375 125.171875 412.500976562 123.504882812 395.500976562 c 0
 121.837890625 378.500976562 120.670898438 366.333984375 120.00390625 359.000976562 c 1xc6
 128.00390625 357.4765625 138.2890625 356.71484375 150.859375 356.71484375 c 0
 160.288085938 356.71484375 171.002929688 357.143554688 183.00390625 358.000976562 c 0
 210.336914062 359.333984375 233.336914062 360.833984375 252.00390625 362.500976562 c 0
 270.670898438 364.16796875 289.50390625 366.500976562 308.50390625 369.500976562 c 0
 327.50390625 372.500976562 343.00390625 376.000976562 355.00390625 380.000976562 c 0
 367.00390625 384.000976562 378.00390625 389.000976562 388.00390625 395.000976562 c 0
 398.00390625 401.000976562 405.170898438 408.16796875 409.50390625 416.500976562 c 0
 413.836914062 424.833984375 416.00390625 434.333984375 416.00390625 445.000976562 c 0
 416.00390625 463.66796875 409.170898438 481.66796875 395.50390625 499.000976562 c 0
 381.836914062 516.333984375 364.50390625 531.666992188 343.50390625 545 c 0
 322.50390625 558.333007812 298.670898438 570.5 272.00390625 581.5 c 0
 245.336914062 592.5 219.836914062 601.333007812 195.50390625 608 c 0
 171.170898438 614.666992188 148.00390625 620 126.00390625 624 c 1xe2
 128.00390625 575.333007812 129.670898438 533.333007812 131.00390625 498 c 0
EndSplineSet
Validated: 524289
EndChar

StartChar: S
Encoding: 83 83 51
Width: 550
GlyphClass: 2
Flags: HMW
HStem: -29 85<223.663 244.996 223.663 248.333> 645.001 79.001
VStem: 54.998 100.001 426.996 99.0029
LayerCount: 2
Fore
SplineSet
34 66 m 0
 27.560546875 79.3740234375 24.3388671875 90.9111328125 24.3388671875 100.60546875 c 0
 24.3388671875 103.958984375 24.724609375 107.091796875 25.4951171875 110.00390625 c 0
 28.4951171875 121.336914062 35.662109375 130.00390625 46.9951171875 136.00390625 c 0
 54.9951171875 139.336914062 61.328125 141.669921875 65.9951171875 143.002929688 c 0
 70.662109375 144.3359375 75.8291015625 144.668945312 81.49609375 144.001953125 c 0
 87.1630859375 143.334960938 92.6630859375 140.66796875 97.99609375 136.000976562 c 0
 103.329101562 131.333984375 109.329101562 124.666992188 115.99609375 116 c 0
 127.99609375 98 144.49609375 83.5 165.49609375 72.5 c 0
 186.49609375 61.5 210.329101562 56 236.99609375 56 c 0
 252.99609375 56 269.663085938 58.1669921875 286.99609375 62.5 c 0
 304.329101562 66.8330078125 321.329101562 73.5 337.99609375 82.5 c 0
 354.663085938 91.5 369.663085938 102 382.99609375 114 c 0
 396.329101562 126 406.99609375 140.166992188 414.99609375 156.5 c 0
 422.99609375 172.833007812 426.99609375 190 426.99609375 208 c 0
 426.99609375 218 426.329101562 227 424.99609375 235 c 0
 423.663085938 243 421.163085938 251.666992188 417.49609375 261 c 0
 413.829101562 270.333007812 408.829101562 278.833007812 402.49609375 286.5 c 0
 396.163085938 294.166992188 387.330078125 301.833984375 375.997070312 309.500976562 c 0
 364.6640625 317.16796875 351.331054688 324.000976562 335.998046875 330.000976562 c 0
 320.665039062 336.000976562 301.998046875 341.500976562 279.998046875 346.500976562 c 0
 257.998046875 351.500976562 233.331054688 355.333984375 205.998046875 358.000976562 c 0
 181.998046875 360.66796875 160.165039062 367.000976562 140.498046875 377.000976562 c 0
 120.831054688 387.000976562 104.998046875 399.16796875 92.998046875 413.500976562 c 0
 80.998046875 427.833984375 71.6650390625 442.833984375 64.998046875 458.500976562 c 0
 58.3310546875 474.16796875 54.998046875 490.000976562 54.998046875 506.000976562 c 0
 54.998046875 528.66796875 58.8310546875 550.500976562 66.498046875 571.500976562 c 0
 74.1650390625 592.500976562 85.998046875 612.333984375 101.998046875 631.000976562 c 0
 117.998046875 649.66796875 137.331054688 665.834960938 159.998046875 679.501953125 c 0
 182.665039062 693.168945312 209.83203125 704.001953125 241.499023438 712.001953125 c 0
 273.166015625 720.001953125 306.999023438 724.001953125 342.999023438 724.001953125 c 0
 360.999023438 724.001953125 385.666015625 722.501953125 416.999023438 719.501953125 c 0
 448.33203125 716.501953125 469.665039062 712.668945312 480.998046875 708.001953125 c 0
 493.665039062 703.334960938 502.83203125 696.001953125 508.499023438 686.001953125 c 0
 513.086914062 677.90625 515.380859375 669.373046875 515.380859375 660.403320312 c 0
 515.380859375 658.293945312 515.25390625 656.16015625 515 654.001953125 c 0
 514.333007812 646.001953125 511.666015625 639.668945312 506.999023438 635.001953125 c 0
 502.33203125 630.334960938 496.665039062 627.66796875 489.998046875 627.000976562 c 0
 483.331054688 626.333984375 477.331054688 626.166992188 471.998046875 626.5 c 0
 466.665039062 626.833007812 460.998046875 628 454.998046875 630 c 0
 453.665039062 630 451.665039062 630.666992188 448.998046875 632 c 0
 436.998046875 634.666992188 427.498046875 636.833984375 420.498046875 638.500976562 c 0
 413.498046875 640.16796875 402.331054688 641.66796875 386.998046875 643.000976562 c 0
 371.665039062 644.333984375 354.33203125 645.000976562 334.999023438 645.000976562 c 0
 304.33203125 645.000976562 275.499023438 640.500976562 248.499023438 631.500976562 c 0
 221.499023438 622.500976562 199.166015625 609.000976562 181.499023438 591.000976562 c 0
 163.83203125 573.000976562 154.999023438 553.000976562 154.999023438 531.000976562 c 0
 154.999023438 505.000976562 166.33203125 483.000976562 188.999023438 465.000976562 c 0
 211.666015625 447.000976562 243.666015625 437.333984375 284.999023438 436.000976562 c 0
 322.33203125 434.000976562 355.33203125 428.16796875 383.999023438 418.500976562 c 0
 412.666015625 408.833984375 435.666015625 397.166992188 452.999023438 383.5 c 0
 470.33203125 369.833007812 484.83203125 353.833007812 496.499023438 335.5 c 0
 508.166015625 317.166992188 515.999023438 299 519.999023438 281 c 0
 523.999023438 263 525.999023438 244.333007812 525.999023438 225 c 0
 525.999023438 194.333007812 520.83203125 165.5 510.499023438 138.5 c 0
 500.166015625 111.5 485.833007812 87.8330078125 467.5 67.5 c 0
 449.166992188 47.1669921875 427.666992188 29.6669921875 403 15 c 0
 378.333007812 0.3330078125 351.5 -10.6669921875 322.5 -18 c 0
 293.5 -25.3330078125 263.666992188 -29 233 -29 c 0
 186.333007812 -29 145 -19.8330078125 109 -1.5 c 0
 73 16.8330078125 48 39.3330078125 34 66 c 0
EndSplineSet
Validated: 524289
EndChar

StartChar: T
Encoding: 84 84 52
Width: 550
GlyphClass: 2
Flags: HMW
HStem: -13.0725 21G 621 80
VStem: 226.865 100.135 235.731 103.269
LayerCount: 2
Fore
SplineSet
339 33 m 0xd0
 337.666992188 19 330.997070312 7.6630859375 318.997070312 -1.00390625 c 0
 307.854492188 -9.0517578125 295.849609375 -13.0751953125 282.982421875 -13.0751953125 c 0
 281.9921875 -13.0751953125 280.997070312 -13.0517578125 279.997070312 -13.00390625 c 0
 266.6640625 -13.00390625 255.6640625 -8.50390625 246.997070312 0.49609375 c 0
 239.485351562 8.296875 235.729492188 18.9765625 235.729492188 32.5361328125 c 0xd0
 235.729492188 34.6220703125 235.818359375 36.775390625 235.99609375 38.9970703125 c 0
 236.627929688 48.470703125 236.943359375 64.208984375 236.943359375 86.212890625 c 0
 236.943359375 133.891601562 235.4609375 210.986328125 232.49609375 317.498046875 c 0
 228.741210938 452.399414062 226.86328125 546.37109375 226.86328125 599.413085938 c 0
 226.86328125 607.578125 226.908203125 614.7734375 226.997070312 620.999023438 c 1
 139.6640625 624.999023438 89.3310546875 627.999023438 75.998046875 629.999023438 c 0
 26.6416015625 637.741210938 23.9267578125 659.939453125 23.9267578125 671.694335938 c 0
 23.9267578125 683.279296875 27.9501953125 693.713867188 35.998046875 702.999023438 c 0
 42.498046875 710.499023438 51.435546875 714.249023438 62.810546875 714.249023438 c 0
 66.6025390625 714.249023438 70.6650390625 713.83203125 74.998046875 712.999023438 c 0
 111.665039062 706.999023438 246.998046875 702.999023438 480.998046875 700.999023438 c 0
 496.998046875 700.999023438 508.331054688 696.999023438 514.998046875 688.999023438 c 0
 521.665039062 680.999023438 525.33203125 671.33203125 525.999023438 659.999023438 c 0
 525.999023438 646.666015625 522.166015625 634.999023438 514.499023438 624.999023438 c 0
 507.734375 616.17578125 497.725585938 611.764648438 484.47265625 611.764648438 c 0
 482.706054688 611.764648438 480.881835938 611.842773438 479 612 c 0
 473.666992188 612 423 613.666992188 327 617 c 1xe0
 327.666992188 481 331.666992188 286.333007812 339 33 c 0xd0
EndSplineSet
Validated: 524289
EndChar

